<svg width="146" height="200" viewBox="0 0 146 200" fill="none" xmlns="http://www.w3.org/2000/svg">
<path d="M105.227 47.041L98.7485 59.8904C97.7848 61.8177 96.2991 61.8343 93.797 60.3986L76.3516 49.682L79.323 45.2637L93.8775 51.6509L101.139 32.531" fill="#00E394"/>
<path opacity="0.15" d="M76.7598 48.3539L95.241 59.6509C96.9073 60.709 97.3849 60.4841 98.3735 60.5091C97.471 61.8448 95.6548 61.6865 93.4609 60.1925L76.6515 49.873L76.7598 48.3539Z" fill="black"/>
<path opacity="0.15" d="M95.3633 51.6201L98.2764 40.0565L93.8776 51.5951L94.2108 51.9144C94.2886 52.0116 94.3941 52.0838 94.5135 52.123C94.6329 52.1621 94.7607 52.1666 94.8801 52.1355C95.0023 52.1046 95.1106 52.0397 95.1967 51.9483C95.2827 51.8569 95.3411 51.7431 95.3633 51.6201Z" fill="black"/>
<path d="M80.3672 200H66.7597C65.971 200 65.2157 199.686 64.6603 199.128C64.1021 198.573 63.7883 197.817 63.7883 197.029V48.2348C63.7883 47.447 64.1021 46.6916 64.6603 46.1345C65.2157 45.5774 65.971 45.2642 66.7597 45.2634H80.3672C82.5166 45.2656 84.5772 46.1206 86.099 47.6411C87.6181 49.1612 88.4734 51.2226 88.4762 53.3723V191.919C88.4679 194.065 87.6098 196.12 86.0907 197.634C84.5717 199.147 82.5139 200 80.3672 200Z" fill="#21252B"/>
<path d="M73.7301 200H8.71989C6.40829 199.997 4.1925 199.078 2.55793 197.442C0.923365 195.807 0.00361015 193.591 0 191.28V53.9557C0.00361015 51.6441 0.923365 49.4283 2.55793 47.7938C4.1925 46.1592 6.40829 45.2394 8.71989 45.2358H73.7301C76.0406 45.2394 78.2567 46.1592 79.8924 47.7938C81.528 49.4283 82.4472 51.6441 82.45 53.9557V191.253C82.4528 192.4 82.2306 193.538 81.7946 194.599C81.3559 195.659 80.7144 196.623 79.9063 197.437C79.0954 198.248 78.1317 198.892 77.0737 199.333C76.0128 199.772 74.8771 200 73.7301 200Z" fill="#61656D"/>
<path d="M73.5079 48.876H56.6791C56.1234 48.8727 55.5846 49.066 55.1575 49.4217C54.7307 49.7774 54.4436 50.2726 54.3464 50.8199C54.2453 51.3651 53.957 51.8577 53.531 52.2129C53.105 52.5678 52.5682 52.7628 52.0137 52.7639H30.2694C29.7138 52.7672 29.175 52.5736 28.7479 52.2179C28.3211 51.8622 28.0339 51.367 27.9367 50.8199C27.8356 50.2745 27.5474 49.7819 27.1214 49.427C26.6954 49.0718 26.1586 48.8771 25.604 48.876H8.77514C7.34691 48.8774 5.97728 49.4456 4.96727 50.4556C3.95726 51.4656 3.38936 52.835 3.3877 54.2635V191.088C3.38936 192.516 3.95726 193.885 4.96727 194.896C5.97728 195.906 7.34691 196.473 8.77514 196.476H73.5635C74.9909 196.473 76.3628 195.906 77.3708 194.896C78.3817 193.885 78.9509 192.516 78.9509 191.088V54.2912C78.9426 52.8527 78.365 51.4759 77.3458 50.4612C76.3266 49.4464 74.9465 48.8766 73.5079 48.876Z" fill="#00E394"/>
<path d="M73.5079 48.876H56.6791C56.1234 48.8727 55.5846 49.066 55.1575 49.4217C54.7307 49.7774 54.4436 50.2726 54.3464 50.8199C54.2453 51.3651 53.957 51.8577 53.531 52.2129C53.105 52.5678 52.5682 52.7628 52.0137 52.7639H30.2694C29.7138 52.7672 29.175 52.5736 28.7479 52.2179C28.3211 51.8622 28.0339 51.367 27.9367 50.8199C27.8356 50.2745 27.5474 49.7819 27.1214 49.427C26.6954 49.0718 26.1586 48.8771 25.604 48.876H8.77514C7.34691 48.8774 5.97728 49.4456 4.96727 50.4556C3.95726 51.4656 3.38936 52.835 3.3877 54.2635V191.088C3.38936 192.516 3.95726 193.885 4.96727 194.896C5.97728 195.906 7.34691 196.473 8.77514 196.476H73.5635C74.9909 196.473 76.3628 195.906 77.3708 194.896C78.3817 193.885 78.9509 192.516 78.9509 191.088V54.2912C78.9426 52.8527 78.365 51.4759 77.3458 50.4612C76.3266 49.4464 74.9465 48.8766 73.5079 48.876Z" fill="url(#paint0_linear_503_65)"/>
<path opacity="0.5" d="M49.9034 50.0395H32.5469C32.3847 50.0395 32.2295 49.9751 32.1148 49.8607C32.0004 49.746 31.9359 49.5907 31.9359 49.4286C31.9359 49.2667 32.0004 49.1112 32.1148 48.9967C32.2295 48.8821 32.3847 48.8176 32.5469 48.8176H49.9034C50.065 48.819 50.2194 48.884 50.3338 48.9981C50.448 49.1125 50.5129 49.2669 50.5143 49.4286C50.5157 49.5094 50.501 49.5894 50.4707 49.6641C50.4407 49.739 50.3957 49.8071 50.3388 49.864C50.2816 49.9209 50.2136 49.9659 50.1389 49.9962C50.0642 50.0262 49.9839 50.0412 49.9034 50.0395Z" fill="black"/>
<path d="M133.578 184.188C133.892 184.908 134.117 185.663 134.247 186.437L136.122 194.735C136.341 195.899 136.302 197.095 136.014 198.242C135.889 198.723 135.608 199.15 135.217 199.456C134.822 199.761 134.342 199.928 133.845 199.931H131.623C131.231 199.931 130.848 199.828 130.509 199.634C130.171 199.439 129.89 199.159 129.696 198.82L129.535 198.542C128.863 197.365 128.482 196.043 128.424 194.688L128.452 186.912C128.396 185.98 128.513 185.046 128.799 184.157L133.578 184.188Z" fill="#00E394"/>
<path d="M106.513 164.218L103.917 180.2C103.639 182.369 103.461 183.332 103.486 184.937L98.2653 194.36L92.403 197.278L90.9034 195.218L97.3822 183.946C97.9182 183.224 98.2653 181.78 98.2653 180.413L98.7208 165.931L106.513 164.218Z" fill="#FC9D9D"/>
<path opacity="0.15" d="M91.8142 196.798L90.9061 195.271L97.3821 184.004C98.0514 183.04 98.2403 181.46 98.268 180.469L98.4541 174.312H104.88L104.825 175.09L101.264 175.57C101.073 175.592 100.895 175.679 100.759 175.815C100.623 175.951 100.537 176.129 100.515 176.32L99.8204 181.488C99.5121 182.861 98.9984 184.178 98.293 185.395L91.8142 196.798Z" fill="black"/>
<path d="M86.0601 198.967C86.0157 199.072 85.9991 199.186 86.0102 199.303C86.0185 199.417 86.0574 199.525 86.1213 199.619C86.1851 199.717 86.2712 199.794 86.3739 199.847C86.4739 199.903 86.5878 199.931 86.7017 199.931H93.0472C93.9525 199.931 94.8439 199.728 95.6604 199.339C96.4796 198.95 97.1989 198.384 97.7681 197.681L101.839 192.702C101.909 192.614 102 192.549 102.109 192.517C102.214 192.485 102.328 192.486 102.434 192.521C102.539 192.556 102.631 192.623 102.697 192.713C102.764 192.802 102.8 192.91 102.803 193.021L103.017 199.903H103.792L104.755 193.21C105.161 190.391 104.733 187.516 103.525 184.937L96.86 193.021C96.1547 193.877 95.2355 194.532 94.1969 194.924C93.1583 195.312 92.0363 195.423 90.9422 195.243L87.8624 197.115C87.046 197.476 86.3989 198.139 86.0601 198.967Z" fill="#00E394"/>
<path d="M127.341 168.453L134.328 168.344L133.578 181.866C133.464 183.918 133.609 185.978 134.006 187.995L134.783 191.957C134.836 192.344 134.808 192.738 134.697 193.113C134.586 193.485 134.395 193.832 134.139 194.127C133.884 194.421 133.564 194.657 133.209 194.818C132.856 194.979 132.47 195.062 132.079 195.062H131.623C130.915 195.06 130.235 194.782 129.724 194.288C129.215 193.793 128.918 193.121 128.893 192.413L128.946 189.08C128.99 186.272 128.849 183.464 128.518 180.674L127.341 168.453Z" fill="#FC9D9D"/>
<path d="M133.095 71.9923L134.139 76.2745C136.869 87.632 137.969 99.3203 137.405 110.987L134.35 174.221L127.407 174.273L120.606 88.7962C120.584 88.4971 120.454 88.2166 120.234 88.0108C120.018 87.805 119.729 87.689 119.429 87.6853C119.146 87.6784 118.868 87.7753 118.651 87.9581C118.435 88.1405 118.293 88.3963 118.252 88.6768L105.174 174.285H98.1319L99.7648 113.19C99.9786 105.32 100.434 97.4661 101.131 89.6293L101.686 83.4198L106.56 72.034L133.095 71.9923Z" fill="#3F4249"/>
<path opacity="0.15" d="M134.006 174.257L133.978 174.951L130.873 175.506C130.646 175.553 130.443 175.677 130.296 175.857C130.148 176.037 130.071 176.263 130.071 176.495L130.285 191.194C130.312 192.399 130.204 194.004 131.49 194.996C130.807 194.968 130.157 194.679 129.676 194.193C129.196 193.707 128.915 193.054 128.893 192.371L128.946 189.039C128.974 187.406 128.946 185.773 128.84 184.14V184.112C128.76 182.963 127.93 174.287 127.93 174.287L134.006 174.257Z" fill="black"/>
<path opacity="0.2" d="M99.7926 113.19C100.006 105.32 100.462 97.4661 101.159 89.6293L101.714 83.4199L106.588 72.034H106.666L113.172 72.0063L133.142 71.9535V71.9813L113.172 72.034C113.172 74.7111 113.728 77.4409 113.681 80.1985C113.628 83.531 111.351 87.6965 105.436 87.6965L100.97 174.285H98.1597L99.7926 113.19Z" fill="black"/>
<path d="M127.366 27.8455L125.119 27.3651L112.267 27.4706L110.581 27.9538C112.028 33.8689 112.992 48.0845 113.311 74.4803L124.797 74.4553C124.744 67.8154 124.878 41.3391 127.366 27.8455Z" fill="white"/>
<path opacity="0.2" d="M122.414 74.4559H124.797C124.744 67.977 124.583 42.5699 126.885 28.7847C122.681 41.6868 121.29 57.1077 122.414 74.4559Z" fill="black"/>
<path opacity="0.2" d="M122.442 74.4276C122.575 76.9269 122.6 76.9714 122.817 79.5151C122.986 81.4618 123.881 83.2741 125.319 84.5963C126.758 85.9187 128.638 86.6549 130.593 86.6604L137.124 86.9826C136.419 83.2116 135.5 79.4843 134.367 75.8189C133.725 74.7081 133.217 73.625 133.028 72.6614C132.989 72.4476 122.414 74.4554 122.442 74.4276Z" fill="black"/>
<path d="M106.271 76.8631H132.534V74.4804H106.271V76.8631Z" fill="black"/>
<path d="M113.125 9.69501C108.868 9.88385 105.574 13.8994 105.788 18.6898C106.002 23.4802 109.618 27.2042 113.875 27.021C116.552 26.8877 115.694 24.2911 115.48 19.498C115.266 14.7048 114.275 13.7911 113.125 9.69501Z" fill="#21252B"/>
<path d="M125.38 27.1848C129.757 26.8015 133 23.0386 132.626 18.7814C132.251 14.5242 128.404 11.3862 124.017 11.7694C119.629 12.1526 116.397 15.9155 116.771 20.1727C117.146 24.4299 121.006 27.568 125.38 27.1848Z" fill="#21252B"/>
<path d="M124.422 27.2043C124.211 27.1496 124.02 27.0302 123.878 26.8624C123.736 26.6947 123.65 26.487 123.634 26.2684L122.695 15.6962L116.308 14.1161L116.283 14.4632L115.344 21.5308L115.066 23.4747L114.716 26.124C114.689 26.3245 114.605 26.5128 114.472 26.6653C114.339 26.8177 114.164 26.928 113.969 26.9821L111.692 27.5958L112.337 28.1512C114.139 29.6964 116.43 30.5503 118.804 30.5601C121.179 30.5698 123.478 29.7344 125.291 28.204L126.069 27.5625L124.422 27.2043Z" fill="#FC9D9D"/>
<path d="M113.636 17.915L112.803 6.69858L125.197 6.61804L124.528 17.8595C124.453 19.2486 123.85 20.5563 122.842 21.5155C121.834 22.4747 120.498 23.0126 119.107 23.0198C117.716 23.027 116.374 22.5024 115.358 21.5535C114.339 20.6049 113.722 19.3033 113.633 17.915H113.636Z" fill="#FC9D9D"/>
<path d="M113.636 17.915L112.803 6.69858L125.197 6.61804L124.528 17.8595C124.453 19.2486 123.85 20.5563 122.842 21.5155C121.834 22.4747 120.498 23.0126 119.107 23.0198C117.716 23.027 116.374 22.5024 115.358 21.5535C114.339 20.6049 113.722 19.3033 113.633 17.915H113.636Z" fill="#FC9D9D"/>
<path d="M122.12 14.6521C122.12 14.5246 122.084 14.3997 122.012 14.2933C121.942 14.187 121.842 14.1039 121.723 14.0548C121.606 14.0056 121.476 13.9926 121.351 14.017C121.226 14.0417 121.112 14.1028 121.02 14.1928C120.931 14.2828 120.87 14.3975 120.845 14.5227C120.82 14.6477 120.831 14.7774 120.881 14.8951C120.929 15.0131 121.012 15.1139 121.117 15.1847C121.223 15.2558 121.348 15.2936 121.476 15.2936C121.645 15.2936 121.809 15.2261 121.931 15.1059C122.051 14.9856 122.12 14.8223 122.12 14.6521Z" fill="#21252B"/>
<path d="M121.342 14.5191C121.342 14.4927 121.334 14.4669 121.32 14.445C121.306 14.423 121.284 14.4061 121.259 14.3958C121.237 14.3858 121.209 14.3833 121.184 14.3883C121.156 14.3936 121.134 14.4061 121.115 14.425C121.095 14.4436 121.084 14.4672 121.079 14.493C121.073 14.5188 121.076 14.5458 121.087 14.5702C121.095 14.5944 121.112 14.6152 121.134 14.6299C121.156 14.6446 121.181 14.6524 121.209 14.6524C121.245 14.6524 121.279 14.6382 121.304 14.6132C121.329 14.5882 121.342 14.5544 121.342 14.5191Z" fill="white"/>
<path d="M117.113 14.652C117.113 14.5243 117.077 14.3993 117.005 14.293C116.935 14.1866 116.835 14.1036 116.716 14.0544C116.599 14.0055 116.469 13.9925 116.344 14.0172C116.219 14.0419 116.105 14.1033 116.013 14.1935C115.925 14.2838 115.861 14.399 115.836 14.5243C115.813 14.6495 115.825 14.7792 115.875 14.897C115.925 15.015 116.008 15.1155 116.113 15.1861C116.219 15.2566 116.344 15.2941 116.472 15.2935C116.641 15.2927 116.805 15.2249 116.924 15.1047C117.044 14.9847 117.113 14.822 117.113 14.652Z" fill="#21252B"/>
<path d="M116.31 14.4909C116.31 14.4637 116.302 14.4371 116.288 14.4143C116.274 14.3915 116.252 14.3735 116.227 14.3629C116.202 14.3524 116.174 14.3493 116.149 14.3546C116.122 14.3596 116.097 14.3726 116.077 14.3918C116.058 14.411 116.047 14.4357 116.041 14.4623C116.035 14.489 116.038 14.5165 116.049 14.5415C116.06 14.5665 116.077 14.5876 116.099 14.6023C116.124 14.617 116.149 14.6248 116.177 14.6242C116.194 14.6242 116.213 14.6206 116.227 14.614C116.244 14.6073 116.26 14.5976 116.272 14.5851C116.283 14.5729 116.294 14.5581 116.299 14.5418C116.308 14.5257 116.31 14.5084 116.31 14.4909Z" fill="white"/>
<g opacity="0.3">
<path opacity="0.3" d="M118.104 16.7901C118.104 16.5846 118.185 16.3871 118.332 16.2413C118.477 16.0955 118.674 16.0133 118.879 16.0125C118.907 16.0094 118.932 16.0119 118.957 16.0197C118.985 16.0278 119.007 16.0411 119.026 16.0586C119.049 16.0764 119.062 16.0983 119.074 16.1225C119.085 16.1469 119.09 16.1733 119.09 16.1999C119.09 16.2269 119.085 16.2533 119.074 16.2777C119.062 16.3019 119.049 16.3238 119.026 16.3416C119.007 16.3591 118.985 16.3724 118.957 16.3805C118.932 16.3882 118.907 16.3907 118.879 16.3874C118.826 16.3868 118.774 16.3966 118.724 16.4166C118.676 16.4368 118.632 16.4663 118.593 16.504C118.557 16.5415 118.527 16.5862 118.507 16.6354C118.488 16.6845 118.479 16.7373 118.479 16.7901C118.479 16.8431 118.488 16.8956 118.507 16.9445C118.527 16.9936 118.557 17.0381 118.593 17.0755C118.632 17.1128 118.676 17.1422 118.724 17.1619C118.774 17.1816 118.826 17.1913 118.879 17.19H119.435C119.479 17.1958 119.523 17.2177 119.554 17.2524C119.585 17.2869 119.601 17.3313 119.601 17.3774C119.601 17.4238 119.585 17.4682 119.554 17.5027C119.523 17.5374 119.479 17.5593 119.435 17.5649H118.879C118.674 17.5649 118.477 17.4835 118.332 17.338C118.185 17.1927 118.104 16.9956 118.104 16.7901Z" fill="black"/>
</g>
<path d="M129.107 13.4163L128.116 12.722C127.607 13.6301 125.116 14.1383 125.116 14.1383L125.064 12.8275C125.064 12.8275 118.879 13.9383 116.455 8.8397C116.316 9.54951 115.947 10.1941 115.405 10.6731C114.864 11.1521 114.178 11.4387 113.456 11.489C113.456 11.489 113.697 14.2466 112.734 14.8881C112.278 13.6856 111.448 12.8803 110.995 11.1419L109.815 10.6587C110.09 10.5107 110.315 10.2835 110.456 10.0066C110.601 9.72974 110.656 9.41594 110.62 9.1063C110.379 6.75137 110.995 4.26036 113.697 2.01096C118.116 -1.65473 127.058 -0.263433 127.646 5.81273C127.688 6.14847 127.827 6.4645 128.046 6.7236C128.399 7.10377 128.674 7.55032 128.854 8.03769C129.032 8.52478 129.113 9.04298 129.09 9.56173C129.076 10.1532 128.979 10.7398 128.796 11.3029C128.796 11.3029 128.449 12.5609 129.413 13.2302L129.107 13.4163Z" fill="#21252B"/>
<path d="M113.686 16.2264L113.794 13.9243C113.767 11.8109 111.17 11.7554 111.278 13.8715C111.387 15.9876 113.472 16.1737 113.472 16.1737L113.686 16.2264Z" fill="#FC9D9D"/>
<path opacity="0.3" d="M113.15 14.0859C113.153 14.1315 113.139 14.1765 113.108 14.2115C113.078 14.2465 113.036 14.2692 112.992 14.2748C112.95 14.272 112.911 14.2542 112.881 14.2245C112.85 14.1951 112.834 14.1554 112.831 14.1137C112.828 13.9257 112.803 13.7388 112.75 13.5583C112.706 13.4292 112.62 13.3175 112.509 13.2389C112.4 13.1834 112.295 13.2112 112.134 13.2917C112.12 13.305 112.1 13.3125 112.081 13.3125C112.059 13.3125 112.039 13.305 112.025 13.2917C112 13.2917 111.973 13.2639 111.948 13.2112C111.931 13.1723 111.931 13.1287 111.945 13.0893C111.959 13.0496 111.989 13.0168 112.025 12.9973C112.117 12.9435 112.223 12.911 112.328 12.9018C112.434 12.8927 112.542 12.9074 112.642 12.9446C112.742 12.9965 112.828 13.0687 112.897 13.1562C112.967 13.2437 113.017 13.3448 113.045 13.4528C113.117 13.6558 113.153 13.8702 113.15 14.0859Z" fill="black"/>
<path d="M113.253 15.3549C113.267 15.2561 113.242 15.1558 113.183 15.0747C113.128 14.9936 113.039 14.9378 112.942 14.9189C112.764 14.9189 112.617 15.105 112.611 15.3411C112.598 15.4396 112.623 15.5399 112.681 15.621C112.739 15.7023 112.825 15.7582 112.922 15.777C113.1 15.7798 113.247 15.591 113.253 15.3549Z" fill="#00E394"/>
<path opacity="0.15" d="M113.15 15.6935C113.125 15.7193 113.097 15.7396 113.067 15.7529C113.034 15.7665 112.997 15.7726 112.964 15.7713C112.775 15.7713 112.642 15.5852 112.642 15.3436C112.639 15.2797 112.65 15.2161 112.673 15.1564C112.695 15.0967 112.731 15.0423 112.775 14.9965C112.745 15.0739 112.728 15.1553 112.723 15.2381C112.711 15.2892 112.714 15.3416 112.725 15.3925C112.736 15.4433 112.756 15.4913 112.786 15.5338C112.817 15.5763 112.856 15.6124 112.9 15.6399C112.945 15.6671 112.992 15.6854 113.045 15.6935H113.15Z" fill="black"/>
<path d="M124.503 16.2264L124.394 13.9243C124.422 11.8109 127.019 11.7554 126.91 13.8715C126.802 15.9876 124.717 16.1737 124.717 16.1737L124.503 16.2264Z" fill="#FC9D9D"/>
<path opacity="0.3" d="M125.039 14.0855C125.036 14.1313 125.05 14.176 125.08 14.2113C125.111 14.2463 125.153 14.2688 125.197 14.2744C125.239 14.2719 125.278 14.2541 125.308 14.2244C125.339 14.1947 125.355 14.1552 125.358 14.1133C125.383 13.9261 125.419 13.7406 125.466 13.5579C125.477 13.4896 125.508 13.4249 125.55 13.3696C125.591 13.3141 125.644 13.2691 125.708 13.2385C125.788 13.183 125.922 13.2107 126.083 13.2913C126.097 13.3046 126.116 13.3121 126.136 13.3121C126.155 13.3121 126.174 13.3046 126.188 13.2913C126.216 13.2913 126.241 13.2635 126.269 13.2107C126.286 13.1716 126.286 13.1277 126.272 13.088C126.255 13.0483 126.227 13.0155 126.188 12.9969C126.091 12.9433 125.983 12.9108 125.872 12.9017C125.764 12.8925 125.652 12.9069 125.547 12.9441C125.444 12.995 125.353 13.0663 125.28 13.1538C125.205 13.2413 125.153 13.3429 125.119 13.4523C125.028 13.6501 125 13.8711 125.039 14.0855Z" fill="black"/>
<path d="M125.261 15.7575C125.353 15.782 125.447 15.7772 125.536 15.7442C125.622 15.7109 125.7 15.6509 125.75 15.5728C125.802 15.4945 125.827 15.4018 125.825 15.3082C125.822 15.2143 125.789 15.1241 125.73 15.0502C125.672 14.9763 125.591 14.9225 125.502 14.8964C125.411 14.8703 125.316 14.873 125.228 14.9047C125.139 14.9363 125.064 14.9947 125.008 15.0722C124.955 15.1494 124.928 15.2416 124.93 15.3354C124.936 15.5715 125.083 15.7603 125.261 15.7575Z" fill="#00E394"/>
<path opacity="0.15" d="M125.039 15.6935C125.064 15.7193 125.091 15.7396 125.122 15.7529C125.155 15.7665 125.191 15.7726 125.225 15.7713C125.414 15.7713 125.547 15.5852 125.547 15.3436C125.55 15.2797 125.539 15.2161 125.516 15.1564C125.494 15.0967 125.458 15.0423 125.414 14.9965C125.444 15.0739 125.461 15.1553 125.466 15.2381C125.475 15.2892 125.475 15.3416 125.464 15.3925C125.452 15.4433 125.433 15.4913 125.402 15.5338C125.372 15.5763 125.333 15.6124 125.289 15.6399C125.244 15.6671 125.197 15.6854 125.144 15.6935H125.039Z" fill="black"/>
<path d="M120.459 18.6094C120.568 18.6094 120.593 18.69 120.568 18.7705C120.418 19.086 120.182 19.3523 119.887 19.5389C119.593 19.7255 119.251 19.8247 118.901 19.8247C118.552 19.8247 118.21 19.7255 117.916 19.5389C117.621 19.3523 117.385 19.086 117.235 18.7705C117.23 18.7527 117.227 18.7336 117.23 18.7147C117.23 18.6958 117.238 18.6777 117.249 18.6622C117.257 18.6464 117.274 18.6333 117.291 18.6241C117.307 18.615 117.324 18.61 117.344 18.6094H120.459Z" fill="white"/>
<path d="M113.445 14.2991C113.406 14.6993 113.461 15.1028 113.603 15.4783C113.747 15.8535 113.975 16.1903 114.272 16.4622C114.569 16.7338 114.925 16.9332 115.311 17.044C115.697 17.1548 116.102 17.1745 116.499 17.1012C116.894 17.0281 117.266 16.864 117.588 16.6221C117.907 16.38 118.168 16.067 118.349 15.7071C118.527 15.3472 118.621 14.9509 118.621 14.5488C118.618 14.147 118.527 13.7507 118.346 13.3911C118.765 13.2566 119.215 13.2655 119.629 13.416C119.515 13.681 119.443 13.962 119.415 14.2492C119.371 14.7601 119.476 15.2733 119.723 15.7235C119.971 16.1734 120.346 16.5405 120.798 16.7777C121.254 17.0151 121.77 17.112 122.278 17.0567C122.789 17.0012 123.272 16.7957 123.664 16.4661C124.058 16.1367 124.344 15.6979 124.489 15.2053C124.633 14.7129 124.628 14.1886 124.472 13.6993C124.319 13.21 124.022 12.777 123.622 12.4557C123.223 12.1344 122.737 11.9392 122.226 11.8942C121.748 11.8454 121.265 11.9323 120.834 12.145C120.404 12.3577 120.043 12.6876 119.79 13.0967C119.274 12.9037 118.707 12.8948 118.185 13.0717C117.968 12.7487 117.685 12.4774 117.352 12.2783C117.019 12.0789 116.644 11.9562 116.258 11.9192C115.916 11.8865 115.572 11.9226 115.244 12.025C114.916 12.1278 114.611 12.2947 114.35 12.5166C114.089 12.7382 113.872 13.0103 113.717 13.3163C113.561 13.6227 113.47 13.9567 113.445 14.2991ZM119.71 14.2464C119.748 13.7987 119.921 13.373 120.201 13.0228C120.484 12.6729 120.862 12.4141 121.292 12.2797C121.72 12.145 122.181 12.1408 122.612 12.2672C123.042 12.3935 123.425 12.6449 123.714 12.9895C124.003 13.3341 124.183 13.7565 124.231 14.2033C124.278 14.6502 124.194 15.1012 123.986 15.4994C123.778 15.8976 123.456 16.225 123.061 16.4405C122.667 16.656 122.217 16.7496 121.77 16.7096C121.17 16.6546 120.618 16.3647 120.232 15.9032C119.846 15.4416 119.657 14.846 119.71 14.2464ZM113.739 14.2742C113.778 13.8268 113.95 13.401 114.23 13.0509C114.514 12.701 114.891 12.4421 115.322 12.3075C115.749 12.1728 116.208 12.168 116.638 12.2944C117.071 12.4205 117.455 12.6715 117.743 13.0159C118.032 13.3602 118.21 13.7823 118.26 14.2292C118.307 14.6757 118.224 15.1267 118.016 15.5249C117.807 15.9232 117.488 16.2511 117.094 16.4669C116.699 16.6827 116.249 16.7768 115.802 16.7374C115.202 16.6824 114.65 16.3925 114.264 15.9309C113.875 15.4697 113.689 14.874 113.739 14.2742Z" fill="white"/>
<path opacity="0.15" d="M121.504 22.6583C121.495 22.6314 121.479 22.6067 121.459 22.5861C121.44 22.5656 121.417 22.5495 121.39 22.5392C121.365 22.5289 121.334 22.5245 121.306 22.5264C121.279 22.5281 121.251 22.5361 121.226 22.55C120.601 22.8191 119.923 22.9563 119.243 22.9527H119.082C118.282 22.9324 117.491 22.76 116.755 22.4445C116.247 22.2032 115.78 21.8866 115.366 21.5059L115.089 23.4498C115.7 23.6197 116.33 23.6919 116.963 23.6636C117.485 23.6447 118.002 23.5367 118.488 23.3443C118.729 23.3762 118.971 23.3937 119.212 23.397C119.948 23.402 120.676 23.2565 121.354 22.9694C121.401 22.9335 121.442 22.8866 121.467 22.8325C121.492 22.778 121.506 22.7183 121.504 22.6583Z" fill="black"/>
<path d="M136.255 29.5595L127.091 27.7655C123.758 41.7146 122.7 59.6765 124.333 78.8464C124.517 80.9211 125.469 82.8522 127.005 84.2594C128.541 85.6662 130.548 86.4466 132.631 86.4471H136.755C136.83 86.4463 136.905 86.4288 136.974 86.3963C137.044 86.3635 137.102 86.3163 137.152 86.258C137.199 86.1994 137.235 86.1314 137.255 86.0581C137.274 85.9845 137.277 85.9078 137.263 85.8334C136.247 80.8792 135.319 76.1665 134.614 72.5258C133.736 67.912 133.564 63.1919 134.106 58.5268L135.925 43.0531L141.626 36.7353C141.476 33.414 139.601 30.3898 136.255 29.5595Z" fill="#00E394"/>
<path d="M105.027 29.5065C101.734 30.5506 100.101 33.4415 100.129 36.8962L101.517 39.1178L102.964 54.2166C103.517 60.0073 103.453 65.8401 102.775 71.6175L101.17 85.2416C101.153 85.3991 101.167 85.5582 101.217 85.709C101.264 85.8598 101.342 85.999 101.448 86.1178C101.551 86.2364 101.681 86.3319 101.823 86.3983C101.967 86.4644 102.123 86.4999 102.281 86.5024H106.805C108.649 86.491 110.415 85.7582 111.726 84.4607C113.036 83.163 113.786 81.4041 113.817 79.5598C114.192 55.2524 112.264 33.2721 110.926 27.8375L105.027 29.5065Z" fill="#00E394"/>
<path d="M128.304 56.0351L128.277 61.8447L118.002 60.2396L115.005 60.5173C113.422 60.6767 111.823 60.5498 110.284 60.1424C110.162 60.1029 110.057 60.0299 109.976 59.9313C109.895 59.833 109.843 59.7136 109.829 59.587C109.826 59.4962 109.843 59.4056 109.876 59.3215C109.912 59.2373 109.962 59.1613 110.029 59.0982C110.095 59.0352 110.173 58.9866 110.259 58.9555C110.343 58.9244 110.434 58.9116 110.526 58.9177L110.804 58.9427L110.429 58.9177C110.248 58.8949 110.079 58.8105 109.954 58.6783C109.826 58.5464 109.748 58.3751 109.734 58.1929C109.726 58.0874 109.737 57.981 109.771 57.8802C109.804 57.7797 109.857 57.6864 109.926 57.6067C109.995 57.5267 110.082 57.4617 110.176 57.4156C110.27 57.3695 110.376 57.3428 110.481 57.3376C110.262 57.3451 110.048 57.2687 109.884 57.124C109.721 56.9796 109.618 56.7777 109.598 56.56C109.576 56.3551 109.632 56.149 109.757 55.9846C109.882 55.8202 110.065 55.7099 110.268 55.6769L110.545 55.6241C110.545 55.6241 110.412 55.6519 110.223 55.6769C110.137 55.6963 110.048 55.6969 109.959 55.6786C109.873 55.6602 109.793 55.6236 109.721 55.5708C109.651 55.5181 109.59 55.4509 109.548 55.3734C109.507 55.2956 109.479 55.2098 109.473 55.1215V55.0937C109.459 54.9421 109.504 54.7905 109.598 54.6711C109.693 54.5514 109.832 54.4731 109.982 54.4522L114.641 53.7024V53.4081C114.63 52.5647 114.703 51.7218 114.855 50.8921L114.88 50.8115C114.944 50.5002 115.105 50.2175 115.341 50.0054C115.577 49.7932 115.877 49.6632 116.194 49.6341H116.299C116.319 49.6299 116.338 49.6302 116.358 49.6352C116.377 49.6399 116.397 49.6491 116.413 49.6618C116.427 49.6746 116.441 49.6907 116.449 49.709C116.458 49.7274 116.46 49.7474 116.46 49.7674L116.541 51.5058C116.549 51.8454 116.646 52.1773 116.819 52.4694L118.29 55.1215L128.304 56.0351Z" fill="#FC9D9D"/>
<path d="M145.947 61.0672C146.033 61.5718 145.994 62.0897 145.839 62.5765C145.68 63.0636 145.405 63.5049 145.039 63.8631C144.675 64.2211 144.228 64.4852 143.737 64.6329C143.248 64.7807 142.728 64.8073 142.226 64.7107L125.652 61.4976L125.3 55.6881L135.741 56.4101L134.328 46.8182L134.997 45.0242C134.864 40.767 136.202 37.8511 138.396 34.1938L141.451 35.3046L145.947 61.0672Z" fill="#00E394"/>
<path opacity="0.15" d="M125.627 60.7207L125.68 61.4983L142.24 64.7113C142.695 64.7985 143.162 64.7844 143.612 64.6702C144.061 64.5561 144.478 64.3445 144.836 64.0507C145.194 63.7566 145.483 63.3875 145.683 62.9696C145.88 62.5513 145.986 62.0945 145.989 61.6316C145.68 62.2497 145.181 62.7496 144.561 63.0543C143.942 63.3589 143.239 63.4514 142.562 63.3172L125.627 60.7207Z" fill="black"/>
<path opacity="0.15" d="M135.747 56.438L136.816 56.5435C136.891 56.5513 136.966 56.5371 137.033 56.5029C137.099 56.4688 137.155 56.4157 137.191 56.3508C137.227 56.2858 137.247 56.2113 137.241 56.1366C137.235 56.0619 137.21 55.99 137.166 55.9298L135.316 53.4915L135.747 56.438Z" fill="black"/>
<path opacity="0.15" d="M109.429 55.0191V55.0441C109.437 55.1321 109.462 55.218 109.504 55.2952C109.548 55.3724 109.607 55.4396 109.679 55.4923C109.748 55.5448 109.829 55.5818 109.918 55.6001C110.004 55.6187 110.093 55.6184 110.179 55.5995H110.234C110.034 55.639 109.854 55.7509 109.732 55.9136C109.609 56.0766 109.548 56.2791 109.565 56.4826C109.584 56.7009 109.687 56.9033 109.851 57.0483C110.015 57.193 110.229 57.2688 110.448 57.2602C110.343 57.2669 110.24 57.2943 110.145 57.341C110.051 57.3877 109.965 57.4526 109.896 57.5321C109.826 57.6115 109.773 57.704 109.74 57.8042C109.704 57.9042 109.69 58.01 109.698 58.1155C109.709 58.2991 109.787 58.4724 109.915 58.6046C110.043 58.737 110.212 58.8195 110.395 58.8376H110.501C110.409 58.8251 110.315 58.8334 110.226 58.8623C110.137 58.8909 110.057 58.9395 109.99 59.0036C109.923 59.068 109.871 59.1469 109.84 59.2338C109.807 59.321 109.796 59.4143 109.804 59.5068C109.807 59.6373 109.851 59.7634 109.934 59.8645C110.018 59.9653 110.132 60.035 110.259 60.0622C110.609 60.1428 110.956 60.2233 111.303 60.2761L110.956 59.6068C110.904 59.5179 110.876 59.416 110.876 59.3124C110.876 59.2088 110.904 59.1072 110.956 59.0181L111.09 58.8042C111.145 58.7098 111.173 58.6015 111.167 58.4924C111.162 58.3829 111.129 58.2774 111.065 58.1877L111.009 58.0794C110.942 57.9856 110.906 57.8736 110.906 57.7587C110.906 57.6437 110.942 57.5318 111.009 57.4379L111.09 57.3324C111.156 57.2382 111.192 57.1258 111.192 57.0103C111.192 56.8947 111.156 56.7823 111.09 56.6881L110.984 56.5271C110.929 56.4507 110.895 56.3615 110.884 56.268C110.876 56.1744 110.89 56.08 110.929 55.9939L111.065 55.6967C111.101 55.6104 111.115 55.5162 111.106 55.4229C111.095 55.3299 111.062 55.2404 111.009 55.1635C110.954 55.0766 110.92 54.9761 110.917 54.8725C110.912 54.7692 110.934 54.6662 110.984 54.5748L111.117 54.3332C111.142 54.2804 111.17 54.2527 111.17 54.1999L109.993 54.386C109.843 54.4165 109.707 54.4948 109.607 54.609C109.504 54.7231 109.443 54.8669 109.429 55.0191Z" fill="black"/>
<path opacity="0.15" d="M125.652 61.4171L125.6 60.7201L120.379 60.1842C119.648 60.1039 118.913 60.1039 118.185 60.1842L117.996 60.2119" fill="black"/>
<path opacity="0.2" d="M123.806 55.3941C123.803 55.4468 123.822 55.4985 123.858 55.5382C123.892 55.5779 123.942 55.6029 123.995 55.6079L134.381 56.3577L134.433 55.955L124.02 55.2052C123.967 55.2036 123.914 55.2222 123.875 55.2572C123.836 55.2922 123.811 55.3413 123.806 55.3941Z" fill="black"/>
<path opacity="0.2" d="M125.733 93.7033L129.899 174.282L127.435 174.31L120.609 88.8046C120.59 88.5063 120.457 88.2272 120.234 88.027C120.129 87.9212 120.004 87.8381 119.865 87.7829C119.729 87.7273 119.579 87.701 119.432 87.7048C121.051 87.7062 122.606 88.3297 123.781 89.4461C124.953 90.5621 125.652 92.0862 125.733 93.7033Z" fill="black"/>
<path opacity="0.2" d="M102.281 86.5025H105.763L107.316 72.2063C107.538 66.1551 107.199 60.0962 106.296 54.1083L105.441 48.432C105.427 48.3187 105.38 48.2124 105.305 48.1274C105.227 48.0424 105.127 47.9827 105.016 47.9566C104.905 47.9305 104.789 47.9391 104.683 47.9816C104.577 48.0238 104.486 48.098 104.425 48.1932L102.647 52.156L102.95 54.1888C103.506 59.9795 103.442 65.8124 102.764 71.5898L101.159 85.2167C101.142 85.3758 101.159 85.5366 101.209 85.6891C101.256 85.8415 101.337 85.9823 101.442 86.1028C101.548 86.2234 101.675 86.3209 101.82 86.3897C101.964 86.4586 102.12 86.4969 102.281 86.5025Z" fill="black"/>
<path d="M81.0532 44.0859L78.8038 43.3889C77.6319 42.7532 76.2906 42.4922 74.9659 42.6413C73.6385 42.7901 72.3916 43.3416 71.3891 44.222C71.1364 44.4394 70.9475 44.7202 70.8392 45.0354C70.7282 45.3506 70.7059 45.6891 70.7726 46.0159L71.6835 48.7458C71.7251 48.8546 71.7973 48.9485 71.8945 49.0154C71.9889 49.0821 72.1028 49.1187 72.2194 49.1207C72.2972 49.1185 72.375 49.0993 72.4472 49.0648C72.5166 49.0304 72.5804 48.981 72.6304 48.9204C72.6804 48.8596 72.7193 48.7888 72.7387 48.7127C72.7609 48.6366 72.7637 48.5569 72.7526 48.4792L72.3 45.3717L72.9137 49.5372C72.9331 49.7002 73.0137 49.8505 73.1359 49.9591C73.2581 50.0676 73.4191 50.1271 73.583 50.126C73.6774 50.1285 73.7718 50.1112 73.8579 50.0754C73.9468 50.0396 74.0245 49.9863 74.0911 49.9182C74.155 49.8505 74.2078 49.7697 74.2383 49.6811C74.2717 49.5925 74.2856 49.4981 74.28 49.4039L74.0911 45.3356C74.0911 45.3356 74.2522 48.1459 74.3078 49.4845C74.3189 49.6519 74.3938 49.8091 74.5133 49.9252C74.6355 50.041 74.7965 50.1074 74.9631 50.1107C75.1325 50.1143 75.2964 50.0546 75.4214 49.9438C75.5463 49.833 75.6268 49.6791 75.6463 49.5122L75.924 45.4161C75.9351 45.3881 75.9546 45.3636 75.9768 45.3447C75.999 45.3258 76.0268 45.3131 76.0573 45.3078C76.0879 45.3045 76.1212 45.3142 76.1462 45.3345C76.1712 45.3547 76.1878 45.3842 76.1906 45.4161L76.4683 49.5122C76.4766 49.6772 76.5461 49.833 76.6655 49.9471C76.7849 50.0613 76.9432 50.1254 77.1098 50.126C77.2709 50.1221 77.4236 50.0604 77.543 49.9524C77.6597 49.8441 77.7346 49.6966 77.7541 49.5372L78.1817 45.255H80.2145C80.4839 45.255 80.7449 45.1476 80.9338 44.9565C81.1254 44.7652 81.2337 44.5061 81.2337 44.2359C81.2142 44.1664 81.1448 44.0581 81.0532 44.0859Z" fill="#FC9D9D"/>
<g opacity="0.2">
<path opacity="0.2" d="M73.9245 45.3436L74.0495 49.1176H74.4244L74.2994 45.3464L73.9245 45.3436Z" fill="black"/>
</g>
<g opacity="0.2">
<path opacity="0.2" d="M72.1417 45.5741L72.3944 48.6289L72.7693 48.5955L72.5166 45.5547L72.1417 45.5741Z" fill="black"/>
</g>
<path opacity="0.2" d="M78.2428 44.4861C78.2456 44.4164 78.2706 44.3492 78.3123 44.2925C78.3511 44.2359 78.4094 44.1923 78.4733 44.167C78.5372 44.1415 78.6094 44.1351 78.6788 44.149C78.7455 44.1626 78.8093 44.1959 78.8593 44.2445L79.9285 45.2637H78.1623L78.2428 44.4861Z" fill="black"/>
<path opacity="0.15" d="M134.433 55.9548L132.534 55.8215L133.872 46.2379C133.878 46.2037 133.897 46.1729 133.925 46.151C133.95 46.1288 133.986 46.1168 134.02 46.1168C134.056 46.1168 134.089 46.1288 134.114 46.151C134.142 46.1729 134.161 46.2037 134.167 46.2379L135 51.1088L134.433 55.9548Z" fill="black"/>
<path d="M10.104 116.6C10.104 114.184 10.952 112.128 12.648 110.432C14.344 108.736 16.4 107.888 18.816 107.888C21.232 107.888 23.288 108.736 24.984 110.432C26.68 112.128 27.528 114.184 27.528 116.6C27.528 119 26.68 121.048 24.984 122.744C23.288 124.44 21.232 125.288 18.816 125.288C16.4 125.288 14.344 124.44 12.648 122.744C10.952 121.048 10.104 119 10.104 116.6ZM13.056 116.6C13.056 118.232 13.608 119.624 14.712 120.776C15.832 121.928 17.2 122.504 18.816 122.504C20.432 122.504 21.792 121.928 22.896 120.776C24.016 119.624 24.576 118.232 24.576 116.6C24.576 114.952 24.016 113.552 22.896 112.4C21.792 111.248 20.432 110.672 18.816 110.672C17.2 110.672 15.832 111.248 14.712 112.4C13.608 113.552 13.056 114.952 13.056 116.6ZM36.0566 108.2C37.8166 108.2 39.2246 108.656 40.2806 109.568C41.3366 110.48 41.8646 111.736 41.8646 113.336C41.8646 114.936 41.3366 116.192 40.2806 117.104C39.2246 118 37.8166 118.448 36.0566 118.448H33.4886V125H30.6086V108.2H36.0566ZM36.1046 115.88C36.9686 115.88 37.6646 115.656 38.1926 115.208C38.7206 114.76 38.9846 114.136 38.9846 113.336C38.9846 112.536 38.7206 111.912 38.1926 111.464C37.6646 111.016 36.9686 110.792 36.1046 110.792H33.4886V115.88H36.1046ZM54.0133 108.2V110.816H47.2933V115.088H53.4853V117.632H47.2933V122.384H54.0613V125H44.4133V108.2H54.0133ZM71.8971 125H69.0891L60.0411 112.664V125H57.2571V108.2H60.1851L69.1131 120.512V108.2H71.8971V125ZM14.784 130.6V131.908H11.424V134.044H14.52V135.316H11.424V137.692H14.808V139H9.984V130.6H14.784ZM22.1419 131.824C22.9659 132.632 23.3779 133.624 23.3779 134.8C23.3779 135.976 22.9659 136.972 22.1419 137.788C21.3259 138.596 20.3299 139 19.1539 139H16.4059V130.6H19.1539C20.3299 130.6 21.3259 131.008 22.1419 131.824ZM21.0979 136.828C21.6339 136.276 21.9019 135.6 21.9019 134.8C21.9019 134 21.6339 133.324 21.0979 132.772C20.5699 132.22 19.9099 131.944 19.1179 131.944H17.8459V137.656H19.1179C19.9099 137.656 20.5699 137.38 21.0979 136.828ZM30.5057 138.196C29.9217 138.828 29.1177 139.144 28.0937 139.144C27.0697 139.144 26.2657 138.828 25.6817 138.196C25.0977 137.564 24.8057 136.72 24.8057 135.664V130.6H26.2457V135.604C26.2457 136.268 26.4057 136.792 26.7257 137.176C27.0457 137.56 27.5017 137.752 28.0937 137.752C28.6857 137.752 29.1417 137.56 29.4617 137.176C29.7817 136.792 29.9417 136.268 29.9417 135.604V130.6H31.3817V135.664C31.3817 136.72 31.0897 137.564 30.5057 138.196ZM34.0266 137.896C33.1946 137.056 32.7786 136.024 32.7786 134.8C32.7786 133.576 33.1946 132.544 34.0266 131.704C34.8666 130.864 35.8946 130.444 37.1106 130.444C37.9026 130.444 38.6666 130.672 39.4026 131.128V132.676C38.6826 132.124 37.9226 131.848 37.1226 131.848C36.3066 131.848 35.6266 132.132 35.0826 132.7C34.5386 133.26 34.2666 133.96 34.2666 134.8C34.2666 135.624 34.5386 136.32 35.0826 136.888C35.6346 137.456 36.3146 137.74 37.1226 137.74C37.8906 137.74 38.6586 137.472 39.4266 136.936V138.484C38.7066 138.924 37.9306 139.144 37.0986 139.144C35.8826 139.144 34.8586 138.728 34.0266 137.896ZM48.2153 139H46.7033L45.8513 136.876H42.4673L41.6273 139H40.1513L43.5713 130.6H44.7953L48.2153 139ZM45.3953 135.616L44.1593 132.496L42.9353 135.616H45.3953ZM52.7291 139.564C53.0331 139.564 53.2851 139.66 53.4851 139.852C53.6851 140.044 53.7851 140.288 53.7851 140.584C53.7851 140.912 53.6691 141.18 53.4371 141.388C53.2131 141.596 52.9251 141.7 52.5731 141.7C52.2451 141.7 51.9691 141.604 51.7451 141.412C51.5291 141.228 51.4011 140.992 51.3611 140.704H52.2011C52.2571 140.896 52.3851 140.992 52.5851 140.992C52.7051 140.992 52.8011 140.956 52.8731 140.884C52.9451 140.812 52.9811 140.72 52.9811 140.608C52.9811 140.496 52.9451 140.404 52.8731 140.332C52.8011 140.268 52.7091 140.236 52.5971 140.236C52.4611 140.236 52.3451 140.292 52.2491 140.404L51.5411 140.02L51.9491 139.06C50.9411 138.868 50.1131 138.38 49.4651 137.596C48.8251 136.804 48.5051 135.872 48.5051 134.8C48.5051 133.576 48.9211 132.544 49.7531 131.704C50.5931 130.864 51.6211 130.444 52.8371 130.444C53.6291 130.444 54.3931 130.672 55.1291 131.128V132.676C54.4091 132.124 53.6491 131.848 52.8491 131.848C52.0331 131.848 51.3531 132.132 50.8091 132.7C50.2651 133.26 49.9931 133.96 49.9931 134.8C49.9931 135.624 50.2651 136.32 50.8091 136.888C51.3611 137.456 52.0411 137.74 52.8491 137.74C53.6171 137.74 54.3851 137.472 55.1531 136.936V138.484C54.4331 138.924 53.6571 139.144 52.8251 139.144H52.7171L52.5011 139.6C52.5331 139.576 52.6091 139.564 52.7291 139.564ZM57.9058 129.82C57.8978 129.348 58.0058 128.992 58.2298 128.752C58.4538 128.512 58.7498 128.392 59.1178 128.392C59.4138 128.392 59.7098 128.488 60.0058 128.68C60.3098 128.872 60.5218 128.968 60.6418 128.968C60.9378 128.968 61.0858 128.792 61.0858 128.44H61.9498C61.9578 128.912 61.8498 129.268 61.6258 129.508C61.4018 129.748 61.1058 129.868 60.7378 129.868C60.4338 129.868 60.1338 129.772 59.8378 129.58C59.5418 129.388 59.3338 129.292 59.2138 129.292C58.9178 129.292 58.7698 129.468 58.7698 129.82H57.9058ZM63.9418 139H62.4298L61.5778 136.876H58.1938L57.3538 139H55.8778L59.2978 130.6H60.5218L63.9418 139ZM61.1218 135.616L59.8858 132.496L58.6618 135.616H61.1218ZM64.2317 134.8C64.2317 133.592 64.6557 132.564 65.5037 131.716C66.3517 130.868 67.3797 130.444 68.5877 130.444C69.7957 130.444 70.8237 130.868 71.6717 131.716C72.5197 132.564 72.9437 133.592 72.9437 134.8C72.9437 136 72.5197 137.024 71.6717 137.872C70.8237 138.72 69.7957 139.144 68.5877 139.144C67.3797 139.144 66.3517 138.72 65.5037 137.872C64.6557 137.024 64.2317 136 64.2317 134.8ZM65.7077 134.8C65.7077 135.616 65.9837 136.312 66.5357 136.888C67.0957 137.464 67.7797 137.752 68.5877 137.752C69.3957 137.752 70.0757 137.464 70.6277 136.888C71.1877 136.312 71.4677 135.616 71.4677 134.8C71.4677 133.976 71.1877 133.276 70.6277 132.7C70.0757 132.124 69.3957 131.836 68.5877 131.836C67.7797 131.836 67.0957 132.124 66.5357 132.7C65.9837 133.276 65.7077 133.976 65.7077 134.8Z" fill="white"/>
<defs>
<linearGradient id="paint0_linear_503_65" x1="3.3877" y1="122.676" x2="78.9509" y2="122.676" gradientUnits="userSpaceOnUse">
<stop stop-color="#16D9E3"/>
<stop offset="0.47" stop-color="#30C7EC"/>
<stop offset="1" stop-color="#46AEF7"/>
</linearGradient>
</defs>
</svg>
