<svg width="100" height="100" viewBox="0 0 100 100" fill="none" xmlns="http://www.w3.org/2000/svg">
<path d="M93.4549 17.183H88.9017C89.0084 16.8743 89.063 16.5506 89.0635 16.2246V3.01333C89.0626 2.21443 88.7391 1.44852 88.164 0.883608C87.5888 0.318701 86.8091 0.000928194 85.9958 0L20.9831 0.000142731C19.9135 0.00116201 18.888 0.418829 18.1315 1.16153C17.375 1.90424 16.9493 2.91135 16.9477 3.96196V17.183H6.54564C4.81028 17.1846 3.14646 17.8625 1.91936 19.0678C0.692271 20.2731 0.00216768 21.9074 0.000518873 23.612V67.7973C0.000518873 67.7991 0 67.8007 0 67.8024C0 67.8042 0.000498115 67.8058 0.000518873 67.8075V76.2126C0.00252418 77.9171 0.692742 79.5512 1.91976 80.7565C3.14677 81.9617 4.81038 82.6397 6.54564 82.6417H42.1505L40.0167 97.961H34.9546C34.6794 97.961 34.4154 98.0684 34.2207 98.2596C34.0261 98.4508 33.9167 98.7101 33.9167 98.9805C33.9167 99.2509 34.0261 99.5102 34.2207 99.7014C34.4154 99.8926 34.6794 100 34.9546 100H65.4435C65.7188 100 65.9828 99.8926 66.1775 99.7014C66.3721 99.5102 66.4815 99.2509 66.4815 98.9805C66.4815 98.7101 66.3721 98.4508 66.1775 98.2596C65.9828 98.0684 65.7188 97.961 65.4435 97.961H60.3824L58.2486 82.6417H93.4549C95.19 82.6394 96.8534 81.9613 98.0804 80.7561C99.3073 79.5509 99.9976 77.917 100 76.2126V23.612C99.998 21.9075 99.3078 20.2734 98.0807 19.0682C96.8537 17.8629 95.1901 17.185 93.4549 17.183ZM97.9242 23.612V26.0405H83.0487V19.238L93.4549 19.222C94.6399 19.2231 95.776 19.6859 96.6139 20.509C97.4518 21.3321 97.9231 22.448 97.9242 23.612V23.612ZM19.0235 12.8235H34.6254C34.0297 14.2102 33.8523 15.7358 34.1144 17.2187C34.3764 18.7016 35.0669 20.0793 36.1035 21.1876C36.503 21.6072 36.8 22.1105 36.9723 22.6594C37.1446 23.2084 37.1875 23.7886 37.0979 24.3562C37.0224 24.8673 36.8279 25.3544 36.5294 25.7795C36.2309 26.2046 35.8365 26.5563 35.377 26.8071C35.1892 26.9117 34.9951 27.0049 34.7958 27.0865C31.3644 28.473 29.1474 31.8191 29.1474 35.6076V45.6661H20.9831C20.4639 45.6656 19.9661 45.4629 19.5987 45.1025C19.2314 44.742 19.0246 44.2533 19.0235 43.7433V12.8235ZM48.1434 15.2867C48.2307 16.1336 48.1327 16.9891 47.856 17.7958C47.5792 18.6026 47.1301 19.3419 46.5388 19.9642C45.9956 20.5373 45.5818 21.2166 45.3242 21.9576C45.0667 22.6987 44.9712 23.4848 45.0442 24.2645C45.1112 24.9946 45.3366 25.7022 45.7055 26.3395C46.0743 26.9769 46.5779 27.5292 47.1823 27.9592C47.6366 28.2854 48.1285 28.5578 48.6479 28.7707C51.3942 29.8942 53.167 32.602 53.167 35.6687V45.6661H38.8561V36.258C38.8561 36.0147 38.7577 35.7813 38.5825 35.6092C38.4073 35.4371 38.1697 35.3405 37.922 35.3405C37.6742 35.3405 37.4366 35.4371 37.2615 35.6092C37.0863 35.7813 36.9879 36.0147 36.9879 36.258V45.6661H31.0157V35.6076C31.0157 32.6122 32.8196 29.8698 35.5078 28.783C35.7782 28.6729 36.0416 28.5469 36.2966 28.4057C36.9992 28.0162 37.6025 27.475 38.061 26.8229C38.5195 26.1709 38.8212 25.425 38.9433 24.6417C39.0776 23.8012 39.0157 22.9417 38.7621 22.1282C38.5086 21.3147 38.0701 20.5684 37.4798 19.9458C36.8221 19.239 36.3448 18.3888 36.0872 17.4652C35.8297 16.5417 35.7993 15.5712 35.9986 14.6338C36.1979 13.6965 36.6211 12.819 37.2334 12.0739C37.8457 11.3287 38.6295 10.7372 39.5202 10.348C40.411 9.9588 41.3831 9.78314 42.3565 9.83546C43.33 9.88779 44.2768 10.1666 45.119 10.6489C45.9611 11.1313 46.6746 11.8033 47.2004 12.6097C47.7263 13.416 48.0495 14.3335 48.1434 15.2867ZM53.4929 30.4733C52.4982 28.958 51.0594 27.7743 49.3661 27.0783C48.9825 26.9208 48.6194 26.7189 48.2846 26.4768C47.8939 26.1986 47.5686 25.8413 47.3304 25.4291C47.0923 25.0168 46.9469 24.5592 46.9041 24.0871C46.8566 23.5653 46.9217 23.0395 47.0952 22.5441C47.2687 22.0487 47.5467 21.5948 47.9109 21.2121C48.6759 20.397 49.2577 19.433 49.6185 18.3826C49.9794 17.3323 50.1112 16.2191 50.0055 15.1154C49.93 14.3266 49.7325 13.5538 49.4198 12.8235H60.9771V16.0834C60.978 16.8822 61.3015 17.6481 61.8766 18.213C62.4517 18.7779 63.2315 19.0957 64.0448 19.0966H71.1669V24.1099C71.1669 24.2866 71.2189 24.4595 71.3165 24.6079C71.4142 24.7563 71.5534 24.8739 71.7174 24.9464C71.8814 25.019 72.0632 25.0435 72.2411 25.017C72.4189 24.9905 72.5852 24.9141 72.7199 24.7971L79.2809 19.2379H80.9728V43.7433C80.9722 44.2534 80.7654 44.7423 80.398 45.1029C80.0306 45.4634 79.5326 45.6659 79.0133 45.6661H55.0352V35.6687C55.0422 33.827 54.5065 32.0227 53.4929 30.4733H53.4929ZM87.1953 3.01333V16.2247C87.1949 16.537 87.0684 16.8365 86.8436 17.0574C86.6187 17.2783 86.3138 17.4025 85.9958 17.4029H78.927C78.6989 17.4028 78.4788 17.4848 78.3081 17.6333L73.0351 22.0734V18.1791C73.0351 17.9357 72.9367 17.7023 72.7615 17.5302C72.5864 17.3582 72.3488 17.2615 72.101 17.2615H64.0448C63.7268 17.2612 63.4219 17.1369 63.197 16.916C62.9721 16.6952 62.8456 16.3957 62.8453 16.0833V3.01316C62.8456 2.70078 62.9721 2.40129 63.197 2.18041C63.4219 1.95952 63.7268 1.83528 64.0448 1.83496H85.9958C86.3138 1.83528 86.6187 1.95955 86.8436 2.18047C87.0685 2.40139 87.195 2.70092 87.1953 3.01333ZM20.9831 2.03916H61.1447C61.0343 2.35252 60.9776 2.68173 60.977 3.01333V10.7845H48.1444C47.3932 9.90756 46.4558 9.20253 45.3979 8.71886C44.34 8.23519 43.1873 7.98457 42.0205 7.98457C40.8536 7.98457 39.7009 8.23519 38.643 8.71886C37.5852 9.20253 36.6478 9.90756 35.8965 10.7845H19.0235V3.96198C19.0246 3.45198 19.2314 2.96319 19.5987 2.60276C19.9661 2.24232 20.4639 2.03965 20.9831 2.03916ZM6.54564 19.222H16.9477V26.0405H2.07636V23.612C2.07746 22.448 2.54868 21.332 3.3866 20.509C4.22451 19.6859 5.36065 19.2231 6.54564 19.222ZM58.286 97.9608H42.111L44.245 82.6417H56.152L58.286 97.9608ZM93.4549 80.6026H6.54564C5.36076 80.6012 4.22483 80.1382 3.38699 79.3152C2.54915 78.4923 2.07782 77.3765 2.07636 76.2126V68.8219H83.0038C83.2791 68.8219 83.5431 68.7145 83.7377 68.5233C83.9324 68.3321 84.0417 68.0728 84.0417 67.8024C84.0417 67.532 83.9324 67.2727 83.7377 67.0815C83.5431 66.8903 83.2791 66.7829 83.0038 66.7829H2.07638V28.0795H16.9477V43.7433C16.9493 44.7939 17.375 45.801 18.1315 46.5437C18.8881 47.2864 19.9136 47.7041 20.9831 47.7051H79.0133C80.0829 47.7041 81.1084 47.2864 81.8649 46.5437C82.6214 45.801 83.0471 44.7939 83.0487 43.7433V28.0795H97.9242V66.7829H87.6508C87.3756 66.7829 87.1116 66.8903 86.9169 67.0815C86.7223 67.2727 86.6129 67.532 86.6129 67.8024C86.6129 68.0728 86.7223 68.3321 86.9169 68.5233C87.1116 68.7145 87.3756 68.8219 87.6508 68.8219H97.9242V76.2126C97.9227 77.3765 97.4514 78.4923 96.6135 79.3153C95.7757 80.1382 94.6398 80.6012 93.4549 80.6027V80.6026Z" fill="white"/>
<path d="M49.9996 71.312C49.3129 71.312 48.6417 71.512 48.0708 71.8867C47.4999 72.2614 47.055 72.794 46.7922 73.417C46.5295 74.0401 46.4607 74.7258 46.5947 75.3873C46.7286 76.0487 47.0592 76.6563 47.5448 77.1332C48.0303 77.6101 48.6488 77.9349 49.3223 78.0665C49.9957 78.1981 50.6937 78.1305 51.3281 77.8724C51.9624 77.6143 52.5046 77.1773 52.886 76.6165C53.2675 76.0557 53.4711 75.3964 53.4711 74.722C53.4701 73.8179 53.104 72.9512 52.4532 72.3119C51.8024 71.6726 50.9199 71.313 49.9996 71.312ZM49.9996 76.093C49.7235 76.093 49.4536 76.0126 49.2241 75.8619C48.9946 75.7113 48.8157 75.4972 48.71 75.2467C48.6044 74.9961 48.5768 74.7205 48.6306 74.4545C48.6845 74.1886 48.8174 73.9443 49.0126 73.7526C49.2078 73.5608 49.4565 73.4303 49.7272 73.3774C49.998 73.3245 50.2786 73.3516 50.5336 73.4554C50.7887 73.5591 51.0067 73.7349 51.16 73.9603C51.3134 74.1858 51.3953 74.4508 51.3953 74.722C51.3948 75.0855 51.2476 75.4339 50.986 75.6909C50.7243 75.9479 50.3696 76.0925 49.9996 76.093Z" fill="white"/>
<path d="M55.0633 55.0354L50.7434 52.3787C50.4555 52.2016 50.1246 52.1034 49.7851 52.0944C49.4455 52.0854 49.1097 52.1659 48.8125 52.3276C48.5154 52.4892 48.2677 52.726 48.0953 53.0134C47.9228 53.3009 47.8319 53.6285 47.8319 53.9621V59.8267C47.8312 60.1745 47.9294 60.5157 48.1156 60.8116C48.3017 61.1075 48.5684 61.3465 48.8854 61.5014C49.2025 61.6564 49.5573 61.7212 49.9099 61.6886C50.2625 61.656 50.5988 61.5273 50.8808 61.3169L55.201 58.1093C55.4468 57.9268 55.6438 57.6883 55.775 57.4143C55.9061 57.1404 55.9676 56.8393 55.9541 56.5369C55.9405 56.2345 55.8524 55.9398 55.6972 55.6783C55.542 55.4167 55.3245 55.1961 55.0633 55.0355V55.0354ZM49.9078 59.4836V54.2705L53.7479 56.6321L49.9078 59.4836Z" fill="white"/>
<path d="M74.2354 55.0354L69.9155 52.3787C69.6276 52.2016 69.2967 52.1034 68.9572 52.0944C68.6176 52.0854 68.2818 52.1659 67.9847 52.3276C67.6875 52.4892 67.4398 52.726 67.2674 53.0134C67.0949 53.3009 67.004 53.6285 67.004 53.9621V59.8267C67.0033 60.1745 67.1015 60.5157 67.2877 60.8116C67.4738 61.1075 67.7405 61.3465 68.0575 61.5014C68.3746 61.6564 68.7294 61.7212 69.082 61.6886C69.4346 61.656 69.7709 61.5273 70.0529 61.3169L74.3731 58.1093C74.6189 57.9268 74.8159 57.6883 74.9471 57.4143C75.0783 57.1404 75.1397 56.8393 75.1262 56.5369C75.1127 56.2345 75.0245 55.9398 74.8693 55.6783C74.7142 55.4167 74.4966 55.1961 74.2354 55.0355V55.0354ZM69.0799 59.4836V54.2705L72.92 56.6321L69.0799 59.4836Z" fill="white"/>
<path d="M64.2515 52.2383C63.9763 52.2383 63.7123 52.3457 63.5176 52.5369C63.323 52.7281 63.2136 52.9874 63.2136 53.2578V60.5308C63.2136 60.8012 63.323 61.0605 63.5176 61.2517C63.7123 61.4429 63.9763 61.5503 64.2515 61.5503C64.5268 61.5503 64.7908 61.4429 64.9855 61.2517C65.1801 61.0605 65.2895 60.8012 65.2895 60.5308V53.2578C65.2895 52.9874 65.1801 52.7281 64.9855 52.5369C64.7908 52.3457 64.5268 52.2383 64.2515 52.2383Z" fill="white"/>
<path d="M31.9388 52.2895C31.6223 52.1334 31.2675 52.0678 30.9149 52.1C30.5623 52.1322 30.226 52.261 29.9442 52.4717L25.6244 55.6793C25.3785 55.8619 25.1815 56.1004 25.0503 56.3743C24.9191 56.6482 24.8576 56.9494 24.8711 57.2518C24.8846 57.5543 24.9728 57.849 25.1279 58.1105C25.2831 58.3721 25.5006 58.5927 25.7618 58.7534L30.0823 61.4103C30.3702 61.5873 30.7011 61.6854 31.0406 61.6943C31.3801 61.7032 31.7158 61.6227 32.0129 61.461C32.31 61.2994 32.5576 61.0626 32.73 60.7752C32.9024 60.4878 32.9934 60.1603 32.9934 59.8267V53.9621C32.9946 53.6143 32.8965 53.2731 32.71 52.9774C32.5236 52.6817 32.2564 52.4433 31.9388 52.2895ZM30.9175 59.5182L27.0774 57.1566L30.9175 54.305V59.5182Z" fill="white"/>
<path d="M35.7458 52.2383C35.4705 52.2383 35.2065 52.3457 35.0119 52.5369C34.8172 52.7281 34.7079 52.9874 34.7079 53.2578V60.5308C34.7079 60.8012 34.8172 61.0605 35.0119 61.2517C35.2065 61.4429 35.4705 61.5503 35.7458 61.5503C36.0211 61.5503 36.2851 61.4429 36.4797 61.2517C36.6744 61.0605 36.7837 60.8012 36.7837 60.5308V53.2578C36.7837 52.9874 36.6744 52.7281 36.4797 52.5369C36.2851 52.3457 36.0211 52.2383 35.7458 52.2383Z" fill="white"/>
<path d="M24.7934 8.6852C25.3011 8.6852 25.7973 8.53733 26.2195 8.26028C26.6416 7.98324 26.9706 7.58947 27.1648 7.12876C27.3591 6.66805 27.41 6.1611 27.3109 5.67201C27.2119 5.18293 26.9674 4.73367 26.6084 4.38106C26.2495 4.02845 25.7921 3.78832 25.2942 3.69103C24.7963 3.59374 24.2802 3.64367 23.8111 3.8345C23.3421 4.02533 22.9412 4.34849 22.6592 4.76311C22.3771 5.17773 22.2266 5.6652 22.2266 6.16387C22.2273 6.83234 22.498 7.47322 22.9792 7.94591C23.4604 8.41859 24.1129 8.68447 24.7934 8.6852ZM24.7934 5.27392C24.9726 5.27392 25.1478 5.32612 25.2968 5.42393C25.4459 5.52173 25.562 5.66075 25.6306 5.82339C25.6992 5.98604 25.7171 6.16501 25.6822 6.33767C25.6472 6.51033 25.5609 6.66893 25.4342 6.79341C25.3074 6.91789 25.146 7.00266 24.9702 7.03701C24.7944 7.07135 24.6122 7.05372 24.4466 6.98635C24.281 6.91897 24.1395 6.80488 24.0399 6.65851C23.9404 6.51213 23.8872 6.34004 23.8872 6.16399C23.8875 5.92798 23.983 5.70171 24.1529 5.53481C24.3228 5.36792 24.5531 5.27405 24.7934 5.2738V5.27392Z" fill="white"/>
<path d="M31.9126 8.6852C32.4203 8.68524 32.9166 8.5374 33.3387 8.26038C33.7608 7.98336 34.0899 7.5896 34.2842 7.12889C34.4785 6.66819 34.5294 6.16123 34.4303 5.67213C34.3313 5.18303 34.0869 4.73376 33.7279 4.38113C33.3689 4.02849 32.9116 3.78834 32.4136 3.69104C31.9157 3.59374 31.3996 3.64366 30.9305 3.83448C30.4615 4.02531 30.0606 4.34847 29.7786 4.7631C29.4965 5.17773 29.3459 5.66521 29.3459 6.16389C29.3467 6.83232 29.6174 7.47316 30.0985 7.94583C30.5797 8.4185 31.2321 8.6844 31.9126 8.6852ZM31.9126 5.27392C32.0918 5.27388 32.267 5.32605 32.4161 5.42383C32.5651 5.52161 32.6813 5.66061 32.7499 5.82325C32.8185 5.98589 32.8365 6.16487 32.8016 6.33754C32.7666 6.51022 32.6803 6.66884 32.5536 6.79334C32.4269 6.91784 32.2654 7.00263 32.0896 7.03699C31.9138 7.07135 31.7316 7.05373 31.566 6.98636C31.4005 6.919 31.2589 6.80491 31.1593 6.65853C31.0598 6.51215 31.0066 6.34005 31.0066 6.16399C31.0069 5.92802 31.1024 5.70177 31.2722 5.53489C31.442 5.368 31.6723 5.2741 31.9126 5.2738V5.27392Z" fill="white"/>
<path d="M43.606 16.5175C43.1941 16.8783 42.6629 17.0797 42.111 17.0843C41.5592 17.0889 41.0245 16.8964 40.6064 16.5426C40.4212 16.381 40.1782 16.2983 39.9309 16.3126C39.6836 16.327 39.4522 16.4373 39.2877 16.6192C39.1231 16.8011 39.0389 17.0398 39.0535 17.2828C39.0681 17.5257 39.1804 17.753 39.3656 17.9146C40.1339 18.5599 41.1089 18.9189 42.1198 18.9285C43.097 18.917 44.0391 18.5686 44.7813 17.9441C44.8767 17.8682 44.9559 17.7747 45.0145 17.6689C45.073 17.563 45.1098 17.4468 45.1227 17.327C45.1355 17.2071 45.1242 17.086 45.0894 16.9704C45.0546 16.8549 44.997 16.7472 44.9198 16.6535C44.8426 16.5599 44.7474 16.4821 44.6396 16.4245C44.5318 16.367 44.4136 16.3309 44.2916 16.3183C44.1696 16.3056 44.0462 16.3167 43.9286 16.3509C43.811 16.3851 43.7013 16.4417 43.606 16.5175H43.606Z" fill="white"/>
<path d="M67.2747 8.46476H82.6627C82.9104 8.46476 83.148 8.36809 83.3232 8.19601C83.4984 8.02393 83.5968 7.79055 83.5968 7.5472C83.5968 7.30385 83.4984 7.07046 83.3232 6.89839C83.148 6.72631 82.9104 6.62964 82.6627 6.62964H67.2747C67.027 6.62964 66.7894 6.72631 66.6142 6.89839C66.439 7.07046 66.3406 7.30385 66.3406 7.5472C66.3406 7.79055 66.439 8.02393 66.6142 8.19601C66.7894 8.36809 67.027 8.46476 67.2747 8.46476Z" fill="white"/>
<path d="M67.2747 13.3449H75.1449C75.3926 13.3449 75.6302 13.2482 75.8054 13.0761C75.9806 12.9041 76.079 12.6707 76.079 12.4273C76.079 12.184 75.9806 11.9506 75.8054 11.7785C75.6302 11.6064 75.3926 11.5098 75.1449 11.5098H67.2747C67.027 11.5098 66.7894 11.6064 66.6142 11.7785C66.439 11.9506 66.3406 12.184 66.3406 12.4273C66.3406 12.6707 66.439 12.9041 66.6142 13.0761C66.7894 13.2482 67.027 13.3449 67.2747 13.3449Z" fill="white"/>
<path d="M82.6627 11.5098H79.1921C78.9444 11.5098 78.7068 11.6064 78.5316 11.7785C78.3564 11.9506 78.258 12.184 78.258 12.4273C78.258 12.6707 78.3564 12.9041 78.5316 13.0761C78.7068 13.2482 78.9444 13.3449 79.1921 13.3449H82.6627C82.9104 13.3449 83.148 13.2482 83.3232 13.0761C83.4984 12.9041 83.5968 12.6707 83.5968 12.4273C83.5968 12.184 83.4984 11.9506 83.3232 11.7785C83.148 11.6064 82.9104 11.5098 82.6627 11.5098Z" fill="white"/>
</svg>
