<svg width="108" height="90" viewBox="0 0 108 90" fill="none" xmlns="http://www.w3.org/2000/svg">
<path d="M102.769 53.3875C104.187 50.6937 105 47.6312 105 44.375C105 36.0988 99.8013 29.0537 92.4987 26.2775C92.4987 26.2687 92.5 26.26 92.5 26.25C92.5 11.7525 80.7475 0 66.25 0C54.02 0 43.7738 8.37625 40.8587 19.6963C39.0138 19.09 37.0475 18.75 35 18.75C25.385 18.75 17.4713 25.9912 16.3875 35.315C9.8825 36.6912 5 42.4613 5 49.375C5 57.3138 11.4363 63.75 19.375 63.75C19.5962 63.75 19.815 63.735 20.0325 63.7225C20.0275 63.9412 20 64.155 20 64.375C20 78.5275 31.4725 90 45.625 90C53.6712 90 60.8437 86.285 65.5425 80.4825C68.265 83.2637 72.05 85 76.25 85C82.0625 85 87.0925 81.6875 89.5825 76.8525C90.8975 77.2713 92.2962 77.5 93.75 77.5C101.344 77.5 107.5 71.3438 107.5 63.75C107.5 59.6112 105.662 55.9087 102.769 53.3875Z" fill="#C7EDE6"/>
<path d="M77.6562 41.875C77.6562 41.875 73.1062 41.875 70 41.875C66.8938 41.875 64.375 39.3563 64.375 36.25C64.375 33.3337 66.6025 30.9637 69.4438 30.6812C69.4163 30.455 69.375 30.2338 69.375 30C69.375 26.8938 71.8938 24.375 75 24.375C76.7975 24.375 78.3788 25.2325 79.4088 26.545C79.5838 23.25 82.2862 20.625 85.625 20.625C89.0763 20.625 91.875 23.4238 91.875 26.875C91.875 27.4325 91.7788 27.9625 91.6413 28.4775C92.4438 27.5063 93.6413 26.875 95 26.875C97.2262 26.875 99.0425 28.5438 99.3188 30.6938C99.545 30.6663 99.7663 30.625 100 30.625C103.106 30.625 105.625 33.1438 105.625 36.25C105.625 39.3563 103.106 41.875 100 41.875C96.8937 41.875 88.125 41.875 88.125 41.875H81.4062V42.5H77.6562V41.875Z" fill="#FDFCEF"/>
<path d="M85.625 20C89.4163 20 92.5 23.0838 92.5 26.875C92.5 26.895 92.5 26.9138 92.5 26.9338C93.2525 26.49 94.1125 26.25 95 26.25C97.2887 26.25 99.2638 27.8263 99.8225 30.0063C99.8813 30.0025 99.94 30 100 30C103.446 30 106.25 32.8038 106.25 36.25C106.25 39.6963 103.446 42.5 100 42.5H81.4062C81.0613 42.5 80.7812 42.22 80.7812 41.875C80.7812 41.53 81.0613 41.25 81.4062 41.25H100C102.757 41.25 105 39.0075 105 36.25C105 33.4925 102.757 31.25 100 31.25C99.8537 31.25 99.7125 31.2713 99.5712 31.29L99.395 31.3137C99.3687 31.3175 99.3438 31.3188 99.3175 31.3188C99.01 31.3188 98.74 31.0875 98.6987 30.7725C98.46 28.9062 96.87 27.5 95 27.5C93.8937 27.5 92.8462 28.0012 92.1237 28.875C92.0012 29.0225 91.8225 29.1025 91.6413 29.1025C91.5438 29.1025 91.4462 29.08 91.3562 29.0325C91.095 28.8988 90.9638 28.6 91.0388 28.3162C91.1825 27.7725 91.25 27.315 91.25 26.875C91.25 23.7738 88.7262 21.25 85.625 21.25C82.6488 21.25 80.1913 23.59 80.0325 26.5788C80.0188 26.8388 79.845 27.0625 79.5963 27.1413C79.5338 27.1613 79.47 27.1712 79.4063 27.1712C79.2188 27.1712 79.0363 27.085 78.9163 26.9312C77.9525 25.7037 76.5262 25 75 25C72.2425 25 70 27.2425 70 30C70 30.1462 70.0213 30.2875 70.04 30.4287L70.0637 30.605C70.0837 30.7725 70.0362 30.94 69.9312 31.0712C69.8262 31.2025 69.6725 31.2863 69.5062 31.3025C66.9362 31.5588 65 33.6862 65 36.25C65 39.0075 67.2425 41.25 70 41.25H77.6562C78.0013 41.25 78.2812 41.53 78.2812 41.875C78.2812 42.22 78.0013 42.5 77.6562 42.5H70C66.5538 42.5 63.75 39.6963 63.75 36.25C63.75 33.2537 65.8612 30.7338 68.7537 30.1538C68.7512 30.1025 68.75 30.0513 68.75 30C68.75 26.5538 71.5538 23.75 75 23.75C76.47 23.75 77.8662 24.27 78.9787 25.205C79.7262 22.2 82.4312 20 85.625 20Z" fill="#472B29"/>
<path d="M87.5002 28.75C89.254 28.75 90.7615 29.9987 91.1415 31.6762C91.6002 31.3987 92.124 31.25 92.6565 31.25C94.159 31.25 95.404 32.3713 95.5977 33.835C95.8515 33.7775 96.0927 33.75 96.329 33.75C98.2402 33.75 99.8427 35.25 99.9765 37.165C99.9877 37.3375 99.8577 37.4875 99.6865 37.5C99.679 37.5 99.6715 37.5 99.664 37.5C99.5015 37.5 99.364 37.3738 99.3527 37.21C99.2415 35.6213 97.914 34.375 96.329 34.375C96.0427 34.375 95.7415 34.4275 95.4065 34.5337C95.379 34.5425 95.3502 34.5463 95.3227 34.5463C95.254 34.5463 95.1852 34.5213 95.1277 34.4788C95.0477 34.4213 95.0002 34.3187 95.0002 34.2188C95.0002 32.9262 93.949 31.875 92.6565 31.875C92.0977 31.875 91.5502 32.085 91.1177 32.4662C91.059 32.5175 90.9852 32.545 90.9115 32.545C90.8715 32.545 90.8327 32.5375 90.7952 32.5212C90.6852 32.4775 90.6102 32.375 90.6015 32.2563C90.4715 30.64 89.1102 29.375 87.5002 29.375C87.2402 29.375 86.969 29.4175 86.6477 29.5087C86.619 29.5175 86.589 29.5213 86.5602 29.5213C86.424 29.5213 86.3015 29.43 86.2615 29.2938C86.214 29.1275 86.3102 28.955 86.4765 28.9075C86.854 28.8 87.1802 28.75 87.5002 28.75ZM70.1465 30.625C71.804 30.625 73.2815 31.7462 73.739 33.3525C73.7865 33.5187 73.6902 33.6913 73.524 33.7388C73.494 33.7463 73.4652 33.75 73.4377 33.75C73.3015 33.75 73.1765 33.66 73.1377 33.5225C72.7565 32.185 71.5265 31.25 70.1465 31.25C70.0002 31.25 69.859 31.2675 69.719 31.2862C69.704 31.2887 69.6902 31.29 69.6752 31.29C69.524 31.29 69.389 31.175 69.3677 31.0187C69.344 30.8475 69.464 30.69 69.6352 30.6675C69.8027 30.645 69.9727 30.625 70.1465 30.625Z" fill="#472B29"/>
<path d="M13.0062 46.25H0.625C0.28 46.25 0 45.97 0 45.625C0 45.28 0.28 45 0.625 45H13.0062C13.3512 45 13.6312 45.28 13.6312 45.625C13.6312 45.97 13.3525 46.25 13.0062 46.25ZM16.875 46.25H15.625C15.28 46.25 15 45.97 15 45.625C15 45.28 15.28 45 15.625 45H16.875C17.22 45 17.5 45.28 17.5 45.625C17.5 45.97 17.2213 46.25 16.875 46.25ZM23.1137 48.75H11.875C11.53 48.75 11.25 48.47 11.25 48.125C11.25 47.78 11.53 47.5 11.875 47.5H23.1137C23.4587 47.5 23.7387 47.78 23.7387 48.125C23.7387 48.47 23.4587 48.75 23.1137 48.75ZM9.375 48.75H8.125C7.78 48.75 7.5 48.47 7.5 48.125C7.5 47.78 7.78 47.5 8.125 47.5H9.375C9.72 47.5 10 47.78 10 48.125C10 48.47 9.72125 48.75 9.375 48.75ZM5.625 48.75H3.125C2.78 48.75 2.5 48.47 2.5 48.125C2.5 47.78 2.78 47.5 3.125 47.5H5.625C5.97 47.5 6.25 47.78 6.25 48.125C6.25 48.47 5.97125 48.75 5.625 48.75ZM13.125 51.25H10.625C10.28 51.25 10 50.97 10 50.625C10 50.28 10.28 50 10.625 50H13.125C13.47 50 13.75 50.28 13.75 50.625C13.75 50.97 13.47 51.25 13.125 51.25ZM16.875 40C16.6537 40 15.8462 40 15.625 40C15.28 40 15 40.28 15 40.625C15 40.97 15.28 41.25 15.625 41.25C15.8462 41.25 16.6537 41.25 16.875 41.25C17.22 41.25 17.5 40.97 17.5 40.625C17.5 40.28 17.22 40 16.875 40ZM16.875 42.5C16.6537 42.5 10.8462 42.5 10.625 42.5C10.28 42.5 10 42.78 10 43.125C10 43.47 10.28 43.75 10.625 43.75C10.8462 43.75 16.6537 43.75 16.875 43.75C17.22 43.75 17.5 43.47 17.5 43.125C17.5 42.78 17.22 42.5 16.875 42.5ZM23.125 45C22.9037 45 19.5963 45 19.375 45C19.03 45 18.75 45.28 18.75 45.625C18.75 45.97 19.03 46.25 19.375 46.25C19.5963 46.25 22.9037 46.25 23.125 46.25C23.47 46.25 23.75 45.97 23.75 45.625C23.75 45.28 23.47 45 23.125 45ZM81.875 10H69.375C69.03 10 68.75 9.72 68.75 9.375C68.75 9.03 69.03 8.75 69.375 8.75H81.875C82.22 8.75 82.5 9.03 82.5 9.375C82.5 9.72 82.22 10 81.875 10ZM86.875 10H84.375C84.03 10 83.75 9.72 83.75 9.375C83.75 9.03 84.03 8.75 84.375 8.75H86.875C87.22 8.75 87.5 9.03 87.5 9.375C87.5 9.72 87.22 10 86.875 10ZM93.125 12.5H80.625C80.28 12.5 80 12.22 80 11.875C80 11.53 80.28 11.25 80.625 11.25H93.125C93.47 11.25 93.75 11.53 93.75 11.875C93.75 12.22 93.4713 12.5 93.125 12.5ZM78.125 12.5H76.875C76.53 12.5 76.25 12.22 76.25 11.875C76.25 11.53 76.53 11.25 76.875 11.25H78.125C78.47 11.25 78.75 11.53 78.75 11.875C78.75 12.22 78.47 12.5 78.125 12.5ZM74.2188 12.5H71.875C71.53 12.5 71.25 12.22 71.25 11.875C71.25 11.53 71.53 11.25 71.875 11.25H74.2188C74.5638 11.25 74.8438 11.53 74.8438 11.875C74.8438 12.22 74.5638 12.5 74.2188 12.5ZM85.625 7.5H79.375C79.03 7.5 78.75 7.22 78.75 6.875C78.75 6.53 79.03 6.25 79.375 6.25H85.625C85.97 6.25 86.25 6.53 86.25 6.875C86.25 7.22 85.9713 7.5 85.625 7.5ZM81.875 15H79.375C79.03 15 78.75 14.72 78.75 14.375C78.75 14.03 79.03 13.75 79.375 13.75H81.875C82.22 13.75 82.5 14.03 82.5 14.375C82.5 14.72 82.22 15 81.875 15Z" fill="white"/>
<path d="M41.4412 75.375C38.3712 75.375 35.875 72.9162 35.875 69.8937V25.1062C35.875 22.0837 38.3725 19.625 41.4412 19.625H64.7038L79.125 33.8537V69.8937C79.125 72.9162 76.6275 75.375 73.5588 75.375H41.4412Z" fill="#FEFDEF"/>
<path d="M64.3463 20.5L69.54 25.6238L78.25 34.2188V69.8938C78.25 72.4338 76.145 74.4987 73.5588 74.4987H41.4412C38.8537 74.4987 36.75 72.4325 36.75 69.8938V25.105C36.75 22.565 38.855 20.5 41.4412 20.5H42.3763H44.4663H51.1825H64.3463ZM65.0637 18.75H51.1837H44.4675H42.3775H41.4425C37.8987 18.75 35 21.61 35 25.105V69.8938C35 73.39 37.8987 76.25 41.4412 76.25H73.5575C77.1012 76.25 79.9987 73.39 79.9987 69.895V33.4875H80C74.1912 27.7563 70.8725 24.4812 65.0637 18.75Z" fill="#472B29"/>
<path d="M64.375 20.1562V27.1812C64.375 30.4512 66.8637 33.125 69.905 33.125H77.6562" fill="url(#paint0_linear)"/>
<path d="M77.6562 33.75H69.905C66.5112 33.75 63.75 30.8037 63.75 27.18V20.1562H65V27.18C65 30.1137 67.2 32.5 69.905 32.5H77.6562V33.75ZM72.625 72.5H42.3962C40.385 72.5 38.75 70.8938 38.75 68.92V26.685C38.75 24.7225 40.3763 23.125 42.375 23.125H44.375C44.72 23.125 45 23.405 45 23.75C45 24.095 44.72 24.375 44.375 24.375H42.375C41.065 24.375 40 25.4112 40 26.685V68.92C40 70.205 41.075 71.25 42.3962 71.25H72.625C73.935 71.25 75 70.2137 75 68.94V51.6113C75 51.2663 75.28 50.9863 75.625 50.9863C75.97 50.9863 76.25 51.2663 76.25 51.6113V68.94C76.25 70.9038 74.6237 72.5 72.625 72.5ZM75.625 48.75C75.28 48.75 75 48.47 75 48.125V43.125C75 42.78 75.28 42.5 75.625 42.5C75.97 42.5 76.25 42.78 76.25 43.125V48.125C76.25 48.47 75.97 48.75 75.625 48.75ZM75.625 41.25C75.28 41.25 75 40.97 75 40.625V36.875C75 36.53 75.28 36.25 75.625 36.25C75.97 36.25 76.25 36.53 76.25 36.875V40.625C76.25 40.97 75.97 41.25 75.625 41.25Z" fill="#472B29"/>
<path d="M56.875 39.6875H44.375C44.2025 39.6875 44.0625 39.5475 44.0625 39.375C44.0625 39.2025 44.2025 39.0625 44.375 39.0625H56.875C57.0475 39.0625 57.1875 39.2025 57.1875 39.375C57.1875 39.5475 57.0475 39.6875 56.875 39.6875ZM56.875 44.6875H44.375C44.2025 44.6875 44.0625 44.5475 44.0625 44.375C44.0625 44.2025 44.2025 44.0625 44.375 44.0625H56.875C57.0475 44.0625 57.1875 44.2025 57.1875 44.375C57.1875 44.5475 57.0475 44.6875 56.875 44.6875ZM56.875 49.6875H44.375C44.2025 49.6875 44.0625 49.5475 44.0625 49.375C44.0625 49.2025 44.2025 49.0625 44.375 49.0625H56.875C57.0475 49.0625 57.1875 49.2025 57.1875 49.375C57.1875 49.5475 57.0475 49.6875 56.875 49.6875ZM53.125 54.6875H44.375C44.2025 54.6875 44.0625 54.5475 44.0625 54.375C44.0625 54.2025 44.2025 54.0625 44.375 54.0625H53.125C53.2975 54.0625 53.4375 54.2025 53.4375 54.375C53.4375 54.5475 53.2975 54.6875 53.125 54.6875ZM56.875 59.6875H44.375C44.2025 59.6875 44.0625 59.5475 44.0625 59.375C44.0625 59.2025 44.2025 59.0625 44.375 59.0625H56.875C57.0475 59.0625 57.1875 59.2025 57.1875 59.375C57.1875 59.5475 57.0475 59.6875 56.875 59.6875ZM58.125 64.6875H44.375C44.2025 64.6875 44.0625 64.5475 44.0625 64.375C44.0625 64.2025 44.2025 64.0625 44.375 64.0625H58.125C58.2975 64.0625 58.4375 64.2025 58.4375 64.375C58.4375 64.5475 58.2975 64.6875 58.125 64.6875ZM70.625 64.6875H60.625C60.4525 64.6875 60.3125 64.5475 60.3125 64.375C60.3125 64.2025 60.4525 64.0625 60.625 64.0625H70.625C70.7975 64.0625 70.9375 64.2025 70.9375 64.375C70.9375 64.5475 70.7975 64.6875 70.625 64.6875ZM70.625 54.6875H55.625C55.4525 54.6875 55.3125 54.5475 55.3125 54.375C55.3125 54.2025 55.4525 54.0625 55.625 54.0625H70.625C70.7975 54.0625 70.9375 54.2025 70.9375 54.375C70.9375 54.5475 70.7975 54.6875 70.625 54.6875ZM70.625 59.6875H65.625C65.4525 59.6875 65.3125 59.5475 65.3125 59.375C65.3125 59.2025 65.4525 59.0625 65.625 59.0625H70.625C70.7975 59.0625 70.9375 59.2025 70.9375 59.375C70.9375 59.5475 70.7975 59.6875 70.625 59.6875ZM63.125 59.6875H58.125C57.9525 59.6875 57.8125 59.5475 57.8125 59.375C57.8125 59.2025 57.9525 59.0625 58.125 59.0625H63.125C63.2975 59.0625 63.4375 59.2025 63.4375 59.375C63.4375 59.5475 63.2975 59.6875 63.125 59.6875Z" fill="#472B29"/>
<path d="M59.375 51.25V39.375H70.625V50.625H63.75" fill="url(#paint1_linear)"/>
<path d="M59.6875 51.25H59.0625V39.0625H70.9375V50.9375H63.75V50.3125H70.3125V39.6875H59.6875V51.25Z" fill="#472B29"/>
<path d="M40.625 80.625C40.625 80.625 42.5837 80.625 45 80.625C47.4163 80.625 49.375 78.6663 49.375 76.25C49.375 74.0238 47.7062 72.2075 45.5562 71.9312C45.5912 71.7075 45.625 71.4837 45.625 71.25C45.625 68.8338 43.6663 66.875 41.25 66.875C39.96 66.875 38.8125 67.4438 38.0125 68.3313C37.5325 66.0713 35.5287 64.375 33.125 64.375C30.3637 64.375 28.125 66.6137 28.125 69.375C28.125 69.6137 28.1625 69.8425 28.195 70.0725C27.66 69.6425 26.99 69.375 26.25 69.375C24.715 69.375 23.4437 70.4838 23.1813 71.9438C22.9575 71.9088 22.7337 71.875 22.5 71.875C20.0838 71.875 18.125 73.8337 18.125 76.25C18.125 78.6663 20.0838 80.625 22.5 80.625C24.9162 80.625 31.875 80.625 31.875 80.625V81.25H40.625V80.625Z" fill="#FDFCEF"/>
<path d="M42.8125 75C42.64 75 42.5 74.86 42.5 74.6875C42.5 73.1588 43.7437 71.915 45.2725 71.915C45.315 71.9263 46.1938 71.9138 46.8275 72.085C46.9938 72.13 47.0925 72.3013 47.0475 72.4675C47.0025 72.635 46.8313 72.7338 46.665 72.6875C46.11 72.5375 45.29 72.5375 45.2738 72.54C44.0888 72.54 43.125 73.5038 43.125 74.6875C43.125 74.86 42.985 75 42.8125 75Z" fill="#472B29"/>
<path d="M34.375 80C34.2092 80 34.0503 80.0658 33.9331 80.1831C33.8158 80.3003 33.75 80.4592 33.75 80.625C33.75 80.7908 33.8158 80.9497 33.9331 81.0669C34.0503 81.1842 34.2092 81.25 34.375 81.25C34.5408 81.25 34.6997 81.1842 34.8169 81.0669C34.9342 80.9497 35 80.7908 35 80.625C35 80.4592 34.9342 80.3003 34.8169 80.1831C34.6997 80.0658 34.5408 80 34.375 80Z" fill="#472B29"/>
<path d="M45 81.25H40.625C40.28 81.25 40 80.97 40 80.625C40 80.28 40.28 80 40.625 80H45C47.0675 80 48.75 78.3175 48.75 76.25C48.75 74.38 47.3438 72.79 45.4775 72.5513C45.31 72.5288 45.1588 72.4413 45.0575 72.3063C44.9563 72.1713 44.9137 72.0013 44.94 71.835C44.9688 71.6425 45 71.45 45 71.25C45 69.1825 43.3175 67.5 41.25 67.5C40.1875 67.5 39.2025 67.9437 38.4762 68.75C38.32 68.9237 38.075 68.9975 37.8512 68.935C37.6237 68.8738 37.45 68.6912 37.4013 68.4612C36.975 66.4562 35.1763 65 33.125 65C30.7125 65 28.75 66.9625 28.75 69.375C28.75 69.5538 28.7763 69.725 28.8013 69.8975C28.8375 70.1512 28.7225 70.445 28.4987 70.5725C28.275 70.7 28.0037 70.72 27.8038 70.56C27.3475 70.1937 26.8112 70 26.25 70C25.0425 70 24.01 70.8637 23.7963 72.055C23.7363 72.3887 23.4263 72.6125 23.085 72.5613C22.8925 72.5313 22.7 72.5 22.5 72.5C20.4325 72.5 18.75 74.1825 18.75 76.25C18.75 78.3175 20.4325 80 22.5 80H31.875C32.22 80 32.5 80.28 32.5 80.625C32.5 80.97 32.22 81.25 31.875 81.25H22.5C19.7425 81.25 17.5 79.0075 17.5 76.25C17.5 73.4925 19.7425 71.25 22.5 71.25C22.5738 71.25 22.645 71.2525 22.7175 71.2575C23.235 69.775 24.6388 68.75 26.25 68.75C26.6862 68.75 27.1112 68.8263 27.5138 68.975C27.72 66.0588 30.1575 63.75 33.125 63.75C35.4137 63.75 37.4575 65.1588 38.3162 67.2175C39.1663 66.595 40.1938 66.25 41.25 66.25C44.0075 66.25 46.25 68.4925 46.25 71.25C46.25 71.31 46.2487 71.3687 46.245 71.4275C48.4237 71.9875 50 73.9613 50 76.25C50 79.0075 47.7575 81.25 45 81.25Z" fill="#472B29"/>
<path d="M38.125 80C37.9262 80 37.0738 80 36.875 80C36.53 80 36.25 80.28 36.25 80.625C36.25 80.97 36.53 81.25 36.875 81.25C37.0738 81.25 37.9262 81.25 38.125 81.25C38.47 81.25 38.75 80.97 38.75 80.625C38.75 80.28 38.47 80 38.125 80Z" fill="#472B29"/>
<defs>
<linearGradient id="paint0_linear" x1="64.375" y1="26.6406" x2="77.6562" y2="26.6406" gradientUnits="userSpaceOnUse">
<stop stop-color="#16D9E3"/>
<stop offset="0.47" stop-color="#30C7EC"/>
<stop offset="1" stop-color="#46AEF7"/>
</linearGradient>
<linearGradient id="paint1_linear" x1="59.375" y1="45.3125" x2="70.625" y2="45.3125" gradientUnits="userSpaceOnUse">
<stop stop-color="#16D9E3"/>
<stop offset="0.47" stop-color="#30C7EC"/>
<stop offset="1" stop-color="#46AEF7"/>
</linearGradient>
</defs>
</svg>
