<svg width="110" height="90" viewBox="0 0 110 90" fill="none" xmlns="http://www.w3.org/2000/svg">
<path d="M103.095 53.7389C103.479 52.951 103.819 52.1221 104.113 51.2536C107.481 41.315 102.388 29.4092 91.664 26.5351C90.5051 11.9738 80.2723 1.98536 68.7157 0.280329C55.4886 -1.67029 43.3717 6.73209 39.34 20.0871C34.4807 18.3655 29.7455 18.5752 25.2827 21.1833C23.2579 22.1196 21.4058 23.501 19.7442 25.3186C17.305 27.9868 15.7189 31.3547 15.0729 34.9055C14.1162 35.0564 13.176 35.2073 12.2896 35.5245C7.12208 37.378 3.86167 41.1922 2.96758 46.9379C2.41117 50.5156 3.53422 54.0842 4.16098 55.5258C6.63603 61.2242 12.3753 64.4539 18.2067 63.5994C18.4971 63.5572 18.9192 63.6877 19.1686 63.8975C19.4769 73.0046 23.8987 81.0591 30.5321 85.66C41.1755 93.0429 54.8695 90.7687 63.5085 80.6447C67.2102 84.4308 71.6154 86.2701 76.7906 85.6024C81.9364 84.9386 85.9323 82.099 88.8474 77.4815C90.1943 77.8434 91.4708 78.3653 92.7908 78.5099C97.9609 79.0752 102.159 77.0197 105.239 72.3702C106.418 70.591 107.532 68.2848 107.532 64.2428C107.534 60.0794 105.88 56.2843 103.095 53.7389Z" fill="#C7EDE6"/>
<path d="M87.8804 45.2611C87.8804 45.2611 102.834 45.2611 102.925 45.2611C106.379 45.2611 109.177 42.4611 109.177 39.0076C109.177 35.9953 107.046 33.4806 104.209 32.8884C104.243 32.6249 104.264 32.3576 104.264 32.0851C104.264 28.5088 101.365 25.6091 97.7883 25.6091C95.6765 25.6091 93.8064 26.6247 92.6246 28.189C92.3227 24.2072 88.7655 21.1361 84.6046 21.6451C81.5617 22.0174 79.0457 24.3696 78.4854 27.3832C78.3064 28.3502 78.3243 29.2877 78.5033 30.1678C77.6873 29.289 76.5259 28.7364 75.2327 28.7364C72.8664 28.7364 70.9336 30.5796 70.7814 32.9076C69.707 32.6697 68.5379 32.685 67.3061 33.148C64.9526 34.0319 63.277 36.2473 63.1785 38.7594C63.0391 42.3268 65.8902 45.2636 69.4269 45.2636C69.6955 45.2636 70.6395 45.2636 70.8569 45.2636H83.841" fill="#FDFCEF"/>
<path d="M102.926 45.8994H87.8804C87.5274 45.8994 87.2409 45.6129 87.2409 45.2599C87.2409 44.9068 87.5274 44.6203 87.8804 44.6203H102.925C106.019 44.6203 108.538 42.1018 108.538 39.0064C108.538 36.3625 106.663 34.0524 104.079 33.5127C103.753 33.4449 103.534 33.1379 103.575 32.8066C103.604 32.5687 103.625 32.3282 103.625 32.0839C103.625 28.8644 101.007 26.2474 97.7883 26.2474C95.9477 26.2474 94.2516 27.0954 93.135 28.5728C92.9751 28.7851 92.7014 28.8759 92.4443 28.8005C92.1897 28.725 92.0068 28.5012 91.9876 28.2364C91.8546 26.4751 90.9912 24.8199 89.6213 23.6969C88.236 22.561 86.4798 22.0558 84.6827 22.2783C81.9122 22.6186 79.6226 24.7636 79.1148 27.4983C78.9562 28.3528 78.9613 29.2072 79.1301 30.0386C79.1877 30.32 79.0508 30.604 78.7963 30.7345C78.543 30.8688 78.2297 30.8112 78.0352 30.6014C77.2998 29.8109 76.3046 29.3748 75.234 29.3748C73.2271 29.3748 71.5528 30.9442 71.421 32.9473C71.4082 33.134 71.3161 33.3054 71.1665 33.4167C71.0168 33.5293 70.8237 33.5702 70.6446 33.5306C69.5702 33.2952 68.5507 33.363 67.5326 33.7442C65.3978 34.5474 63.9051 36.5723 63.8194 38.7825C63.7592 40.3264 64.3144 41.7884 65.3824 42.8987C66.4505 44.0089 67.8882 44.6216 69.4295 44.6216H83.8436C84.1966 44.6216 84.4832 44.9081 84.4832 45.2612C84.4832 45.6142 84.1966 45.9007 83.8436 45.9007H69.4295C67.5377 45.9007 65.7725 45.1499 64.4615 43.7851C63.1504 42.4228 62.4686 40.6283 62.5428 38.7339C62.649 36.0146 64.4743 33.5293 67.0849 32.5482C68.1082 32.1645 69.166 32.0379 70.2417 32.1658C70.7226 29.8353 72.7961 28.0957 75.2366 28.0957C76.1115 28.0957 76.9685 28.3259 77.7231 28.748C77.7231 28.2556 77.7679 27.7606 77.86 27.2668C78.4689 23.9898 81.2112 21.4162 84.5305 21.0095C86.6806 20.7473 88.7771 21.3497 90.4348 22.7081C91.7177 23.7608 92.6297 25.2036 93.0416 26.791C94.336 25.6206 96.0078 24.9683 97.7909 24.9683C101.714 24.9683 104.906 28.1609 104.906 32.0839C104.906 32.1901 104.904 32.2962 104.898 32.4011C107.781 33.2619 109.82 35.9519 109.82 39.0064C109.818 42.8078 106.727 45.8994 102.926 45.8994Z" fill="#472B29"/>
<path d="M84.2569 31.4866C81.9443 31.3344 79.9527 32.932 79.8107 35.054C79.7928 35.3175 79.8043 35.5771 79.8427 35.8291C79.3963 35.3252 78.7363 34.9836 77.9778 34.9338C76.59 34.8429 75.3915 35.7588 75.2175 37.0059C74.9655 36.9368 74.702 36.8908 74.4296 36.8729C72.406 36.7398 70.6639 38.1379 70.5386 39.9951" fill="#FDFCEF"/>
<path d="M70.5397 40.3135C70.532 40.3135 70.5244 40.3135 70.518 40.3123C70.3414 40.3007 70.2084 40.1485 70.2199 39.972C70.3555 37.9421 72.2575 36.4059 74.4512 36.5517C74.6264 36.5632 74.8004 36.585 74.9743 36.6195C75.3235 35.3813 76.5732 34.5039 78.0007 34.6152C78.5443 34.6497 79.0546 34.8198 79.4883 35.1038C79.4895 35.0795 79.4908 35.0564 79.4921 35.0309C79.6456 32.7362 81.7766 30.9864 84.2785 31.1667C84.455 31.1782 84.588 31.3304 84.5765 31.507C84.565 31.6835 84.4179 31.8331 84.2363 31.8037C82.1168 31.663 80.2608 33.1301 80.1304 35.0744C80.1137 35.311 80.124 35.5476 80.1598 35.7804C80.1815 35.9198 80.1073 36.0593 79.9794 36.1194C79.8528 36.1795 79.6993 36.1475 79.6047 36.0414C79.1928 35.5758 78.6082 35.2956 77.9572 35.2521C76.7625 35.1959 75.6868 35.9633 75.5346 37.048C75.5218 37.1388 75.4706 37.2207 75.3939 37.2718C75.3159 37.323 75.2225 37.3384 75.1329 37.3128C74.8937 37.2475 74.6507 37.2066 74.4077 37.1887C72.5658 37.0736 70.9708 38.336 70.8582 40.0142C70.8467 40.1843 70.7073 40.3135 70.5397 40.3135Z" fill="#472B29"/>
<path d="M105.458 33.62C103.285 32.5954 100.771 33.3206 99.844 35.2406C99.7289 35.4785 99.6432 35.7254 99.5869 35.9748" fill="#FDFCEF"/>
<path d="M99.5866 36.2946C99.5636 36.2946 99.5393 36.2921 99.515 36.2869C99.3436 36.2473 99.2349 36.0759 99.2745 35.9032C99.3372 35.6282 99.4319 35.3583 99.5546 35.1025C100.557 33.0278 103.268 32.236 105.593 33.3309C105.753 33.4077 105.822 33.597 105.747 33.7569C105.671 33.9181 105.479 33.982 105.321 33.9104C103.308 32.96 100.981 33.62 100.13 35.3788C100.028 35.5924 99.9486 35.8162 99.8974 36.0452C99.8642 36.1948 99.7324 36.2946 99.5866 36.2946Z" fill="#472B29"/>
<path d="M81.15 9.94142H68.3206C67.9676 9.94142 67.6811 9.65491 67.6811 9.30188C67.6811 8.94885 67.9676 8.66233 68.3206 8.66233H81.15C81.503 8.66233 81.7895 8.94885 81.7895 9.30188C81.7895 9.65491 81.503 9.94142 81.15 9.94142ZM84.835 9.94142H82.9855C82.6324 9.94142 82.3459 9.65491 82.3459 9.30188C82.3459 8.94885 82.6324 8.66233 82.9855 8.66233H84.835C85.1881 8.66233 85.4746 8.94885 85.4746 9.30188C85.4746 9.65491 85.1893 9.94142 84.835 9.94142ZM90.0218 9.94142H86.7665C86.4134 9.94142 86.1269 9.65491 86.1269 9.30188C86.1269 8.94885 86.4134 8.66233 86.7665 8.66233H90.0218C90.3748 8.66233 90.6613 8.94885 90.6613 9.30188C90.6613 9.65491 90.3748 9.94142 90.0218 9.94142ZM87.4303 5.17167H75.1292C74.7762 5.17167 74.4897 4.88516 74.4897 4.53213C74.4897 4.1791 74.7762 3.89258 75.1292 3.89258H87.4303C87.7833 3.89258 88.0699 4.1791 88.0699 4.53213C88.0699 4.88516 87.7846 5.17167 87.4303 5.17167ZM72.9151 5.17167H72.1733C71.8202 5.17167 71.5337 4.88516 71.5337 4.53213C71.5337 4.1791 71.8202 3.89258 72.1733 3.89258H72.9151C73.2682 3.89258 73.5547 4.1791 73.5547 4.53213C73.5547 4.88516 73.2682 5.17167 72.9151 5.17167ZM69.8747 5.17167H68.0124C67.6593 5.17167 67.3728 4.88516 67.3728 4.53213C67.3728 4.1791 67.6593 3.89258 68.0124 3.89258H69.8747C70.2277 3.89258 70.5143 4.1791 70.5143 4.53213C70.5143 4.88516 70.229 5.17167 69.8747 5.17167ZM84.152 7.55591H77.722C77.3689 7.55591 77.0824 7.26939 77.0824 6.91636C77.0824 6.56333 77.3689 6.27681 77.722 6.27681H84.152C84.505 6.27681 84.7915 6.56333 84.7915 6.91636C84.7915 7.26939 84.505 7.55591 84.152 7.55591Z" fill="white"/>
<path d="M84.1518 5.17167H82.544C82.191 5.17167 81.9045 4.88516 81.9045 4.53213C81.9045 4.1791 82.191 3.89258 82.544 3.89258H84.1518C84.5049 3.89258 84.7914 4.1791 84.7914 4.53213C84.7914 4.88516 84.5049 5.17167 84.1518 5.17167ZM75.8595 7.55591H73.6095C73.2565 7.55591 72.97 7.26939 72.97 6.91636C72.97 6.56333 73.2565 6.27681 73.6095 6.27681H75.8595C76.2125 6.27681 76.499 6.56333 76.499 6.91636C76.499 7.26939 76.2138 7.55591 75.8595 7.55591Z" fill="white"/>
<path d="M75.0972 75.4439H37.0915C32.2744 75.4439 28.3335 71.503 28.3335 66.6859V28.6801C28.3335 23.863 32.2744 19.9221 37.0915 19.9221H75.0972C79.9143 19.9221 83.8552 23.863 83.8552 28.6801V66.6859C83.8565 71.503 79.9143 75.4439 75.0972 75.4439Z" fill="url(#paint0_linear)"/>
<path d="M75.0974 76.3393H37.0916C31.768 76.3393 27.4382 72.0083 27.4382 66.686V28.6815C27.4382 23.3579 31.7693 19.0269 37.0916 19.0269H75.0974C80.421 19.0269 84.752 23.3579 84.752 28.6815V66.6873C84.752 72.0096 80.421 76.3393 75.0974 76.3393ZM37.0916 20.8176C32.7554 20.8176 29.229 24.3453 29.229 28.6802V66.686C29.229 71.0221 32.7554 74.5473 37.0916 74.5473H75.0974C79.4335 74.5473 82.96 71.0208 82.96 66.686V28.6815C82.96 24.3453 79.4322 20.8189 75.0974 20.8189H37.0916V20.8176Z" fill="#472B29"/>
<path d="M72.7924 71.4787H39.3978C35.494 71.4787 32.3 68.2848 32.3 64.381V30.985C32.3 27.0812 35.494 23.8873 39.3978 23.8873H72.7937C76.6975 23.8873 79.8914 27.0812 79.8914 30.985V64.381C79.8901 68.2848 76.6962 71.4787 72.7924 71.4787Z" fill="#FDFCEE"/>
<path d="M72.658 71.9251H39.532C35.2969 71.9251 31.8523 68.4817 31.8523 64.2466V31.1206C31.8523 26.8855 35.2969 23.4409 39.532 23.4409H71.0783C71.3252 23.4409 71.526 23.6405 71.526 23.8886C71.526 24.1367 71.3252 24.3363 71.0783 24.3363H39.532C35.7919 24.3363 32.7477 27.3805 32.7477 31.1219V64.2479C32.7477 67.988 35.7906 71.0322 39.532 71.0322H72.658C76.3994 71.0322 79.4423 67.988 79.4423 64.2479V45.921C79.4423 45.6742 79.6432 45.4733 79.89 45.4733C80.1369 45.4733 80.3377 45.6729 80.3377 45.921V64.2466C80.3377 68.4817 76.8918 71.9251 72.658 71.9251ZM79.89 43.7235C79.6432 43.7235 79.4423 43.524 79.4423 43.2759V39.7507C79.4423 39.5038 79.6432 39.303 79.89 39.303C80.1369 39.303 80.3377 39.5025 80.3377 39.7507V43.2759C80.3377 43.524 80.1382 43.7235 79.89 43.7235ZM79.89 38.437C79.6432 38.437 79.4423 38.2375 79.4423 37.9894V36.2268C79.4423 35.9799 79.6432 35.7791 79.89 35.7791C80.1369 35.7791 80.3377 35.9786 80.3377 36.2268V37.9894C80.3377 38.2362 80.1382 38.437 79.89 38.437Z" fill="#472B29"/>
<path d="M41.6245 78.9844C44.033 78.9844 46.1231 78.9844 46.1525 78.9844C48.8514 78.9844 51.0399 76.8432 51.0399 74.2018C51.0399 71.8969 49.3745 69.9744 47.1579 69.5203C47.1834 69.3182 47.2013 69.1149 47.2013 68.9064C47.2013 66.1704 44.9348 63.9524 42.14 63.9524C40.4899 63.9524 39.0279 64.7288 38.1044 65.9261C37.8678 62.8805 35.0883 60.5308 31.8368 60.921C29.459 61.2062 27.4918 63.0046 27.0543 65.3095C26.9136 66.0489 26.929 66.7664 27.0684 67.4392C26.4314 66.7677 25.5232 66.3443 24.5127 66.3443C22.6632 66.3443 21.1526 67.7539 21.0336 69.5344C20.1932 69.3528 19.28 69.3643 18.3181 69.7173C16.4787 70.3927 15.1689 72.0875 15.0922 74.01C14.9835 76.7383 17.2117 78.9844 19.9758 78.9844C20.1856 78.9844 20.9236 78.9844 21.0937 78.9844H31.2421H41.6245ZM33.3385 78.9844H33.799H33.3385Z" fill="#FDFCEF"/>
<path d="M46.1526 79.624H41.6233C41.2703 79.624 40.9838 79.3375 40.9838 78.9845C40.9838 78.6314 41.2703 78.3449 41.6233 78.3449H46.1526C48.4946 78.3449 50.3992 76.4864 50.3992 74.2019C50.3992 72.2526 48.982 70.5463 47.0288 70.1472C46.7013 70.0794 46.4813 69.7724 46.5223 69.4411C46.544 69.2659 46.5594 69.0881 46.5594 68.9052C46.5594 66.5273 44.5755 64.5921 42.1375 64.5921C40.7407 64.5921 39.454 65.2201 38.6085 66.3163C38.4473 66.5261 38.1736 66.6105 37.9191 66.5388C37.6658 66.4621 37.4854 66.2395 37.465 65.9761C37.3639 64.6714 36.741 63.4895 35.7126 62.6453C34.6523 61.7742 33.3002 61.393 31.9099 61.5542C29.8045 61.8062 28.0649 63.3987 27.6799 65.4273C27.5597 66.0579 27.5635 66.6911 27.6927 67.3089C27.7502 67.589 27.6159 67.8729 27.3627 68.006C27.1107 68.1377 26.7999 68.0866 26.6016 67.8781C26.0529 67.3012 25.3097 66.9827 24.509 66.9827C23.0138 66.9827 21.7654 68.1224 21.6681 69.5754C21.6554 69.7622 21.5633 69.931 21.4149 70.0436C21.2665 70.1549 21.0798 70.1971 20.8956 70.1574C20.0782 69.9822 19.3057 70.0321 18.5356 70.3173C16.9214 70.9095 15.7933 72.4035 15.728 74.0331C15.6833 75.1536 16.09 76.219 16.8728 77.0338C17.685 77.878 18.7863 78.3436 19.9721 78.3436H31.2383C31.5914 78.3436 31.8779 78.6301 31.8779 78.9832C31.8779 79.3362 31.5914 79.6227 31.2383 79.6227H19.9721C18.4563 79.6227 16.9905 79.0024 15.9506 77.9202C14.9235 76.8509 14.3914 75.4529 14.4502 73.9832C14.5359 71.8407 16.0005 69.885 18.0956 69.1149C18.8746 68.8284 19.6804 68.7248 20.5003 68.8029C20.9403 67.0172 22.584 65.7023 24.5103 65.7023C25.1409 65.7023 25.76 65.8469 26.3189 66.1155C26.3305 65.8059 26.3663 65.4964 26.4251 65.1856C26.9137 62.6159 29.1074 60.6 31.7589 60.2828C33.5036 60.0679 35.1933 60.5616 36.5248 61.6527C37.4816 62.4368 38.1608 63.4549 38.5036 64.5972C39.5154 63.7696 40.7868 63.3104 42.1388 63.3104C45.2828 63.3104 47.8397 65.8187 47.8397 68.9026C47.8397 68.9461 47.8397 68.9896 47.8385 69.0344C50.0948 69.7443 51.6796 71.833 51.6796 74.1994C51.6796 77.1912 49.2007 79.624 46.1526 79.624ZM33.7991 79.624H33.3399C32.9869 79.624 32.7003 79.3375 32.7003 78.9845C32.7003 78.6314 32.9869 78.3449 33.3399 78.3449H33.7991C34.1521 78.3449 34.4386 78.6314 34.4386 78.9845C34.4386 79.3375 34.1521 79.624 33.7991 79.624Z" fill="#472B29"/>
<path d="M43.9678 72.2014C43.9448 72.2014 43.9205 72.1988 43.8974 72.1937C43.7248 72.154 43.6173 71.9826 43.657 71.81C43.7056 71.5976 43.7772 71.3917 43.8731 71.1973C44.647 69.6304 46.7805 69.0509 48.6339 69.9105C48.7938 69.9847 48.8642 70.174 48.79 70.3339C48.7145 70.495 48.5265 70.5641 48.3653 70.4899C46.8253 69.7788 45.0678 70.2226 44.4474 71.4787C44.3733 71.6283 44.3183 71.7869 44.2812 71.9507C44.2466 72.1003 44.1149 72.2014 43.9678 72.2014ZM37.3702 79.624H35.9542C35.6012 79.624 35.3147 79.3374 35.3147 78.9844C35.3147 78.6314 35.6012 78.3449 35.9542 78.3449H37.3702C37.7232 78.3449 38.0098 78.6314 38.0098 78.9844C38.0098 79.3374 37.7232 79.624 37.3702 79.624Z" fill="#472B29"/>
<path d="M13.4689 47.3983H0.639548C0.286518 47.3983 0 47.1118 0 46.7588C0 46.4058 0.286518 46.1192 0.639548 46.1192H13.4689C13.8219 46.1192 14.1084 46.4058 14.1084 46.7588C14.1084 47.1118 13.8219 47.3983 13.4689 47.3983ZM17.154 47.3983H15.3044C14.9514 47.3983 14.6648 47.1118 14.6648 46.7588C14.6648 46.4058 14.9514 46.1192 15.3044 46.1192H17.154C17.507 46.1192 17.7935 46.4058 17.7935 46.7588C17.7935 47.1118 17.5083 47.3983 17.154 47.3983ZM22.3407 47.3983H19.0841C18.7311 47.3983 18.4446 47.1118 18.4446 46.7588C18.4446 46.4058 18.7311 46.1192 19.0841 46.1192H22.3407C22.6937 46.1192 22.9802 46.4058 22.9802 46.7588C22.9802 47.1118 22.6937 47.3983 22.3407 47.3983ZM22.3407 49.7851H10.0409C9.68787 49.7851 9.40136 49.4986 9.40136 49.1456C9.40136 48.7925 9.68787 48.506 10.0409 48.506H22.3407C22.6937 48.506 22.9802 48.7925 22.9802 49.1456C22.9802 49.4986 22.6937 49.7851 22.3407 49.7851ZM7.82551 49.7851H7.08364C6.7306 49.7851 6.44409 49.4986 6.44409 49.1456C6.44409 48.7925 6.7306 48.506 7.08364 48.506H7.82551C8.17854 48.506 8.46506 48.7925 8.46506 49.1456C8.46506 49.4986 8.17854 49.7851 7.82551 49.7851ZM4.7851 49.7851H2.92273C2.5697 49.7851 2.28319 49.4986 2.28319 49.1456C2.28319 48.7925 2.5697 48.506 2.92273 48.506H4.7851C5.13813 48.506 5.42465 48.7925 5.42465 49.1456C5.42465 49.4986 5.13941 49.7851 4.7851 49.7851ZM16.4709 45.0141H10.0409C9.68787 45.0141 9.40136 44.7276 9.40136 44.3745C9.40136 44.0215 9.68787 43.735 10.0409 43.735H16.4709C16.824 43.735 17.1105 44.0215 17.1105 44.3745C17.1105 44.7276 16.8252 45.0141 16.4709 45.0141ZM16.4709 42.6286H14.8631C14.5101 42.6286 14.2235 42.3421 14.2235 41.989C14.2235 41.636 14.5101 41.3495 14.8631 41.3495H16.4709C16.824 41.3495 17.1105 41.636 17.1105 41.989C17.1105 42.3421 16.8252 42.6286 16.4709 42.6286ZM12.2896 52.1694H10.0409C9.68787 52.1694 9.40136 51.8828 9.40136 51.5298C9.40136 51.1768 9.68787 50.8903 10.0409 50.8903H12.2896C12.6426 50.8903 12.9291 51.1768 12.9291 51.5298C12.9291 51.8828 12.6439 52.1694 12.2896 52.1694Z" fill="white"/>
<path d="M51.4006 51.8651C51.2369 51.8651 51.0732 51.8024 50.9478 51.6784C50.6984 51.429 50.6984 51.0235 50.9478 50.7741L53.3653 48.3553C53.6147 48.1059 54.0202 48.1059 54.2696 48.3553C54.519 48.6047 54.519 49.0102 54.2696 49.2596L51.8521 51.6784C51.7281 51.8024 51.5643 51.8651 51.4006 51.8651Z" fill="#472B29"/>
<path d="M41.0375 61.5875C40.0871 60.6371 40.0871 59.083 41.0375 58.1327L47.9459 51.2243C48.8962 50.2739 50.4503 50.2739 51.4007 51.2243C52.3511 52.1746 52.3511 53.7287 51.4007 54.6791L44.4923 61.5875C43.542 62.5366 41.9879 62.5366 41.0375 61.5875Z" fill="#88AE45"/>
<path d="M42.7639 62.8128C42.008 62.8128 41.2508 62.525 40.6752 61.9494C39.524 60.797 39.524 58.9231 40.6752 57.7693L47.5836 50.8622C48.6951 49.7507 50.6483 49.7507 51.7611 50.8622C52.3175 51.4186 52.6232 52.1605 52.6232 52.951C52.6232 53.7415 52.3175 54.4833 51.7611 55.041L44.8527 61.9494C44.2771 62.525 43.5211 62.8128 42.7639 62.8128ZM41.3991 61.2254C42.1525 61.9801 43.3766 61.9801 44.13 61.2254L51.0384 54.3171C51.4017 53.9551 51.6012 53.469 51.6012 52.9523C51.6012 52.4355 51.4017 51.9507 51.0384 51.5887C50.3119 50.8609 49.0328 50.8609 48.3075 51.5887L41.3991 58.4959C40.647 59.2467 40.647 60.4721 41.3991 61.2254Z" fill="#472B29"/>
<path d="M51.1437 51.4723C50.3417 50.6703 49.083 50.6178 48.345 51.3559L48.2107 51.4902L48.5023 51.7818L51.1258 54.4053L51.2601 54.2709C51.9981 53.5329 51.9457 52.273 51.1437 51.4723Z" fill="#D1DC82"/>
<path d="M51.1309 55.2343C51.0081 55.2343 50.8853 55.1869 50.792 55.0948L47.6838 51.9841C47.497 51.7973 47.497 51.4929 47.6838 51.3062C47.8705 51.1194 48.1749 51.1181 48.3617 51.3074L51.4699 54.4156C51.6566 54.6024 51.6566 54.9081 51.4699 55.0948C51.3765 55.1882 51.255 55.2343 51.1309 55.2343Z" fill="#472B29"/>
<path opacity="0.74" d="M55.3945 35.1397C53.7914 36.7429 52.8908 38.9171 52.8909 41.1843C52.8909 43.4514 53.7916 45.6256 55.3947 47.2287C56.9978 48.8318 59.1721 49.7324 61.4392 49.7323C63.7063 49.7323 65.8806 48.8316 67.4837 47.2285C69.0867 45.6254 69.9873 43.4511 69.9873 41.184C69.9872 38.9168 69.0866 36.7426 67.4835 35.1395C65.8803 33.5364 63.7061 32.6359 61.4389 32.6359C59.1718 32.636 56.9976 33.5366 55.3945 35.1397Z" fill="#77CBD2"/>
<path d="M69.0162 33.6073C64.8195 29.4105 58.0147 29.4105 53.8179 33.6073C49.6212 37.804 49.6212 44.6088 53.8179 48.8055C58.0147 53.0022 64.8195 53.0022 69.0162 48.8055C73.2142 44.61 73.2142 37.8052 69.0162 33.6073Z" fill="#E1E0D8"/>
<path d="M61.4173 52.4599C58.5342 52.4599 55.6511 51.3637 53.4562 49.1688C49.0664 44.7776 49.0664 37.6351 53.4562 33.2453C57.8461 28.8567 64.9898 28.8554 69.3784 33.2453C73.7683 37.6364 73.7683 44.7789 69.3784 49.1688C67.1835 51.3637 64.3004 52.4599 61.4173 52.4599ZM61.4173 30.9762C58.7964 30.9762 56.1756 31.9739 54.1802 33.9705C50.1894 37.9613 50.1894 44.454 54.1802 48.4448C58.1722 52.4381 64.6662 52.4368 68.6557 48.4448C72.6465 44.454 72.6465 37.9613 68.6557 33.9705C66.659 31.9739 64.0382 30.9762 61.4173 30.9762ZM42.2245 62.4279C42.1567 62.4279 42.094 62.3844 42.0723 62.3166L40.8763 58.6008C40.8494 58.5177 40.8955 58.4269 40.9799 58.4C41.0631 58.3731 41.1539 58.4205 41.1807 58.5036L42.3767 62.2194C42.4035 62.3025 42.3575 62.3933 42.2731 62.4202C42.2564 62.4253 42.2411 62.4279 42.2245 62.4279ZM42.9817 62.1695C42.9126 62.1695 42.8487 62.1247 42.8282 62.0556L41.4724 57.5021C41.4468 57.4176 41.4954 57.3268 41.5798 57.3025C41.6655 57.2833 41.7538 57.3268 41.7781 57.41L43.1339 61.9636C43.1595 62.048 43.1109 62.1388 43.0265 62.1631C43.0124 62.1669 42.997 62.1695 42.9817 62.1695ZM43.4383 60.5693C43.3693 60.5693 43.3053 60.5246 43.2848 60.4555L42.1503 56.6451C42.1247 56.5607 42.1733 56.4698 42.2577 56.4455C42.3434 56.4263 42.4317 56.4698 42.456 56.553L43.5905 60.3634C43.6161 60.4478 43.5675 60.5386 43.4831 60.5629C43.469 60.5668 43.4537 60.5693 43.4383 60.5693ZM43.9014 58.9001C43.8323 58.9001 43.7683 58.8554 43.7479 58.7863L42.9484 56.0989C42.9229 56.0145 42.9715 55.9237 43.0559 55.8994C43.1403 55.8789 43.2298 55.9249 43.2541 56.0068L44.0536 58.6942C44.0792 58.7786 44.0306 58.8681 43.9461 58.8937C43.9308 58.8976 43.9154 58.9001 43.9014 58.9001Z" fill="#472B29"/>
<path d="M55.3718 35.1637C53.7687 36.7668 52.8681 38.9411 52.8682 41.2082C52.8682 43.4753 53.7689 45.6496 55.372 47.2526C56.9751 48.8557 59.1494 49.7563 61.4165 49.7562C63.6836 49.7562 65.8579 48.8556 67.461 47.2524C69.064 45.6493 69.9646 43.475 69.9646 41.2079C69.9645 38.9408 69.0639 36.7665 67.4608 35.1635C65.8576 33.5604 63.6833 32.6598 61.4162 32.6598C59.1491 32.6599 56.9748 33.5605 55.3718 35.1637Z" fill="#A8DBDB"/>
<path d="M61.4173 50.1715C59.0215 50.1715 56.7716 49.239 55.0781 47.5442C53.3858 45.852 52.4534 43.6007 52.4534 41.2063C52.4534 38.8118 53.3858 36.5606 55.0781 34.8684C56.7716 33.1748 59.0215 32.2411 61.4173 32.2411C63.8117 32.2411 66.063 33.1736 67.7565 34.8684C69.45 36.5606 70.3825 38.8118 70.3825 41.2063C70.3825 43.6007 69.45 45.852 67.7565 47.5442C66.063 49.239 63.8117 50.1715 61.4173 50.1715ZM61.4173 33.0738C59.2441 33.0738 57.2027 33.9193 55.6665 35.4555C54.1303 36.9917 53.2848 39.0344 53.2848 41.2063C53.2848 43.3782 54.1303 45.4209 55.6665 46.9571C57.2027 48.4933 59.2441 49.3388 61.4173 49.3388C63.5892 49.3388 65.6319 48.4933 67.1681 46.9571C68.7043 45.4209 69.551 43.3782 69.551 41.2063C69.551 39.0344 68.7043 36.9917 67.1681 35.4555C65.6319 33.9193 63.5905 33.0738 61.4173 33.0738Z" fill="#472B29"/>
<defs>
<linearGradient id="paint0_linear" x1="28.3335" y1="47.683" x2="83.8552" y2="47.683" gradientUnits="userSpaceOnUse">
<stop stop-color="#16D9E3"/>
<stop offset="0.47" stop-color="#30C7EC"/>
<stop offset="1" stop-color="#46AEF7"/>
</linearGradient>
</defs>
</svg>
