<svg width="105" height="90" viewBox="0 0 105 90" fill="none" xmlns="http://www.w3.org/2000/svg">
<path d="M97.7687 53.3875C99.1875 50.6937 100 47.6312 100 44.375C100 36.0988 94.8013 29.0537 87.4987 26.2775C87.4987 26.2687 87.5 26.26 87.5 26.25C87.5 11.7525 75.7475 0 61.25 0C49.02 0 38.7738 8.37625 35.8587 19.6963C34.0138 19.09 32.0475 18.75 30 18.75C20.385 18.75 12.4713 25.9912 11.3875 35.315C4.8825 36.6912 0 42.4613 0 49.375C0 57.3138 6.43625 63.75 14.375 63.75C14.5962 63.75 14.815 63.735 15.0325 63.7225C15.0275 63.9412 15 64.155 15 64.375C15 78.5275 26.4725 90 40.625 90C48.6712 90 55.8437 86.285 60.5425 80.4825C63.265 83.2637 67.05 85 71.25 85C77.0625 85 82.0925 81.6875 84.5825 76.8525C85.8975 77.2713 87.2962 77.5 88.75 77.5C96.3438 77.5 102.5 71.3438 102.5 63.75C102.5 59.6112 100.662 55.9087 97.7687 53.3875Z" fill="#C7EDE6"/>
<path d="M20.5063 31.25H8.125C7.78 31.25 7.5 30.97 7.5 30.625C7.5 30.28 7.78 30 8.125 30H20.5063C20.8513 30 21.1313 30.28 21.1313 30.625C21.1313 30.97 20.8525 31.25 20.5063 31.25ZM24.375 31.25H23.125C22.78 31.25 22.5 30.97 22.5 30.625C22.5 30.28 22.78 30 23.125 30H24.375C24.72 30 25 30.28 25 30.625C25 30.97 24.7213 31.25 24.375 31.25ZM30.6138 33.75H19.375C19.03 33.75 18.75 33.47 18.75 33.125C18.75 32.78 19.03 32.5 19.375 32.5H30.6138C30.9588 32.5 31.2388 32.78 31.2388 33.125C31.2388 33.47 30.9588 33.75 30.6138 33.75ZM16.875 33.75H15.625C15.28 33.75 15 33.47 15 33.125C15 32.78 15.28 32.5 15.625 32.5H16.875C17.22 32.5 17.5 32.78 17.5 33.125C17.5 33.47 17.2212 33.75 16.875 33.75ZM13.125 33.75H10.625C10.28 33.75 10 33.47 10 33.125C10 32.78 10.28 32.5 10.625 32.5H13.125C13.47 32.5 13.75 32.78 13.75 33.125C13.75 33.47 13.4713 33.75 13.125 33.75ZM20.625 36.25H18.125C17.78 36.25 17.5 35.97 17.5 35.625C17.5 35.28 17.78 35 18.125 35H20.625C20.97 35 21.25 35.28 21.25 35.625C21.25 35.97 20.97 36.25 20.625 36.25ZM24.375 25C24.1537 25 23.3462 25 23.125 25C22.78 25 22.5 25.28 22.5 25.625C22.5 25.97 22.78 26.25 23.125 26.25C23.3462 26.25 24.1537 26.25 24.375 26.25C24.72 26.25 25 25.97 25 25.625C25 25.28 24.72 25 24.375 25ZM24.375 27.5C24.1537 27.5 18.3462 27.5 18.125 27.5C17.78 27.5 17.5 27.78 17.5 28.125C17.5 28.47 17.78 28.75 18.125 28.75C18.3462 28.75 24.1537 28.75 24.375 28.75C24.72 28.75 25 28.47 25 28.125C25 27.78 24.72 27.5 24.375 27.5ZM30.625 30C30.4037 30 27.0963 30 26.875 30C26.53 30 26.25 30.28 26.25 30.625C26.25 30.97 26.53 31.25 26.875 31.25C27.0963 31.25 30.4037 31.25 30.625 31.25C30.97 31.25 31.25 30.97 31.25 30.625C31.25 30.28 30.97 30 30.625 30ZM93.125 62.5H80.625C80.28 62.5 80 62.22 80 61.875C80 61.53 80.28 61.25 80.625 61.25H93.125C93.47 61.25 93.75 61.53 93.75 61.875C93.75 62.22 93.47 62.5 93.125 62.5ZM98.125 62.5H95.625C95.28 62.5 95 62.22 95 61.875C95 61.53 95.28 61.25 95.625 61.25H98.125C98.47 61.25 98.75 61.53 98.75 61.875C98.75 62.22 98.47 62.5 98.125 62.5ZM104.375 65H91.875C91.53 65 91.25 64.72 91.25 64.375C91.25 64.03 91.53 63.75 91.875 63.75H104.375C104.72 63.75 105 64.03 105 64.375C105 64.72 104.721 65 104.375 65ZM89.375 65H88.125C87.78 65 87.5 64.72 87.5 64.375C87.5 64.03 87.78 63.75 88.125 63.75H89.375C89.72 63.75 90 64.03 90 64.375C90 64.72 89.72 65 89.375 65ZM85.4688 65H83.125C82.78 65 82.5 64.72 82.5 64.375C82.5 64.03 82.78 63.75 83.125 63.75H85.4688C85.8138 63.75 86.0938 64.03 86.0938 64.375C86.0938 64.72 85.8138 65 85.4688 65ZM96.875 60H90.625C90.28 60 90 59.72 90 59.375C90 59.03 90.28 58.75 90.625 58.75H96.875C97.22 58.75 97.5 59.03 97.5 59.375C97.5 59.72 97.2213 60 96.875 60ZM93.125 67.5H90.625C90.28 67.5 90 67.22 90 66.875C90 66.53 90.28 66.25 90.625 66.25H93.125C93.47 66.25 93.75 66.53 93.75 66.875C93.75 67.22 93.47 67.5 93.125 67.5Z" fill="white"/>
<path d="M72.6562 25.625C72.6562 25.625 68.1062 25.625 65 25.625C61.8938 25.625 59.375 23.1063 59.375 20C59.375 17.0837 61.6025 14.7137 64.4438 14.4312C64.4163 14.205 64.375 13.9838 64.375 13.75C64.375 10.6438 66.8938 8.125 70 8.125C71.7975 8.125 73.3788 8.9825 74.4088 10.295C74.5838 7 77.2862 4.375 80.625 4.375C84.0763 4.375 86.875 7.17375 86.875 10.625C86.875 11.1825 86.7788 11.7125 86.6413 12.2275C87.4438 11.2562 88.6413 10.625 90 10.625C92.2262 10.625 94.0425 12.2938 94.3188 14.4438C94.545 14.4163 94.7663 14.375 95 14.375C98.1063 14.375 100.625 16.8938 100.625 20C100.625 23.1063 98.1063 25.625 95 25.625C91.8937 25.625 83.125 25.625 83.125 25.625H76.4062V26.25H72.6562V25.625Z" fill="#FDFCEF"/>
<path d="M80.625 3.75C84.4163 3.75 87.5 6.83375 87.5 10.625C87.5 10.645 87.5 10.6638 87.5 10.6838C88.2525 10.24 89.1125 10 90 10C92.2887 10 94.2638 11.5762 94.8225 13.7562C94.8813 13.7525 94.94 13.75 95 13.75C98.4463 13.75 101.25 16.5538 101.25 20C101.25 23.4463 98.4463 26.25 95 26.25H76.4062C76.0613 26.25 75.7812 25.97 75.7812 25.625C75.7812 25.28 76.0613 25 76.4062 25H95C97.7575 25 100 22.7575 100 20C100 17.2425 97.7575 15 95 15C94.8537 15 94.7125 15.0212 94.5712 15.04L94.395 15.0638C94.3687 15.0675 94.3438 15.0688 94.3175 15.0688C94.01 15.0688 93.74 14.8375 93.6987 14.5225C93.46 12.6562 91.87 11.25 90 11.25C88.8937 11.25 87.8462 11.7513 87.1237 12.625C87.0012 12.7725 86.8225 12.8525 86.6413 12.8525C86.5438 12.8525 86.4462 12.83 86.3562 12.7825C86.095 12.6487 85.9638 12.35 86.0388 12.0662C86.1825 11.5225 86.25 11.065 86.25 10.625C86.25 7.52375 83.7262 5 80.625 5C77.6488 5 75.1913 7.34 75.0325 10.3288C75.0188 10.5888 74.845 10.8125 74.5963 10.8912C74.5338 10.9112 74.47 10.9212 74.4063 10.9212C74.2188 10.9212 74.0363 10.835 73.9163 10.6813C72.9525 9.45375 71.5262 8.75 70 8.75C67.2425 8.75 65 10.9925 65 13.75C65 13.8962 65.0213 14.0375 65.04 14.1788L65.0637 14.355C65.0837 14.5225 65.0362 14.69 64.9312 14.8213C64.8262 14.9525 64.6725 15.0363 64.5062 15.0525C61.9362 15.3088 60 17.4362 60 20C60 22.7575 62.2425 25 65 25H72.6562C73.0013 25 73.2812 25.28 73.2812 25.625C73.2812 25.97 73.0013 26.25 72.6562 26.25H65C61.5538 26.25 58.75 23.4463 58.75 20C58.75 17.0037 60.8612 14.4837 63.7537 13.9037C63.7512 13.8525 63.75 13.8013 63.75 13.75C63.75 10.3038 66.5538 7.5 70 7.5C71.47 7.5 72.8662 8.02 73.9787 8.955C74.7262 5.95 77.4312 3.75 80.625 3.75Z" fill="#472B29"/>
<path d="M82.5002 12.5C84.254 12.5 85.7615 13.7487 86.1415 15.4262C86.6002 15.1487 87.124 15 87.6565 15C89.159 15 90.404 16.1213 90.5977 17.585C90.8515 17.5275 91.0927 17.5 91.329 17.5C93.2402 17.5 94.8427 19 94.9765 20.915C94.9877 21.0875 94.8577 21.2375 94.6865 21.25C94.679 21.25 94.6715 21.25 94.664 21.25C94.5015 21.25 94.364 21.1237 94.3527 20.96C94.2415 19.3712 92.914 18.125 91.329 18.125C91.0427 18.125 90.7415 18.1775 90.4065 18.2838C90.379 18.2925 90.3502 18.2962 90.3227 18.2962C90.254 18.2962 90.1852 18.2713 90.1277 18.2288C90.0477 18.1713 90.0002 18.0687 90.0002 17.9688C90.0002 16.6762 88.949 15.625 87.6565 15.625C87.0977 15.625 86.5502 15.835 86.1177 16.2162C86.059 16.2675 85.9852 16.295 85.9115 16.295C85.8715 16.295 85.8327 16.2875 85.7952 16.2713C85.6852 16.2275 85.6102 16.125 85.6015 16.0063C85.4715 14.39 84.1102 13.125 82.5002 13.125C82.2402 13.125 81.969 13.1675 81.6477 13.2588C81.619 13.2675 81.589 13.2713 81.5602 13.2713C81.424 13.2713 81.3015 13.18 81.2615 13.0437C81.214 12.8775 81.3102 12.705 81.4765 12.6575C81.854 12.55 82.1802 12.5 82.5002 12.5ZM65.1465 14.375C66.804 14.375 68.2815 15.4962 68.739 17.1025C68.7865 17.2687 68.6902 17.4412 68.524 17.4887C68.494 17.4962 68.4652 17.5 68.4377 17.5C68.3015 17.5 68.1765 17.41 68.1377 17.2725C67.7565 15.935 66.5265 15 65.1465 15C65.0002 15 64.859 15.0175 64.719 15.0362C64.704 15.0387 64.6902 15.04 64.6752 15.04C64.524 15.04 64.389 14.925 64.3677 14.7688C64.344 14.5975 64.464 14.44 64.6352 14.4175C64.8027 14.395 64.9727 14.375 65.1465 14.375Z" fill="#472B29"/>
<path d="M23.125 70.625C23.125 70.625 25.0837 70.625 27.5 70.625C29.9163 70.625 31.875 68.6663 31.875 66.25C31.875 64.0238 30.2062 62.2075 28.0562 61.9312C28.0912 61.7075 28.125 61.4837 28.125 61.25C28.125 58.8338 26.1663 56.875 23.75 56.875C22.46 56.875 21.3125 57.4438 20.5125 58.3313C20.0325 56.0713 18.0287 54.375 15.625 54.375C12.8637 54.375 10.625 56.6137 10.625 59.375C10.625 59.6137 10.6625 59.8425 10.695 60.0725C10.16 59.6425 9.49 59.375 8.75 59.375C7.215 59.375 5.94375 60.4838 5.68125 61.9438C5.4575 61.9088 5.23375 61.875 5 61.875C2.58375 61.875 0.625 63.8337 0.625 66.25C0.625 68.6663 2.58375 70.625 5 70.625C7.41625 70.625 14.375 70.625 14.375 70.625V71.25H23.125V70.625Z" fill="#FDFCEF"/>
<path d="M25.3125 65C25.14 65 25 64.86 25 64.6875C25 63.1588 26.2438 61.915 27.7725 61.915C27.815 61.9263 28.6938 61.9138 29.3275 62.085C29.4938 62.13 29.5925 62.3013 29.5475 62.4675C29.5025 62.635 29.3313 62.7338 29.165 62.6875C28.61 62.5375 27.79 62.5375 27.7738 62.54C26.5887 62.54 25.625 63.5038 25.625 64.6875C25.625 64.86 25.485 65 25.3125 65ZM16.875 70C16.7092 70 16.5503 70.0659 16.4331 70.1831C16.3158 70.3003 16.25 70.4593 16.25 70.625C16.25 70.7908 16.3158 70.9498 16.4331 71.067C16.5503 71.1842 16.7092 71.25 16.875 71.25C17.0408 71.25 17.1997 71.1842 17.3169 71.067C17.4342 70.9498 17.5 70.7908 17.5 70.625C17.5 70.4593 17.4342 70.3003 17.3169 70.1831C17.1997 70.0659 17.0408 70 16.875 70Z" fill="#472B29"/>
<path d="M27.5 71.25H23.125C22.78 71.25 22.5 70.97 22.5 70.625C22.5 70.28 22.78 70 23.125 70H27.5C29.5675 70 31.25 68.3175 31.25 66.25C31.25 64.38 29.8438 62.79 27.9775 62.5513C27.81 62.5288 27.6587 62.4413 27.5575 62.3063C27.4562 62.1713 27.4137 62.0012 27.44 61.835C27.4688 61.6425 27.5 61.45 27.5 61.25C27.5 59.1825 25.8175 57.5 23.75 57.5C22.6875 57.5 21.7025 57.9437 20.9762 58.75C20.82 58.9237 20.575 58.9975 20.3512 58.935C20.1238 58.8737 19.95 58.6913 19.9012 58.4613C19.475 56.4563 17.6763 55 15.625 55C13.2125 55 11.25 56.9625 11.25 59.375C11.25 59.5538 11.2763 59.725 11.3013 59.8975C11.3375 60.1512 11.2225 60.445 10.9987 60.5725C10.775 60.7 10.5037 60.72 10.3038 60.56C9.8475 60.1938 9.31125 60 8.75 60C7.5425 60 6.51 60.8638 6.29625 62.055C6.23625 62.3888 5.92625 62.6125 5.585 62.5613C5.3925 62.5313 5.2 62.5 5 62.5C2.9325 62.5 1.25 64.1825 1.25 66.25C1.25 68.3175 2.9325 70 5 70H14.375C14.72 70 15 70.28 15 70.625C15 70.97 14.72 71.25 14.375 71.25H5C2.2425 71.25 0 69.0075 0 66.25C0 63.4925 2.2425 61.25 5 61.25C5.07375 61.25 5.145 61.2525 5.2175 61.2575C5.735 59.775 7.13875 58.75 8.75 58.75C9.18625 58.75 9.61125 58.8263 10.0138 58.975C10.22 56.0588 12.6575 53.75 15.625 53.75C17.9137 53.75 19.9575 55.1587 20.8162 57.2175C21.6663 56.595 22.6938 56.25 23.75 56.25C26.5075 56.25 28.75 58.4925 28.75 61.25C28.75 61.31 28.7488 61.3687 28.745 61.4275C30.9237 61.9875 32.5 63.9613 32.5 66.25C32.5 69.0075 30.2575 71.25 27.5 71.25Z" fill="#472B29"/>
<path d="M20.625 70C20.4262 70 19.5738 70 19.375 70C19.03 70 18.75 70.28 18.75 70.625C18.75 70.97 19.03 71.25 19.375 71.25C19.5738 71.25 20.4262 71.25 20.625 71.25C20.97 71.25 21.25 70.97 21.25 70.625C21.25 70.28 20.97 70 20.625 70Z" fill="#472B29"/>
<path d="M64.5012 40.5425V38.9313C64.5012 36.7075 66.3625 34.905 68.6562 34.905C70.95 34.905 72.8112 36.7087 72.8112 38.9313V66.3138H42.0612C42.0612 66.3138 33.75 55.0388 33.75 50.5613C33.75 44.2475 39.5675 42.9588 39.5675 42.9588V21.2138C39.5675 18.99 41.4288 17.1875 43.7225 17.1875C46.0175 17.1875 47.8775 18.9913 47.8775 21.2138V37.3212V35.71C47.8775 33.4863 49.7387 31.6838 52.0325 31.6838C54.3262 31.6838 56.1875 33.4875 56.1875 35.71V38.9313V37.32C56.1875 35.0962 58.0487 33.2937 60.3425 33.2937C62.6362 33.2937 64.4975 35.0975 64.4975 37.32V40.5425H64.5012Z" fill="#FFFEF4"/>
<path d="M72.8125 67.19H42.0612C41.7837 67.19 41.5212 67.0588 41.3575 66.8338C40.49 65.6563 32.875 55.1925 32.875 50.5613C32.875 44.9963 37.0212 42.9263 38.6925 42.3175V21.215C38.6925 18.5125 40.95 16.3125 43.7225 16.3125C46.4963 16.3125 48.7537 18.5125 48.7537 21.215V31.9975C49.635 31.2563 50.7825 30.8088 52.0337 30.8088C54.1625 30.8088 55.9862 32.1037 56.72 33.9275C57.635 32.9987 58.9225 32.42 60.345 32.42C62.4738 32.42 64.2975 33.7138 65.0313 35.5375C65.9475 34.6088 67.2337 34.03 68.6562 34.03C71.43 34.03 73.6875 36.23 73.6875 38.9325V66.315C73.6875 66.7975 73.2962 67.19 72.8125 67.19ZM42.505 65.44H71.9375V38.9325C71.9375 37.1938 70.4663 35.7812 68.6562 35.7812C66.8475 35.7812 65.3763 37.195 65.3763 38.9325V40.5438C65.3763 41.0275 64.985 41.4187 64.5013 41.4187C64.0175 41.4187 63.6263 41.0275 63.6263 40.5438V37.3225C63.6263 35.5838 62.155 34.1713 60.345 34.1713C58.5363 34.1713 57.065 35.585 57.065 37.3225V38.9325C57.065 39.4163 56.6737 39.8075 56.19 39.8075C55.7063 39.8075 55.315 39.4163 55.315 38.9325V35.7113C55.315 33.9725 53.8438 32.56 52.0337 32.56C50.225 32.56 48.7537 33.9738 48.7537 35.7113V37.3225C48.7537 37.8063 48.3625 38.1975 47.8788 38.1975C47.395 38.1975 47.0038 37.8063 47.0038 37.3225V21.215C47.0038 19.4763 45.5325 18.0638 43.7225 18.0638C41.9138 18.0638 40.4425 19.4775 40.4425 21.215V42.96C40.4425 43.37 40.1563 43.725 39.7563 43.815C39.5488 43.8625 34.625 45.0525 34.625 50.5625C34.625 53.8725 40.0825 62.0975 42.505 65.44Z" fill="#472B29"/>
<path d="M72.7498 65.0601V76.7188H40.8535V65.0601" fill="url(#paint0_linear)"/>
<path d="M72.7498 77.5937H40.8535C40.3698 77.5937 39.9785 77.2024 39.9785 76.7187V65.0599H41.7285V75.8437H71.8748V65.0599H73.6248V76.7187C73.6248 77.2024 73.2323 77.5937 72.7498 77.5937Z" fill="#472B29"/>
<path d="M64.975 68.2688C64.3053 68.2688 63.663 68.5348 63.1895 69.0084C62.716 69.4819 62.45 70.1241 62.45 70.7938C62.45 71.4635 62.716 72.1057 63.1895 72.5792C63.663 73.0528 64.3053 73.3188 64.975 73.3188C65.6446 73.3188 66.2869 73.0528 66.7604 72.5792C67.2339 72.1057 67.5 71.4635 67.5 70.7938C67.5 70.1241 67.2339 69.4819 66.7604 69.0084C66.2869 68.5348 65.6446 68.2688 64.975 68.2688Z" fill="#A3A3CD"/>
<path d="M64.975 73.6313C63.4112 73.6313 62.1375 72.3576 62.1375 70.7926C62.1375 69.2288 63.4112 67.9551 64.975 67.9551C66.5387 67.9551 67.8125 69.2288 67.8125 70.7926C67.8125 72.3588 66.5387 73.6313 64.975 73.6313ZM64.975 68.5813C63.755 68.5813 62.7625 69.5738 62.7625 70.7938C62.7625 72.0151 63.755 73.0076 64.975 73.0076C66.195 73.0076 67.1875 72.0151 67.1875 70.7938C67.1875 69.5738 66.195 68.5813 64.975 68.5813Z" fill="#472B29"/>
<path d="M48.125 60C47.78 60 47.5 59.72 47.5 59.375V43.125C47.5 42.78 47.78 42.5 48.125 42.5C48.47 42.5 48.75 42.78 48.75 43.125V59.375C48.75 59.72 48.47 60 48.125 60Z" fill="#472B29"/>
<path d="M59.375 66.25H44.375C44.03 66.25 43.75 65.97 43.75 65.625C43.75 65.28 44.03 65 44.375 65H59.375C59.72 65 60 65.28 60 65.625C60 65.97 59.72 66.25 59.375 66.25Z" fill="#472B29"/>
<path d="M65.625 66.25H63.125C62.78 66.25 62.5 65.97 62.5 65.625C62.5 65.28 62.78 65 63.125 65H65.625C65.97 65 66.25 65.28 66.25 65.625C66.25 65.97 65.97 66.25 65.625 66.25Z" fill="#472B29"/>
<path d="M73.125 66.25H69.375C69.03 66.25 68.75 65.97 68.75 65.625C68.75 65.28 69.03 65 69.375 65H73.125C73.47 65 73.75 65.28 73.75 65.625C73.75 65.97 73.47 66.25 73.125 66.25Z" fill="#472B29"/>
<path d="M56.875 52.5C56.53 52.5 56.25 52.22 56.25 51.875V43.125C56.25 42.78 56.53 42.5 56.875 42.5C57.22 42.5 57.5 42.78 57.5 43.125V51.875C57.5 52.22 57.22 52.5 56.875 52.5Z" fill="#472B29"/>
<path d="M64.375 53.75C64.03 53.75 63.75 53.47 63.75 53.125V45.625C63.75 45.28 64.03 45 64.375 45C64.72 45 65 45.28 65 45.625V53.125C65 53.47 64.72 53.75 64.375 53.75Z" fill="#472B29"/>
<path d="M56.875 60C56.53 60 56.25 59.72 56.25 59.375V55.625C56.25 55.28 56.53 55 56.875 55C57.22 55 57.5 55.28 57.5 55.625V59.375C57.5 59.72 57.22 60 56.875 60Z" fill="#472B29"/>
<defs>
<linearGradient id="paint0_linear" x1="40.8535" y1="70.8894" x2="72.7498" y2="70.8894" gradientUnits="userSpaceOnUse">
<stop stop-color="#16D9E3"/>
<stop offset="0.47" stop-color="#30C7EC"/>
<stop offset="1" stop-color="#46AEF7"/>
</linearGradient>
</defs>
</svg>
