<svg width="108" height="90" viewBox="0 0 108 90" fill="none" xmlns="http://www.w3.org/2000/svg">
<path d="M102.769 53.3875C104.187 50.6937 105 47.6312 105 44.375C105 36.0988 99.8013 29.0537 92.4987 26.2775C92.4987 26.2687 92.5 26.26 92.5 26.25C92.5 11.7525 80.7475 0 66.25 0C54.02 0 43.7738 8.37625 40.8587 19.6963C39.0138 19.09 37.0475 18.75 35 18.75C25.385 18.75 17.4713 25.9912 16.3875 35.315C9.8825 36.6912 5 42.4613 5 49.375C5 57.3138 11.4363 63.75 19.375 63.75C19.5962 63.75 19.815 63.735 20.0325 63.7225C20.0275 63.9412 20 64.155 20 64.375C20 78.5275 31.4725 90 45.625 90C53.6712 90 60.8437 86.285 65.5425 80.4825C68.265 83.2637 72.05 85 76.25 85C82.0625 85 87.0925 81.6875 89.5825 76.8525C90.8975 77.2713 92.2962 77.5 93.75 77.5C101.344 77.5 107.5 71.3438 107.5 63.75C107.5 59.6112 105.662 55.9087 102.769 53.3875Z" fill="#C7EDE6"/>
<path d="M93.5938 58.125C93.5938 58.125 98.1437 58.125 101.25 58.125C104.356 58.125 106.875 55.6063 106.875 52.5C106.875 49.5837 104.647 47.2137 101.806 46.9312C101.834 46.705 101.875 46.4838 101.875 46.25C101.875 43.1438 99.3563 40.625 96.25 40.625C94.4525 40.625 92.8713 41.4825 91.8412 42.795C91.6663 39.5 88.9638 36.875 85.625 36.875C82.1737 36.875 79.375 39.6738 79.375 43.125C79.375 43.6825 79.4712 44.2125 79.6087 44.7275C78.8062 43.7563 77.6075 43.125 76.25 43.125C74.0238 43.125 72.2075 44.7938 71.9312 46.9438C71.705 46.9163 71.4837 46.875 71.25 46.875C68.1438 46.875 65.625 49.3938 65.625 52.5C65.625 55.6063 68.1438 58.125 71.25 58.125C74.3562 58.125 83.125 58.125 83.125 58.125H89.8438V58.75H93.5938V58.125Z" fill="#FDFCEF"/>
<path d="M85.625 36.25C81.8337 36.25 78.75 39.3338 78.75 43.125C78.75 43.145 78.75 43.1638 78.75 43.1838C77.9975 42.74 77.1375 42.5 76.25 42.5C73.9613 42.5 71.9862 44.0763 71.4275 46.2563C71.3687 46.2525 71.31 46.25 71.25 46.25C67.8038 46.25 65 49.0538 65 52.5C65 55.9463 67.8038 58.75 71.25 58.75H89.8438C90.1887 58.75 90.4688 58.47 90.4688 58.125C90.4688 57.78 90.1887 57.5 89.8438 57.5H71.25C68.4925 57.5 66.25 55.2575 66.25 52.5C66.25 49.7425 68.4925 47.5 71.25 47.5C71.3962 47.5 71.5375 47.5213 71.6787 47.54L71.855 47.5637C71.8813 47.5675 71.9063 47.5688 71.9325 47.5688C72.24 47.5688 72.51 47.3375 72.5513 47.0225C72.79 45.1562 74.38 43.75 76.25 43.75C77.3562 43.75 78.4038 44.2512 79.1263 45.125C79.2488 45.2725 79.4275 45.3525 79.6087 45.3525C79.7062 45.3525 79.8038 45.33 79.8938 45.2825C80.155 45.1488 80.2862 44.85 80.2112 44.5662C80.0675 44.0225 80 43.565 80 43.125C80 40.0238 82.5238 37.5 85.625 37.5C88.6012 37.5 91.0587 39.84 91.2175 42.8288C91.2312 43.0888 91.405 43.3125 91.6537 43.3913C91.7162 43.4113 91.78 43.4212 91.8437 43.4212C92.0312 43.4212 92.2137 43.335 92.3337 43.1812C93.2975 41.9537 94.7237 41.25 96.25 41.25C99.0075 41.25 101.25 43.4925 101.25 46.25C101.25 46.3962 101.229 46.5375 101.21 46.6787L101.186 46.855C101.166 47.0225 101.214 47.19 101.319 47.3212C101.424 47.4525 101.577 47.5363 101.744 47.5525C104.314 47.8088 106.25 49.9362 106.25 52.5C106.25 55.2575 104.007 57.5 101.25 57.5H93.5938C93.2488 57.5 92.9688 57.78 92.9688 58.125C92.9688 58.47 93.2488 58.75 93.5938 58.75H101.25C104.696 58.75 107.5 55.9463 107.5 52.5C107.5 49.5037 105.389 46.9838 102.496 46.4038C102.499 46.3525 102.5 46.3013 102.5 46.25C102.5 42.8038 99.6963 40 96.25 40C94.78 40 93.3838 40.52 92.2713 41.455C91.5238 38.45 88.8188 36.25 85.625 36.25Z" fill="#472B29"/>
<path d="M83.75 45C81.9963 45 80.4887 46.2487 80.1087 47.9262C79.65 47.6487 79.1263 47.5 78.5938 47.5C77.0913 47.5 75.8463 48.6213 75.6525 50.085C75.3988 50.0275 75.1575 50 74.9225 50C73.0113 50 71.4088 51.5 71.275 53.415C71.2625 53.5875 71.3925 53.7375 71.5637 53.75C71.5712 53.75 71.5788 53.75 71.5863 53.75C71.7488 53.75 71.8863 53.6238 71.8975 53.46C72.0088 51.8713 73.3362 50.625 74.9212 50.625C75.2075 50.625 75.5088 50.6775 75.8438 50.7837C75.8713 50.7925 75.9 50.7963 75.9275 50.7963C75.9962 50.7963 76.065 50.7713 76.1225 50.7288C76.2025 50.6713 76.25 50.5687 76.25 50.4688C76.25 49.1762 77.3012 48.125 78.5938 48.125C79.1525 48.125 79.7 48.335 80.1325 48.7162C80.1913 48.7675 80.265 48.795 80.3388 48.795C80.3788 48.795 80.4175 48.7875 80.455 48.7712C80.565 48.7275 80.64 48.625 80.6487 48.5063C80.7787 46.89 82.14 45.625 83.75 45.625C84.01 45.625 84.2812 45.6675 84.6025 45.7587C84.6312 45.7675 84.6612 45.7713 84.69 45.7713C84.8262 45.7713 84.9487 45.68 84.9887 45.5438C85.0362 45.3775 84.94 45.205 84.7738 45.1575C84.3963 45.05 84.07 45 83.75 45ZM101.104 46.875C99.4463 46.875 97.9688 47.9962 97.5113 49.6025C97.4638 49.7687 97.56 49.9413 97.7263 49.9888C97.7563 49.9963 97.785 50 97.8125 50C97.9488 50 98.0737 49.91 98.1125 49.7725C98.4937 48.435 99.7238 47.5 101.104 47.5C101.25 47.5 101.391 47.5175 101.531 47.5362C101.546 47.5387 101.56 47.54 101.575 47.54C101.726 47.54 101.861 47.425 101.882 47.2687C101.906 47.0975 101.786 46.94 101.615 46.9175C101.448 46.895 101.278 46.875 101.104 46.875Z" fill="#472B29"/>
<path d="M13.0062 46.25H0.625C0.28 46.25 0 45.97 0 45.625C0 45.28 0.28 45 0.625 45H13.0062C13.3512 45 13.6312 45.28 13.6312 45.625C13.6312 45.97 13.3525 46.25 13.0062 46.25ZM16.875 46.25H15.625C15.28 46.25 15 45.97 15 45.625C15 45.28 15.28 45 15.625 45H16.875C17.22 45 17.5 45.28 17.5 45.625C17.5 45.97 17.2213 46.25 16.875 46.25ZM23.1137 48.75H11.875C11.53 48.75 11.25 48.47 11.25 48.125C11.25 47.78 11.53 47.5 11.875 47.5H23.1137C23.4587 47.5 23.7387 47.78 23.7387 48.125C23.7387 48.47 23.4587 48.75 23.1137 48.75ZM9.375 48.75H8.125C7.78 48.75 7.5 48.47 7.5 48.125C7.5 47.78 7.78 47.5 8.125 47.5H9.375C9.72 47.5 10 47.78 10 48.125C10 48.47 9.72125 48.75 9.375 48.75ZM5.625 48.75H3.125C2.78 48.75 2.5 48.47 2.5 48.125C2.5 47.78 2.78 47.5 3.125 47.5H5.625C5.97 47.5 6.25 47.78 6.25 48.125C6.25 48.47 5.97125 48.75 5.625 48.75ZM13.125 51.25H10.625C10.28 51.25 10 50.97 10 50.625C10 50.28 10.28 50 10.625 50H13.125C13.47 50 13.75 50.28 13.75 50.625C13.75 50.97 13.47 51.25 13.125 51.25ZM16.875 40C16.6537 40 15.8462 40 15.625 40C15.28 40 15 40.28 15 40.625C15 40.97 15.28 41.25 15.625 41.25C15.8462 41.25 16.6537 41.25 16.875 41.25C17.22 41.25 17.5 40.97 17.5 40.625C17.5 40.28 17.22 40 16.875 40ZM16.875 42.5C16.6537 42.5 10.8462 42.5 10.625 42.5C10.28 42.5 10 42.78 10 43.125C10 43.47 10.28 43.75 10.625 43.75C10.8462 43.75 16.6537 43.75 16.875 43.75C17.22 43.75 17.5 43.47 17.5 43.125C17.5 42.78 17.22 42.5 16.875 42.5ZM23.125 45C22.9037 45 19.5963 45 19.375 45C19.03 45 18.75 45.28 18.75 45.625C18.75 45.97 19.03 46.25 19.375 46.25C19.5963 46.25 22.9037 46.25 23.125 46.25C23.47 46.25 23.75 45.97 23.75 45.625C23.75 45.28 23.47 45 23.125 45Z" fill="white"/>
<path d="M84.375 12.5H71.875C71.53 12.5 71.25 12.22 71.25 11.875C71.25 11.53 71.53 11.25 71.875 11.25H84.375C84.72 11.25 85 11.53 85 11.875C85 12.22 84.72 12.5 84.375 12.5ZM89.375 12.5H86.875C86.53 12.5 86.25 12.22 86.25 11.875C86.25 11.53 86.53 11.25 86.875 11.25H89.375C89.72 11.25 90 11.53 90 11.875C90 12.22 89.72 12.5 89.375 12.5ZM95.625 15H83.125C82.78 15 82.5 14.72 82.5 14.375C82.5 14.03 82.78 13.75 83.125 13.75H95.625C95.97 13.75 96.25 14.03 96.25 14.375C96.25 14.72 95.9713 15 95.625 15ZM80.625 15H79.375C79.03 15 78.75 14.72 78.75 14.375C78.75 14.03 79.03 13.75 79.375 13.75H80.625C80.97 13.75 81.25 14.03 81.25 14.375C81.25 14.72 80.97 15 80.625 15ZM76.7188 15H74.375C74.03 15 73.75 14.72 73.75 14.375C73.75 14.03 74.03 13.75 74.375 13.75H76.7188C77.0637 13.75 77.3438 14.03 77.3438 14.375C77.3438 14.72 77.0637 15 76.7188 15ZM88.125 10H81.875C81.53 10 81.25 9.72 81.25 9.375C81.25 9.03 81.53 8.75 81.875 8.75H88.125C88.47 8.75 88.75 9.03 88.75 9.375C88.75 9.72 88.4713 10 88.125 10ZM84.375 17.5H81.875C81.53 17.5 81.25 17.22 81.25 16.875C81.25 16.53 81.53 16.25 81.875 16.25H84.375C84.72 16.25 85 16.53 85 16.875C85 17.22 84.72 17.5 84.375 17.5Z" fill="white"/>
<path d="M40 71.625C34.9687 71.625 30.875 67.5325 30.875 62.5V27.5C30.875 22.4687 34.9675 18.375 40 18.375H75C80.0312 18.375 84.125 22.4675 84.125 27.5V62.5C84.125 67.5312 80.0325 71.625 75 71.625H40Z" fill="url(#paint0_linear)"/>
<path d="M75 19.25C79.5488 19.25 83.25 22.9513 83.25 27.5V62.5C83.25 67.0488 79.5488 70.75 75 70.75H40C35.4513 70.75 31.75 67.0488 31.75 62.5V27.5C31.75 22.9513 35.4513 19.25 40 19.25H75ZM75 17.5H40C34.4775 17.5 30 21.9775 30 27.5V62.5C30 68.0225 34.4775 72.5 40 72.5H75C80.5225 72.5 85 68.0225 85 62.5V27.5C85 21.9775 80.5225 17.5 75 17.5Z" fill="#472B29"/>
<path d="M79.3064 41.8888C78.9614 41.8888 78.6814 41.6088 78.6814 41.2638V36.6313C78.6814 36.2863 78.9614 36.0063 79.3064 36.0063C79.6514 36.0063 79.9314 36.2863 79.9314 36.6313V41.2638C79.9314 41.6088 79.6526 41.8888 79.3064 41.8888Z" fill="#472B29"/>
<path d="M79.385 33.825C79.04 33.825 78.76 33.545 78.76 33.2V30.8087C78.76 30.4637 79.04 30.1837 79.385 30.1837C79.73 30.1837 80.01 30.4637 80.01 30.8087V33.2C80.01 33.545 79.73 33.825 79.385 33.825Z" fill="#472B29"/>
<path d="M74.0636 67.4225H41.0149C37.7411 67.4225 35.0786 64.7588 35.0786 61.4862V28.4363C35.0786 25.1638 37.7411 22.5 41.0149 22.5H70.9661C71.3111 22.5 71.5911 22.78 71.5911 23.125C71.5911 23.47 71.3111 23.75 70.9661 23.75H41.0149C38.4311 23.75 36.3286 25.8525 36.3286 28.4363V61.485C36.3286 64.0687 38.4311 66.1712 41.0149 66.1712H74.0636C76.6474 66.1712 78.7499 64.0687 78.7499 61.485V44.5175C78.7499 44.1725 79.0299 43.8925 79.3749 43.8925C79.7199 43.8925 79.9999 44.1725 79.9999 44.5175V61.485C79.9999 64.7588 77.3361 67.4225 74.0636 67.4225Z" fill="#472B29"/>
<path d="M39.375 74.375C39.375 74.375 41.3337 74.375 43.75 74.375C46.1663 74.375 48.125 72.4163 48.125 70C48.125 67.7738 46.4562 65.9575 44.3062 65.6812C44.3412 65.4575 44.375 65.2337 44.375 65C44.375 62.5838 42.4163 60.625 40 60.625C38.71 60.625 37.5625 61.1938 36.7625 62.0813C36.2825 59.8213 34.2787 58.125 31.875 58.125C29.1137 58.125 26.875 60.3637 26.875 63.125C26.875 63.3637 26.9125 63.5925 26.945 63.8225C26.41 63.3925 25.74 63.125 25 63.125C23.465 63.125 22.1937 64.2338 21.9313 65.6938C21.7075 65.6588 21.4837 65.625 21.25 65.625C18.8338 65.625 16.875 67.5837 16.875 70C16.875 72.4163 18.8338 74.375 21.25 74.375C23.6662 74.375 30.625 74.375 30.625 74.375V75H39.375V74.375Z" fill="#FDFCEF"/>
<path d="M41.5625 68.75C41.39 68.75 41.25 68.61 41.25 68.4375C41.25 66.9088 42.4937 65.665 44.0225 65.665C44.065 65.6763 44.9438 65.6638 45.5775 65.835C45.7438 65.88 45.8425 66.0513 45.7975 66.2175C45.7525 66.385 45.5813 66.4838 45.415 66.4375C44.86 66.2875 44.04 66.2875 44.0238 66.29C42.8388 66.29 41.875 67.2538 41.875 68.4375C41.875 68.61 41.735 68.75 41.5625 68.75ZM33.125 73.75C32.9592 73.75 32.8003 73.8159 32.6831 73.9331C32.5658 74.0503 32.5 74.2093 32.5 74.375C32.5 74.5408 32.5658 74.6998 32.6831 74.817C32.8003 74.9342 32.9592 75 33.125 75C33.2908 75 33.4497 74.9342 33.5669 74.817C33.6842 74.6998 33.75 74.5408 33.75 74.375C33.75 74.2093 33.6842 74.0503 33.5669 73.9331C33.4497 73.8159 33.2908 73.75 33.125 73.75Z" fill="#472B29"/>
<path d="M43.75 75H39.375C39.03 75 38.75 74.72 38.75 74.375C38.75 74.03 39.03 73.75 39.375 73.75H43.75C45.8175 73.75 47.5 72.0675 47.5 70C47.5 68.13 46.0938 66.54 44.2275 66.3013C44.06 66.2788 43.9088 66.1913 43.8075 66.0563C43.7063 65.9213 43.6637 65.7513 43.69 65.585C43.7188 65.3925 43.75 65.2 43.75 65C43.75 62.9325 42.0675 61.25 40 61.25C38.9375 61.25 37.9525 61.6937 37.2262 62.5C37.07 62.6737 36.825 62.7475 36.6012 62.685C36.3737 62.6238 36.2 62.4413 36.1513 62.2113C35.725 60.2063 33.9263 58.75 31.875 58.75C29.4625 58.75 27.5 60.7125 27.5 63.125C27.5 63.3038 27.5263 63.475 27.5513 63.6475C27.5875 63.9012 27.4725 64.195 27.2487 64.3225C27.025 64.45 26.7537 64.47 26.5538 64.31C26.0975 63.9437 25.5612 63.75 25 63.75C23.7925 63.75 22.76 64.6137 22.5463 65.805C22.4863 66.1387 22.1763 66.3625 21.835 66.3113C21.6425 66.2813 21.45 66.25 21.25 66.25C19.1825 66.25 17.5 67.9325 17.5 70C17.5 72.0675 19.1825 73.75 21.25 73.75H30.625C30.97 73.75 31.25 74.03 31.25 74.375C31.25 74.72 30.97 75 30.625 75H21.25C18.4925 75 16.25 72.7575 16.25 70C16.25 67.2425 18.4925 65 21.25 65C21.3238 65 21.395 65.0025 21.4675 65.0075C21.985 63.525 23.3888 62.5 25 62.5C25.4362 62.5 25.8612 62.5763 26.2638 62.725C26.47 59.8088 28.9075 57.5 31.875 57.5C34.1637 57.5 36.2075 58.9087 37.0662 60.9675C37.9163 60.345 38.9438 60 40 60C42.7575 60 45 62.2425 45 65C45 65.06 44.9987 65.1187 44.995 65.1775C47.1737 65.7375 48.75 67.7113 48.75 70C48.75 72.7575 46.5075 75 43.75 75Z" fill="#472B29"/>
<path d="M36.875 73.75C36.6762 73.75 35.8238 73.75 35.625 73.75C35.28 73.75 35 74.03 35 74.375C35 74.72 35.28 75 35.625 75C35.8238 75 36.6762 75 36.875 75C37.22 75 37.5 74.72 37.5 74.375C37.5 74.03 37.22 73.75 36.875 73.75Z" fill="#472B29"/>
<path d="M54.2499 56.9288C53.8037 56.9288 53.3549 56.7675 52.9999 56.445L41.8574 45.3025C41.0987 44.6138 41.0437 43.4375 41.7324 42.6788C42.4224 41.9225 43.5962 41.8638 44.3562 42.5538L54.2249 52.5388L70.6174 36.0775C71.3624 35.3738 72.5362 35.405 73.2424 36.1525C73.9474 36.8988 73.9137 38.0725 73.1674 38.7775L55.5237 56.4213C55.1674 56.7588 54.7087 56.9288 54.2499 56.9288Z" fill="#FEFDEF"/>
<path d="M54.25 57.2412C53.7088 57.2412 53.19 57.0412 52.79 56.6762L41.6363 45.5225C41.2188 45.1437 40.9675 44.6112 40.94 44.0312C40.9125 43.4525 41.1125 42.8975 41.5025 42.4687C42.3088 41.585 43.6825 41.5187 44.5663 42.3237L54.2263 52.0962L70.3975 35.8575C70.825 35.4537 71.3725 35.2112 71.9538 35.2587C72.5338 35.275 73.0725 35.5162 73.47 35.9375C73.8675 36.3587 74.0788 36.91 74.0625 37.4887C74.0463 38.0675 73.805 38.6062 73.3838 39.005L55.7463 56.6412C55.3363 57.03 54.8075 57.2412 54.25 57.2412ZM43.1125 42.3825C42.6925 42.3825 42.27 42.5525 41.9638 42.8875C41.6863 43.1925 41.545 43.5887 41.5638 44.0012C41.5825 44.4137 41.7613 44.7937 42.0663 45.0687L53.22 56.2237C53.7763 56.7275 54.7425 56.7287 55.3075 56.1937L72.945 38.5575C73.57 37.965 73.5975 36.9862 73.0138 36.3675C72.7288 36.0675 72.3475 35.895 71.935 35.8837C71.5263 35.8562 71.1313 36.0212 70.8313 36.305L54.225 52.9825L44.1338 42.7737C43.8463 42.5125 43.48 42.3825 43.1125 42.3825Z" fill="#472B29"/>
<defs>
<linearGradient id="paint0_linear" x1="30.875" y1="45" x2="84.125" y2="45" gradientUnits="userSpaceOnUse">
<stop stop-color="#16D9E3"/>
<stop offset="0.47" stop-color="#30C7EC"/>
<stop offset="1" stop-color="#46AEF7"/>
</linearGradient>
</defs>
</svg>
