<svg width="285" height="207" viewBox="0 0 285 207" fill="none" xmlns="http://www.w3.org/2000/svg">
<path fill-rule="evenodd" clip-rule="evenodd" d="M166.943 1.30958C165.48 3.41061 164.089 11.2113 162.825 24.4047C162.244 30.4568 161.173 36.5073 160.442 37.8507C158.606 41.2275 150.259 48.3765 137.841 57.2074C108.098 78.3604 103.343 81.9821 98.8093 86.9434V86.9434C95.646 90.4055 93.8919 94.9256 93.8919 99.6153V119.715C93.8919 134.779 94.1896 158.575 94.5542 172.595L95.0841 193.022C95.1678 196.249 96.5992 199.294 99.031 201.417V201.417C102.069 204.069 103.718 204.845 107.11 205.22C109.454 205.479 140.466 206.048 176.026 206.484C240.133 207.27 240.715 207.264 244.669 205.714C250.298 203.507 255.77 199.623 257.353 196.712C258.095 195.346 258.702 192.087 258.702 189.469C258.702 185.632 258.139 183.941 255.799 180.754V180.754C254.252 178.649 254.89 175.667 257.161 174.378L257.547 174.158C267.432 168.545 270.731 158.975 265.338 151.558C262.119 147.133 262.071 146.311 264.945 144.863C276.417 139.086 279.75 128.915 273.148 119.837C271.204 117.164 270.915 116.226 271.901 115.797C281.605 111.565 285.008 107.316 285 99.4413C284.994 93.3094 283.625 90.6802 278.514 86.9948C272.209 82.4473 273.427 82.5671 230.734 82.2976C209.034 82.161 190.278 81.8838 189.052 81.6827V81.6827C187.957 81.5023 187.36 80.3013 187.879 79.3194L188.947 77.2965C198.541 59.118 202.161 49.551 203.876 37.8407C205.243 28.51 204.041 19.0343 200.747 13.1481C196.549 5.64826 187.257 0.997922 174.875 0.200347C168.7 -0.19729 167.916 -0.0875172 166.943 1.30958ZM10.447 83.5481C8.22653 84.3226 5.26494 86.003 3.86555 87.2811C1.44834 89.4881 1.28852 90.215 0.664239 101.783C0.302655 108.482 0.00499275 132.559 0.00299505 155.289L0.000326655 192.108C0.000116759 195.005 1.1 197.793 3.07746 199.909V199.909C4.76951 201.72 7.35354 203.655 8.82085 204.209C11.9792 205.402 47.4874 206.161 60.6702 205.318C68.8298 204.795 69.2223 204.679 73.4984 201.53V201.53C76.2725 199.487 77.9103 196.248 77.9103 192.803V144.102V95.922C77.9103 92.1656 76.0655 88.6487 72.975 86.5135V86.5135C68.4402 83.38 67.4863 83.0629 61.2385 82.6093C57.4978 82.3383 45.4477 82.1211 34.4603 82.1272C17.2322 82.1372 13.928 82.3322 10.447 83.5481Z" fill="white"/>
</svg>
