<svg width="285" height="207" viewBox="0 0 285 207" fill="none" xmlns="http://www.w3.org/2000/svg">
<path d="M168.797 24.9772L168.797 24.9774C168.493 28.1473 168.06 31.3319 167.598 33.9401C167.367 35.2397 167.12 36.4564 166.863 37.4863C166.656 38.3152 166.303 39.632 165.714 40.7159L165.714 40.7165C164.861 42.2845 163.541 43.8308 162.206 45.2184C160.793 46.6863 159.035 48.3087 157.013 50.0408C152.963 53.5097 147.617 57.6182 141.319 62.097C111.276 83.4625 107.225 86.6284 103.238 90.9909C101.086 93.3473 99.8919 96.4236 99.8919 99.6153V119.715C99.8919 134.731 100.189 158.474 100.552 172.439L100.552 172.439L101.082 192.866C101.122 194.416 101.809 195.878 102.977 196.897L168.797 24.9772ZM168.797 24.9772C169.423 18.4491 170.068 13.3826 170.716 9.7507C170.997 8.1761 171.265 6.94572 171.511 6.02327C172.272 6.05209 173.235 6.10719 174.489 6.18794C185.815 6.91741 192.704 11.0639 195.511 16.0783C197.946 20.4292 199.189 28.4402 197.94 36.9712C196.371 47.6856 193.115 56.5444 183.64 74.4957M168.797 24.9772L188.947 77.2964L183.64 74.4957M250.962 184.305C247.291 179.306 248.804 172.222 254.198 169.16L254.584 168.941C254.584 168.941 254.584 168.941 254.584 168.941C258.549 166.689 260.689 163.932 261.499 161.579C262.259 159.376 262.008 157.182 260.485 155.087C259.67 153.966 258.893 152.856 258.304 151.824C257.774 150.896 256.978 149.34 256.867 147.445C256.726 145.034 257.711 143.044 259.096 141.658C260.181 140.572 261.48 139.89 262.246 139.505L262.246 139.504C266.985 137.118 269.309 134.201 270.123 131.719C270.883 129.399 270.626 126.571 268.295 123.366L268.295 123.365C267.412 122.152 266.225 120.47 265.692 118.744C265.389 117.76 265.021 115.907 265.889 113.876C266.794 111.757 268.479 110.743 269.503 110.297C274.044 108.316 276.256 106.674 277.409 105.234C278.387 104.014 279.003 102.443 279 99.4471C278.997 96.7562 278.677 95.7011 278.35 95.0731C278.012 94.4235 277.288 93.508 275.005 91.8612L274.791 91.7071C273.172 90.5393 272.671 90.1774 271.979 89.8735C271.361 89.602 270.294 89.2699 267.683 89.0132C262.428 88.4966 253.016 88.4376 233.126 88.3128L230.697 88.2975C219.834 88.2291 209.703 88.1255 202.127 88.0137C198.341 87.9578 195.181 87.8997 192.882 87.8426C191.735 87.8141 190.782 87.7853 190.064 87.7564L190.027 87.7549C189.517 87.7345 188.671 87.7005 188.081 87.6035L189.05 81.6949L188.077 87.6029C182.939 86.7566 180.142 81.1237 182.573 76.5186L183.64 74.4957M250.962 184.305L183.64 74.4957M250.962 184.305C251.995 185.712 252.294 186.34 252.436 186.764C252.572 187.174 252.702 187.812 252.702 189.469C252.702 190.362 252.594 191.46 252.407 192.461C252.316 192.952 252.217 193.356 252.129 193.65C252.094 193.769 252.066 193.849 252.049 193.896C252.021 193.937 251.975 194.001 251.904 194.09C251.765 194.262 251.566 194.486 251.293 194.753C250.741 195.294 249.989 195.921 249.055 196.584C247.178 197.917 244.832 199.205 242.479 200.128L244.537 205.377L242.479 200.128L242.448 200.14C241.733 200.42 241.457 200.529 240.529 200.647C239.295 200.805 237.156 200.927 232.837 200.976C224.275 201.072 208.204 200.879 176.1 200.485M250.962 184.305L176.1 200.485M176.1 200.485C176.1 200.485 176.1 200.485 176.1 200.485L176.031 206.136L176.1 200.485ZM107.761 199.256C106.426 199.107 105.886 198.929 105.493 198.744C105.028 198.525 104.35 198.096 102.977 196.898L107.761 199.256ZM107.761 199.256C107.764 199.256 107.767 199.256 107.77 199.257L107.11 205.217L107.768 199.256C107.765 199.256 107.763 199.256 107.761 199.256ZM12.4256 89.2125L12.4231 89.2133C10.7915 89.7825 8.58697 91.0948 7.91188 91.7114L7.9111 91.7121C7.70489 91.9004 7.57834 92.0232 7.50476 92.0971C7.49023 92.1499 7.47217 92.2214 7.45155 92.3148C7.16467 93.6146 6.98145 96.0671 6.65552 102.107L6.65552 102.107C6.30434 108.612 6.005 132.518 6.003 155.29L6.00033 192.109C6.00023 193.484 6.52241 194.808 7.46122 195.812L3.14297 199.848L7.46147 195.812C8.02869 196.419 8.82394 197.124 9.62973 197.727C10.0238 198.023 10.3734 198.258 10.6503 198.426C10.7085 198.461 10.7589 198.49 10.8016 198.515C11.0781 198.558 11.4813 198.609 12.0273 198.665C13.1964 198.785 14.7921 198.903 16.7408 199.014C20.6247 199.234 25.6955 199.413 31.1146 199.528C42.0131 199.761 53.9685 199.734 60.287 199.33M12.4256 89.2125L60.6702 205.318M12.4256 89.2125C14.7062 88.4158 16.7379 88.1375 34.4637 88.1272M12.4256 89.2125L73.4984 201.53M60.287 199.33L60.6702 205.318M60.287 199.33C60.2869 199.33 60.2867 199.33 60.2866 199.33L60.6702 205.318M60.287 199.33C64.6474 199.051 65.9863 198.907 66.8417 198.654C67.3372 198.508 67.7042 198.346 69.9406 196.699L73.4984 201.53M60.6702 205.318C68.8298 204.795 69.2223 204.679 73.4984 201.53M73.4984 201.53L69.9408 196.699C71.1792 195.787 71.9103 194.34 71.9103 192.803V144.102V95.922C71.9103 94.1365 71.0334 92.4648 69.5644 91.4499L72.965 86.528L69.5642 91.4497C67.2638 89.8601 66.5313 89.4746 65.8554 89.2497C65.0922 88.9959 64.0355 88.8282 60.805 88.5936C57.3174 88.3409 45.4834 88.121 34.4637 88.1272M34.4637 88.1272L34.4603 82.1272L34.4637 88.1272ZM171.867 4.73831C171.867 4.73772 171.868 4.73711 171.868 4.73656L171.866 4.73871L171.867 4.73831ZM10.5221 198.465C10.5222 198.465 10.5288 198.466 10.5413 198.469C10.5281 198.467 10.5219 198.465 10.5221 198.465ZM7.54356 91.973C7.54358 91.9731 7.54266 91.9757 7.54066 91.9805C7.54255 91.9753 7.54354 91.973 7.54356 91.973Z" stroke="white" stroke-width="12"/>
</svg>
