<svg width="50" height="37" viewBox="0 0 50 37" fill="none" xmlns="http://www.w3.org/2000/svg">
<path fill-rule="evenodd" clip-rule="evenodd" d="M48.913 32.6087H1.08696C0.48587 32.6087 0 32.1228 0 31.5217V1.08696C0 0.486957 0.48587 0 1.08696 0H48.913C49.5141 0 50 0.486957 50 1.08696V31.5217C50 32.1228 49.5141 32.6087 48.913 32.6087ZM47.8261 2.17391H2.17391V30.4348H47.8261V2.17391ZM21.7391 9.78261C21.9717 9.78261 22.1739 9.87174 22.3511 9.99565L30.7978 15.2913C31.2174 15.4402 31.5217 15.8326 31.5217 16.3043C31.5217 16.6576 31.3424 16.9576 31.0815 17.1554L22.4141 22.5696C22.2272 22.7217 21.9978 22.8261 21.7391 22.8261C21.138 22.8261 20.6522 22.3402 20.6522 21.7391V10.8696C20.6522 10.2696 21.138 9.78261 21.7391 9.78261ZM15.2174 34.7826H34.7826C35.3837 34.7826 35.8696 35.2685 35.8696 35.8696C35.8696 36.4706 35.3837 36.9565 34.7826 36.9565H15.2174C14.6163 36.9565 14.1304 36.4706 14.1304 35.8696C14.1304 35.2685 14.6163 34.7826 15.2174 34.7826Z" fill="white"/>
</svg>
