<svg width="130" height="168" viewBox="0 0 130 168" fill="none" xmlns="http://www.w3.org/2000/svg">
<path d="M20.5216 154.474L19.5271 156.017C18.228 158.059 16.2612 159.588 13.9613 160.344L1.42327 164.782C0.292648 165.131 0.428736 166.792 1.61519 166.792H3.18549C3.28634 166.932 3.41929 167.045 3.57283 167.122C3.72672 167.199 3.89665 167.238 4.06834 167.236C4.42428 167.22 4.76381 167.083 5.03147 166.848C5.05938 166.82 5.08729 166.82 5.11521 166.792H5.33505C5.36297 166.82 5.41881 166.82 5.44672 166.876C5.55001 166.995 5.67669 167.091 5.81907 167.158C5.96179 167.224 6.11672 167.26 6.27375 167.263C6.60526 167.244 6.92212 167.122 7.18105 166.915C7.20792 166.89 7.23932 166.871 7.27387 166.858C7.30807 166.846 7.34471 166.842 7.381 166.844C7.41729 166.847 7.45253 166.857 7.48498 166.874C7.51708 166.891 7.5457 166.914 7.56838 166.942C7.64865 167.039 7.7495 167.117 7.86361 167.169C7.97771 167.222 8.10229 167.248 8.22792 167.246C8.50673 167.233 8.77542 167.137 8.9991 166.97C9.05214 166.937 9.11496 166.92 9.17777 166.925C9.24058 166.929 9.30025 166.954 9.34805 166.995C9.51311 167.15 9.72911 167.239 9.95523 167.246C10.1074 167.245 10.2564 167.203 10.3873 167.125C10.5178 167.047 10.6252 166.936 10.6985 166.803H10.8102L26.3213 166.573C27.8079 166.545 28.9106 166.077 29.5457 164.919L29.6015 156.746L20.5216 154.474Z" fill="#FC9D9D"/>
<path opacity="0.15" d="M1.09217 164.918C1.12008 164.89 1.17558 164.862 1.2 164.838C1.26316 164.805 1.32842 164.777 1.39542 164.754L1.64352 164.67H1.67109C1.71261 164.691 1.74925 164.719 1.77926 164.754C1.87941 164.876 2.00574 164.974 2.14881 165.041C2.29223 165.107 2.44856 165.14 2.60629 165.138C2.93884 165.138 3.26129 165.022 3.51742 164.81C3.5736 164.767 3.64374 164.746 3.71458 164.751C3.78507 164.756 3.85172 164.787 3.90092 164.838C3.98223 164.934 4.08378 165.011 4.19859 165.063C4.3134 165.115 4.43831 165.14 4.56429 165.138C4.84345 165.127 5.11249 165.031 5.33513 164.862C5.38922 164.83 5.45168 164.815 5.51414 164.82C5.57696 164.825 5.63628 164.85 5.68408 164.89C5.77795 164.983 5.89206 165.053 6.01768 165.095C6.14296 165.137 6.27627 165.149 6.40713 165.13C6.53799 165.112 6.66291 165.063 6.77178 164.988C6.88066 164.913 6.97069 164.814 7.03454 164.698H7.14272L14.8058 164.576L13.1936 160.619C14.1257 162.127 15.3191 163.456 16.7181 164.545L22.6748 164.45C24.1613 164.423 25.264 163.955 25.8991 162.796C26.2788 162.124 26.4163 161.341 26.2893 160.58C26.1623 159.818 25.7784 159.122 25.2012 158.609L20.5357 154.46L27.4485 156.334L29.5422 156.683V164.932C28.9071 166.091 27.7975 166.558 26.3179 166.586L10.8036 166.834H10.692C10.6187 166.967 10.5109 167.078 10.3803 167.156C10.2498 167.234 10.1005 167.276 9.94868 167.277C9.72221 167.27 9.50656 167.18 9.3415 167.026C9.29404 166.984 9.23402 166.958 9.17086 166.954C9.1077 166.95 9.04489 166.966 8.99255 167.001C8.76712 167.168 8.49738 167.264 8.21751 167.277C8.09189 167.279 7.96731 167.253 7.8532 167.2C7.73909 167.148 7.63824 167.07 7.55798 166.973C7.5353 166.945 7.50705 166.922 7.47459 166.905C7.44249 166.888 7.40689 166.878 7.37059 166.875C7.3343 166.873 7.29766 166.877 7.26346 166.889C7.22891 166.902 7.19751 166.921 7.17064 166.945C6.91207 167.153 6.59486 167.275 6.2637 167.294C6.10633 167.291 5.9514 167.255 5.80902 167.189C5.6663 167.122 5.53962 167.026 5.43668 166.907C5.40876 166.851 5.35293 166.851 5.32501 166.823H5.10517C5.07725 166.851 5.04934 166.851 5.02142 166.879C4.75342 167.114 4.41388 167.25 4.0583 167.267C3.88626 167.269 3.71633 167.23 3.56244 167.153C3.4089 167.076 3.27593 166.963 3.17509 166.823H1.60478C0.540464 166.802 0.320974 165.469 1.09217 164.918Z" fill="black"/>
<path d="M0.76016 167.978H29.2001C29.3013 167.978 29.4018 167.959 29.4953 167.92C29.5889 167.881 29.6736 167.824 29.7455 167.753C29.8171 167.681 29.8739 167.596 29.9127 167.502C29.9514 167.409 29.9713 167.308 29.9713 167.207C29.9713 167.106 29.9514 167.006 29.9127 166.912C29.8739 166.818 29.8171 166.734 29.7455 166.662C29.6736 166.59 29.5889 166.533 29.4953 166.495C29.4018 166.456 29.3013 166.436 29.2001 166.436H0.0168819V167.207C0.0147877 167.408 0.091898 167.601 0.230783 167.745C0.369667 167.889 0.559858 167.973 0.76016 167.978Z" fill="url(#paint0_linear)"/>
<path d="M0.0170307 166.454C0.0463448 165.66 0.314348 164.893 0.786486 164.253C1.25828 163.614 1.91187 163.132 2.66213 162.87L12.084 159.59C12.1775 159.553 12.278 159.537 12.3785 159.543C12.4786 159.549 12.5767 159.576 12.6653 159.623C12.7543 159.67 12.8318 159.736 12.8928 159.815C12.9539 159.895 12.9972 159.987 13.0192 160.085C13.4344 161.464 14.4534 164.412 16.4668 166.454H29.2003C29.3018 166.453 29.4023 166.473 29.4962 166.512C29.5897 166.55 29.6752 166.607 29.7467 166.679C29.8183 166.75 29.8751 166.835 29.9139 166.929C29.9523 167.023 29.9722 167.124 29.9715 167.225C29.9739 167.327 29.9558 167.428 29.9177 167.523C29.8797 167.617 29.8231 167.704 29.7509 167.775C29.679 167.848 29.5928 167.904 29.4983 167.942C29.4037 167.98 29.3022 167.998 29.2003 167.996H0.760311C0.56315 167.996 0.374371 167.918 0.234789 167.778C0.0955544 167.639 0.0170307 167.45 0.0170307 167.253V166.454Z" fill="url(#paint1_linear)"/>
<path d="M0.0170307 166.454C0.0463448 165.66 0.314348 164.893 0.786486 164.253C1.25828 163.614 1.91187 163.132 2.66213 162.87L12.084 159.59C12.1775 159.553 12.278 159.537 12.3785 159.543C12.4786 159.549 12.5767 159.576 12.6653 159.623C12.7543 159.67 12.8318 159.736 12.8928 159.815C12.9539 159.895 12.9972 159.987 13.0192 160.085C13.4344 161.464 14.4534 164.412 16.4668 166.454H29.2003C29.3018 166.453 29.4023 166.473 29.4962 166.512C29.5897 166.55 29.6752 166.607 29.7467 166.679C29.8183 166.75 29.8751 166.835 29.9139 166.929C29.9523 167.023 29.9722 167.124 29.9715 167.225C29.9739 167.327 29.9558 167.428 29.9177 167.523C29.8797 167.617 29.8231 167.704 29.7509 167.775C29.679 167.848 29.5928 167.904 29.4983 167.942C29.4037 167.98 29.3022 167.998 29.2003 167.996H0.760311C0.56315 167.996 0.374371 167.918 0.234789 167.778C0.0955544 167.639 0.0170307 167.45 0.0170307 167.253V166.454Z" fill="#21252B"/>
<path opacity="0.4" d="M0.0174389 166.454C0.0387249 165.83 0.208323 165.22 0.511566 164.674C0.81481 164.128 1.24332 163.662 1.76222 163.313C0.41176 164.28 0.659538 165.243 2.58927 165.159C12.538 164.692 13.8326 164.692 14.9912 164.584C14.9804 164.573 14.9723 164.56 14.9674 164.545C14.9626 164.531 14.9612 164.515 14.9633 164.5C15.3991 165.204 15.9079 165.86 16.4812 166.458H29.1832C29.2844 166.457 29.3849 166.477 29.4788 166.515C29.5727 166.554 29.6578 166.611 29.7293 166.682C29.8012 166.754 29.8578 166.839 29.8965 166.933C29.9352 167.027 29.9548 167.127 29.9544 167.229C29.9565 167.331 29.9384 167.432 29.9003 167.527C29.8626 167.621 29.8058 167.707 29.7339 167.779C29.6616 167.852 29.5758 167.908 29.4809 167.946C29.3863 167.984 29.2851 168.002 29.1832 168H0.743275C0.546114 168 0.356972 167.922 0.21739 167.782C0.0781555 167.643 -5.72205e-06 167.454 -5.72205e-06 167.257L0.0174389 166.454Z" fill="black"/>
<path opacity="0.4" d="M0.0169926 166.188H16.247L16.4706 166.436H0.0169926V166.188Z" fill="black"/>
<path d="M17.6777 157.032L30.5333 157.109L44.1426 103.147H94.2806V82.52H35.471C33.6924 82.5214 31.9546 83.0515 30.4778 84.0422C29.001 85.0332 27.8519 86.4405 27.1763 88.0858L17.6777 157.032Z" fill="#3F4249"/>
<path opacity="0.2" d="M27.0995 157.381L30.8822 157.109L44.1426 103.147H94.2806V82.52H45.6117C43.8331 82.5214 42.0952 83.0515 40.6185 84.0422C39.1417 85.0332 37.9926 86.4405 37.317 88.0858L27.0995 157.381Z" fill="black"/>
<path d="M51.2298 154.474L50.2353 156.017C48.9362 158.059 46.9694 159.588 44.6695 160.344L32.1315 164.782C31.0008 165.131 31.1369 166.792 32.3234 166.792H33.8937C33.9945 166.932 34.1275 167.045 34.281 167.122C34.4349 167.199 34.6048 167.238 34.7765 167.236C35.1325 167.22 35.472 167.083 35.7397 166.848C35.7676 166.82 35.7955 166.82 35.8234 166.792H36.0432C36.0712 166.82 36.127 166.82 36.1549 166.876C36.2582 166.995 36.3849 167.091 36.5273 167.158C36.67 167.224 36.8249 167.26 36.9819 167.263C37.3134 167.244 37.6303 167.122 37.8892 166.915C37.9161 166.89 37.9475 166.871 37.9821 166.858C38.0163 166.846 38.0529 166.842 38.0892 166.844C38.1255 166.847 38.1607 166.857 38.1932 166.874C38.2253 166.891 38.2539 166.914 38.2766 166.942C38.3568 167.039 38.4577 167.117 38.5718 167.169C38.6859 167.222 38.8105 167.248 38.9361 167.246C39.2149 167.233 39.4836 167.137 39.7073 166.97C39.7603 166.937 39.8232 166.92 39.886 166.925C39.9488 166.929 40.0084 166.954 40.0562 166.995C40.2213 167.15 40.4373 167.239 40.6634 167.246C40.8156 167.245 40.9646 167.203 41.0954 167.125C41.226 167.047 41.3334 166.936 41.4067 166.803H41.5184L57.0295 166.573C58.516 166.545 59.6187 166.077 60.2538 164.919L60.3097 156.746L51.2298 154.474Z" fill="#FC9D9D"/>
<path opacity="0.15" d="M31.8004 164.918C31.8283 164.89 31.8838 164.862 31.9082 164.838C31.9714 164.805 32.0366 164.777 32.1036 164.754L32.3517 164.67H32.3793C32.4208 164.691 32.4574 164.719 32.4875 164.754C32.5876 164.876 32.7139 164.974 32.857 165.041C33.0004 165.107 33.1567 165.14 33.3145 165.138C33.647 165.138 33.9695 165.022 34.2256 164.81C34.2818 164.767 34.3519 164.746 34.4228 164.751C34.4933 164.756 34.5599 164.787 34.6091 164.838C34.6904 164.934 34.792 165.011 34.9068 165.063C35.0216 165.115 35.1465 165.14 35.2725 165.138C35.5516 165.127 35.8207 165.031 36.0433 164.862C36.0974 164.83 36.1599 164.815 36.2223 164.82C36.2851 164.825 36.3445 164.85 36.3923 164.89C36.4861 164.983 36.6003 165.053 36.7259 165.095C36.8512 165.137 36.9845 165.149 37.1153 165.13C37.2462 165.112 37.3711 165.063 37.48 164.988C37.5888 164.913 37.6789 164.814 37.7427 164.698H37.8509L45.514 164.576L43.9018 160.619C44.8339 162.127 46.0273 163.456 47.4263 164.545L53.383 164.45C54.8695 164.423 55.9722 163.955 56.6073 162.796C56.987 162.124 57.1245 161.341 56.9975 160.58C56.8704 159.818 56.4866 159.122 55.9094 158.609L51.2439 154.46L58.1567 156.334L60.2504 156.683V164.932C59.6153 166.091 58.5056 166.558 57.0261 166.586L41.5118 166.834H41.4002C41.3269 166.967 41.219 167.078 41.0885 167.156C40.958 167.234 40.8087 167.276 40.6569 167.277C40.4304 167.27 40.2148 167.18 40.0497 167.026C40.0022 166.984 39.9422 166.958 39.879 166.954C39.8159 166.95 39.7531 166.966 39.7007 167.001C39.4753 167.168 39.2056 167.264 38.9257 167.277C38.8001 167.279 38.6755 167.253 38.5614 167.2C38.4473 167.148 38.3464 167.07 38.2662 166.973C38.2435 166.945 38.2152 166.922 38.1828 166.905C38.1507 166.888 38.1151 166.878 38.0788 166.875C38.0425 166.873 38.0058 166.877 37.9717 166.889C37.9371 166.902 37.9057 166.921 37.8788 166.945C37.6203 167.153 37.3031 167.275 36.9719 167.294C36.8145 167.291 36.6596 167.255 36.5172 167.189C36.3745 167.122 36.2478 167.026 36.1449 166.907C36.117 166.851 36.0611 166.851 36.0332 166.823H35.8134C35.7854 166.851 35.7575 166.851 35.7296 166.879C35.4616 167.114 35.1221 167.25 34.7665 167.267C34.5945 167.269 34.4245 167.23 34.2706 167.153C34.1171 167.076 33.9841 166.963 33.8833 166.823H32.313C31.2487 166.802 31.0292 165.469 31.8004 164.918Z" fill="black"/>
<path d="M47.6879 156.683L61.7195 156.76L71.8218 103.133H102.708C105.865 103.129 108.892 101.872 111.123 99.6383C113.354 97.4046 114.607 94.3764 114.607 91.2194V82.52H62.7943C61.0153 82.5207 59.2764 83.0504 57.7989 84.0414C56.3215 85.0325 55.172 86.4402 54.4961 88.0858L47.6879 156.683Z" fill="#3F4249"/>
<path opacity="0.2" d="M114.607 90.9856V82.52L111.177 82.691L107.977 90.1307C107.542 91.144 106.819 92.0077 105.898 92.6142C104.977 93.221 103.898 93.5441 102.795 93.5434H71.389C68.3217 93.5434 66.2803 94.0913 64.6402 95.6965C63.2933 97.0511 62.4847 98.8496 62.365 100.756L58.1566 156.334L62.0684 156.411L71.4902 103.147L102.289 103.262C103.905 103.267 105.505 102.953 106.999 102.338C108.494 101.724 109.851 100.82 110.996 99.6798C112.14 98.5394 113.048 97.1844 113.668 95.6926C114.288 94.2005 114.607 92.6009 114.607 90.9856Z" fill="black"/>
<path d="M31.4684 167.978H59.9083C60.0095 167.978 60.11 167.959 60.2035 167.92C60.297 167.881 60.3818 167.824 60.4537 167.753C60.5253 167.681 60.5821 167.596 60.6209 167.502C60.6596 167.409 60.6795 167.308 60.6795 167.207C60.6795 167.106 60.6596 167.006 60.6209 166.912C60.5821 166.818 60.5253 166.734 60.4537 166.662C60.3818 166.59 60.297 166.533 60.2035 166.495C60.11 166.456 60.0095 166.436 59.9083 166.436H30.7251V167.207C30.723 167.408 30.8001 167.601 30.939 167.745C31.0779 167.889 31.268 167.973 31.4684 167.978Z" fill="url(#paint2_linear)"/>
<path d="M30.7252 166.454C30.7545 165.66 31.0225 164.893 31.4947 164.253C31.9665 163.614 32.6201 163.132 33.3703 162.87L42.7921 159.59C42.8857 159.553 42.9862 159.537 43.0867 159.543C43.1868 159.549 43.2849 159.576 43.3735 159.623C43.4625 159.67 43.54 159.736 43.601 159.815C43.6621 159.895 43.7054 159.987 43.7273 160.085C44.1426 161.464 45.1616 164.412 47.175 166.454H59.9085C60.01 166.453 60.1105 166.473 60.2044 166.512C60.2979 166.55 60.3834 166.607 60.4549 166.679C60.5264 166.75 60.5833 166.835 60.6221 166.929C60.6604 167.023 60.6804 167.124 60.6797 167.225C60.6821 167.327 60.664 167.428 60.6259 167.523C60.5879 167.617 60.5313 167.704 60.4591 167.775C60.3872 167.848 60.301 167.904 60.2065 167.942C60.1119 167.98 60.0103 167.998 59.9085 167.996H31.4685C31.2713 167.996 31.0826 167.918 30.943 167.778C30.8037 167.639 30.7252 167.45 30.7252 167.253V166.454Z" fill="url(#paint3_linear)"/>
<path d="M30.7252 166.454C30.7545 165.66 31.0225 164.893 31.4947 164.253C31.9665 163.614 32.6201 163.132 33.3703 162.87L42.7921 159.59C42.8857 159.553 42.9862 159.537 43.0867 159.543C43.1868 159.549 43.2849 159.576 43.3735 159.623C43.4625 159.67 43.54 159.736 43.601 159.815C43.6621 159.895 43.7054 159.987 43.7273 160.085C44.1426 161.464 45.1616 164.412 47.175 166.454H59.9085C60.01 166.453 60.1105 166.473 60.2044 166.512C60.2979 166.55 60.3834 166.607 60.4549 166.679C60.5264 166.75 60.5833 166.835 60.6221 166.929C60.6604 167.023 60.6804 167.124 60.6797 167.225C60.6821 167.327 60.664 167.428 60.6259 167.523C60.5879 167.617 60.5313 167.704 60.4591 167.775C60.3872 167.848 60.301 167.904 60.2065 167.942C60.1119 167.98 60.0103 167.998 59.9085 167.996H31.4685C31.2713 167.996 31.0826 167.918 30.943 167.778C30.8037 167.639 30.7252 167.45 30.7252 167.253V166.454Z" fill="#21252B"/>
<path opacity="0.4" d="M30.7256 166.454C30.7469 165.83 30.9165 165.22 31.2198 164.674C31.523 164.128 31.9515 163.662 32.4704 163.313C31.12 164.28 31.3677 165.243 33.2975 165.159C43.2462 164.692 44.5408 164.692 45.6994 164.584C45.6885 164.573 45.6805 164.56 45.6756 164.545C45.6708 164.531 45.6693 164.515 45.6714 164.5C46.1073 165.204 46.6161 165.86 47.1894 166.458H59.8914C59.9926 166.457 60.0931 166.477 60.187 166.515C60.2808 166.554 60.366 166.611 60.4375 166.682C60.5094 166.754 60.566 166.839 60.6047 166.933C60.6434 167.027 60.663 167.127 60.6626 167.229C60.6647 167.331 60.6466 167.432 60.6085 167.527C60.5708 167.621 60.514 167.707 60.4421 167.779C60.3698 167.852 60.284 167.908 60.1891 167.946C60.0945 167.984 59.9933 168.002 59.8914 168H31.4515C31.2543 168 31.0652 167.922 30.9256 167.782C30.7863 167.643 30.7082 167.454 30.7082 167.257L30.7256 166.454Z" fill="black"/>
<path opacity="0.4" d="M30.7251 166.188H46.955L47.1787 166.436H30.7251V166.188Z" fill="black"/>
<path d="M67.1492 75.3772L71.6857 44.5438C71.9655 42.6347 72.8111 40.8533 74.1127 39.4288C75.4146 38.0048 77.113 37.0029 78.9893 36.5528L93.7327 33.0632L108.588 33.2028L122.319 36.469C124.669 37.0312 126.723 38.4542 128.076 40.4568C129.428 42.4595 129.98 44.8966 129.623 47.2865L128.025 57.8144L125.324 63.6559C125.184 63.9874 120.274 63.8653 120.191 64.1968L116.003 85.8319C115.023 87.793 114.44 88.114 113.327 88.1315C112.36 88.1381 111.395 88.0763 110.437 87.9465C100.492 84.457 87.106 82.4086 76.5885 82.3423V77.122L67.1492 75.3772Z" fill="url(#paint4_linear)"/>
<path d="M74.7251 44.2959C74.8245 44.297 74.9212 44.2624 74.9976 44.1986C75.0737 44.1344 75.1243 44.045 75.1403 43.947L75.3323 42.6245C75.3448 42.5676 75.3455 42.5093 75.3343 42.4524C75.3228 42.3955 75.3001 42.3414 75.267 42.294C75.2338 42.2465 75.1909 42.2064 75.1417 42.176C75.0922 42.146 75.037 42.1265 74.9795 42.1185C74.9219 42.1108 74.8636 42.115 74.8078 42.131C74.7523 42.1471 74.7003 42.1746 74.656 42.2116C74.6113 42.2486 74.575 42.2943 74.5488 42.3463C74.523 42.398 74.508 42.4549 74.5052 42.5128L74.3133 43.8353C74.3046 43.8891 74.3063 43.9438 74.3192 43.9969C74.3321 44.0499 74.3555 44.0995 74.3883 44.1431C74.4208 44.1871 74.462 44.2237 74.5091 44.2509C74.5562 44.2785 74.6082 44.2959 74.6623 44.3029L74.7251 44.2959Z" fill="white"/>
<path d="M90.6828 59.398C90.7872 59.3977 90.8873 59.3579 90.9637 59.2867C91.0401 59.2155 91.0869 59.1181 91.0946 59.0142L91.2342 57.6637C91.2415 57.6075 91.2373 57.5507 91.2216 57.4959C91.2063 57.4414 91.1794 57.3908 91.1434 57.3469C91.1075 57.3029 91.0632 57.2669 91.0126 57.2411C90.9623 57.215 90.9072 57.1996 90.8503 57.1958C90.7938 57.1919 90.7373 57.2 90.6835 57.2188C90.6301 57.2376 90.5813 57.2673 90.5398 57.306C90.4982 57.3448 90.4651 57.3915 90.4424 57.4432C90.4193 57.4952 90.4075 57.5514 90.4071 57.6079L90.2676 58.9583C90.2606 59.0135 90.2655 59.0693 90.2819 59.1223C90.2983 59.175 90.3255 59.2242 90.3621 59.2657C90.3988 59.3073 90.4438 59.3404 90.4944 59.3635C90.545 59.3861 90.5994 59.398 90.6549 59.398H90.6828Z" fill="white"/>
<path d="M112.922 43.9119C113.027 43.9105 113.127 43.8701 113.204 43.7982C113.281 43.7266 113.328 43.6289 113.337 43.5242L113.473 42.1738C113.474 42.0684 113.434 41.9665 113.362 41.889C113.29 41.8116 113.191 41.7645 113.086 41.7575C112.981 41.7505 112.877 41.7837 112.795 41.8507C112.713 41.9177 112.66 42.0133 112.646 42.118L112.51 43.4684C112.503 43.5235 112.507 43.5794 112.523 43.6324C112.539 43.6858 112.566 43.735 112.602 43.7769C112.638 43.8188 112.683 43.8526 112.733 43.8756C112.784 43.899 112.839 43.9112 112.894 43.9119C112.894 43.884 112.922 43.9119 112.922 43.9119Z" fill="white"/>
<path d="M103.581 62.4307C103.67 62.4324 103.758 62.4027 103.829 62.3469C103.909 62.275 103.959 62.1756 103.97 62.0681C103.98 61.961 103.949 61.8535 103.884 61.7677L103.029 60.7208C102.959 60.6409 102.86 60.5917 102.753 60.5833C102.647 60.5749 102.542 60.6084 102.459 60.6761C102.377 60.7438 102.324 60.8412 102.312 60.9469C102.3 61.053 102.329 61.1594 102.394 61.2442L103.249 62.2911C103.342 62.372 103.458 62.4209 103.581 62.4307Z" fill="white"/>
<path d="M84.3981 38.4266C84.5003 38.4266 84.5987 38.3878 84.6738 38.3184C84.754 38.2465 84.8046 38.1471 84.8147 38.0396C84.8252 37.9324 84.7948 37.825 84.7296 37.7391L83.9305 36.7725C83.8597 36.6926 83.7609 36.6434 83.6545 36.6351C83.548 36.6267 83.4426 36.6602 83.3603 36.7279C83.2783 36.7956 83.2252 36.8929 83.2134 36.9987C83.2012 37.1047 83.2305 37.2112 83.2954 37.296L84.0945 38.2626C84.129 38.3114 84.1744 38.3516 84.2271 38.3798C84.2798 38.4084 84.3384 38.4241 84.3981 38.4266Z" fill="white"/>
<path d="M103.413 50.0853C103.481 50.0804 103.548 50.0605 103.608 50.0273C103.668 49.9942 103.721 49.9485 103.762 49.8933L104.425 48.8186C104.483 48.7233 104.502 48.6085 104.476 48.4996C104.45 48.3904 104.382 48.2962 104.287 48.2375C104.192 48.1786 104.077 48.1604 103.968 48.1863C103.859 48.2121 103.764 48.2801 103.706 48.3754L103.046 49.4502C102.992 49.5461 102.976 49.6592 103.001 49.7663C103.027 49.8735 103.091 49.9673 103.182 50.0294C103.256 50.0584 103.334 50.0772 103.413 50.0853Z" fill="white"/>
<path d="M81.8053 66.7298C81.9083 66.7295 82.007 66.6897 82.081 66.6182C82.1616 66.5463 82.2119 66.4468 82.2223 66.3394C82.2325 66.2319 82.2021 66.1248 82.1368 66.0389L81.3377 65.0758C81.2655 64.9959 81.166 64.9464 81.0589 64.9359C80.9518 64.9254 80.8447 64.9554 80.7585 65.02C80.6775 65.0912 80.6265 65.191 80.6161 65.2984C80.606 65.4059 80.6367 65.5134 80.7026 65.5992L81.5017 66.5658C81.5293 66.621 81.5733 66.6663 81.6277 66.6956C81.6822 66.725 81.7439 66.7368 81.8053 66.7298Z" fill="white"/>
<path d="M84.3981 50.6921C84.4375 50.6963 84.4769 50.6862 84.5097 50.6642L85.8602 50.2524C85.9617 50.2158 86.0448 50.1414 86.0929 50.0451C86.1411 49.9485 86.1502 49.8375 86.1181 49.7346C86.0863 49.6316 86.0158 49.5447 85.9216 49.4924C85.8274 49.44 85.7168 49.4261 85.6124 49.4533L84.262 49.8685C84.1559 49.9013 84.0676 49.975 84.016 50.073C83.9643 50.1714 83.9535 50.2859 83.9863 50.392C84.0114 50.481 84.0655 50.5588 84.1402 50.6132C84.2148 50.6677 84.3056 50.6956 84.3981 50.6921Z" fill="white"/>
<path d="M73.9817 60.501L74.0654 60.4172L74.8646 59.2343C74.896 59.1893 74.918 59.1383 74.9295 59.0846C74.9406 59.0308 74.9413 58.9753 74.9309 58.9213C74.9204 58.8672 74.8995 58.8159 74.8687 58.7702C74.838 58.7245 74.7986 58.6854 74.7529 58.655C74.7079 58.6229 74.6569 58.5999 74.6032 58.588C74.5491 58.5762 74.4933 58.5751 74.4392 58.5856C74.3847 58.596 74.3331 58.6177 74.2874 58.6487C74.242 58.6798 74.2029 58.7199 74.1736 58.7667L73.3745 59.9496C73.3204 60.0323 73.2974 60.1318 73.31 60.2298C73.3225 60.3275 73.3696 60.4179 73.4429 60.4846C73.5158 60.5509 73.6104 60.5889 73.7092 60.592C73.8079 60.5952 73.9046 60.5627 73.9817 60.501Z" fill="white"/>
<path d="M93.2443 43.2209C93.2837 43.2251 93.3231 43.2149 93.3559 43.193L94.7169 42.7812C94.8181 42.7446 94.9015 42.6702 94.9496 42.5739C94.9978 42.4773 95.0069 42.3659 94.9748 42.263C94.943 42.1601 94.8725 42.0735 94.7783 42.0212C94.6841 41.9688 94.5734 41.9549 94.4691 41.9821L93.1186 42.3939C93.0136 42.4284 92.9264 42.502 92.8751 42.5997C92.8234 42.6974 92.8119 42.8112 92.843 42.9173C92.8726 43.0014 92.9267 43.0754 92.9979 43.1291C93.0694 43.1832 93.155 43.2149 93.2443 43.2209Z" fill="white"/>
<path d="M94.4032 70.6417C94.4423 70.6459 94.4821 70.6361 94.5149 70.6138L95.8654 70.2021C95.9711 70.1689 96.0597 70.0949 96.111 69.9965C96.1623 69.8978 96.1724 69.783 96.1393 69.6769C96.1058 69.5711 96.0318 69.4829 95.9334 69.4312C95.8347 69.3799 95.7198 69.3698 95.6141 69.403L94.2636 69.8147C94.1586 69.8493 94.0714 69.9232 94.0197 70.021C93.9684 70.1187 93.9569 70.2324 93.988 70.3381C94.0197 70.424 94.0763 70.4983 94.1499 70.5524C94.2239 70.6061 94.3118 70.6375 94.4032 70.6417Z" fill="white"/>
<path opacity="0.2" d="M112.067 69.6789L114.258 48.2672C114.27 48.2089 114.257 48.1485 114.224 48.0997C114.19 48.0505 114.139 48.0166 114.08 48.0054C114.022 47.9943 113.962 48.0068 113.913 48.0403C113.864 48.0735 113.83 48.1251 113.819 48.1834L107.039 70.4222L112.067 69.6789Z" fill="black"/>
<path opacity="0.2" d="M81.5057 78.2767L81.4778 78.2488L81.422 78.3046L81.5057 78.2767Z" fill="black"/>
<path d="M71.5846 79.5643C71.7183 79.7293 71.9109 79.8365 72.1217 79.8623C72.3328 79.8885 72.5457 79.8316 72.7153 79.7038L77.6006 76.1201L71.4032 78.9571C71.3903 79.0653 71.3997 79.1752 71.4307 79.2795C71.4621 79.3839 71.5145 79.4809 71.5846 79.5643Z" fill="#868A91"/>
<path opacity="0.6" d="M96.0288 63.8618C95.9196 63.8618 95.8132 63.8294 95.7225 63.769C95.6317 63.7083 95.5612 63.6221 95.5194 63.5216C95.4778 63.4207 95.4667 63.3098 95.488 63.203C95.5093 63.0958 95.5619 62.9978 95.6391 62.9207C95.7162 62.8435 95.8142 62.7909 95.9214 62.7696C96.0282 62.7483 96.1391 62.7595 96.2396 62.801C96.3405 62.8429 96.4266 62.9133 96.4874 63.0041C96.5477 63.0948 96.5802 63.2012 96.5802 63.3104C96.5802 63.3827 96.5659 63.4546 96.5383 63.5216C96.5104 63.5882 96.4699 63.6489 96.4186 63.7002C96.3673 63.7515 96.3066 63.792 96.2396 63.8199C96.173 63.8475 96.1011 63.8618 96.0288 63.8618Z" fill="black"/>
<path opacity="0.6" d="M73.0431 53.969C72.9339 53.969 72.8275 53.9368 72.7368 53.8761C72.646 53.8154 72.5755 53.7296 72.5337 53.6287C72.4918 53.5279 72.481 53.4169 72.5023 53.3101C72.5236 53.2034 72.5762 53.1049 72.6534 53.0278C72.7301 52.9507 72.8285 52.8984 72.9357 52.8771C73.0424 52.8558 73.1534 52.8666 73.2539 52.9085C73.3548 52.95 73.441 53.0209 73.5013 53.1112C73.562 53.202 73.5945 53.3087 73.5945 53.4176C73.5945 53.5638 73.5362 53.7041 73.4329 53.8074C73.3296 53.911 73.1894 53.969 73.0431 53.969Z" fill="black"/>
<path opacity="0.6" d="M83.6828 43.4167C83.5736 43.4167 83.4671 43.3843 83.3764 43.3239C83.2857 43.2632 83.2152 43.177 83.1733 43.0765C83.1318 42.9756 83.1206 42.8647 83.1419 42.7579C83.1632 42.6508 83.2159 42.5527 83.293 42.4756C83.3701 42.3985 83.4682 42.3458 83.5753 42.3245C83.6821 42.3032 83.793 42.3144 83.8939 42.3559C83.9944 42.3978 84.0806 42.4683 84.1413 42.559C84.2017 42.6497 84.2341 42.7565 84.2341 42.8654C84.2341 43.0116 84.1759 43.1519 84.0726 43.2552C83.9693 43.3588 83.829 43.4167 83.6828 43.4167Z" fill="black"/>
<path opacity="0.6" d="M95.3135 50.9678C95.2047 50.9678 95.0979 50.9354 95.0071 50.8747C94.9164 50.8143 94.8459 50.7281 94.804 50.6273C94.7625 50.5268 94.7513 50.4158 94.7726 50.3087C94.7939 50.2019 94.8466 50.1035 94.9237 50.0264C95.0009 49.9496 95.0989 49.8969 95.206 49.8756C95.3128 49.8543 95.4238 49.8651 95.5246 49.907C95.6251 49.9489 95.7113 50.0194 95.772 50.1101C95.8324 50.2008 95.8649 50.3073 95.8649 50.4165C95.8649 50.4887 95.8506 50.5606 95.823 50.6273C95.7951 50.6943 95.7546 50.755 95.7033 50.8063C95.6524 50.8576 95.5913 50.898 95.5246 50.9256C95.4576 50.9535 95.3861 50.9678 95.3135 50.9678Z" fill="black"/>
<path opacity="0.6" d="M81.3936 70.9732C81.2847 70.9732 81.1779 70.9407 81.0875 70.88C80.9968 70.8197 80.926 70.7335 80.8845 70.6326C80.8426 70.5321 80.8318 70.4212 80.8531 70.3144C80.8743 70.2073 80.9267 70.1092 81.0038 70.0321C81.0809 69.955 81.1793 69.9023 81.2861 69.881C81.3932 69.8597 81.5039 69.8705 81.6047 69.9124C81.7055 69.9543 81.7914 70.0248 81.8521 70.1155C81.9128 70.2062 81.9449 70.3126 81.9449 70.4219C81.9449 70.5681 81.887 70.7084 81.7837 70.8116C81.6801 70.9149 81.5398 70.9732 81.3936 70.9732Z" fill="black"/>
<path opacity="0.6" d="M70.576 69.9263C70.4671 69.9263 70.3603 69.8939 70.2699 69.8332C70.1792 69.7728 70.1084 69.6866 70.0668 69.5858C70.025 69.4853 70.0141 69.3743 70.0354 69.2675C70.0567 69.1604 70.1091 69.0623 70.1862 68.9852C70.2633 68.9081 70.3617 68.8554 70.4685 68.8341C70.5756 68.8128 70.6862 68.8236 70.7871 68.8655C70.8879 68.9074 70.9738 68.9779 71.0345 69.0686C71.0952 69.1593 71.1273 69.2658 71.1273 69.375C71.1273 69.4472 71.113 69.5191 71.0854 69.5858C71.0579 69.6528 71.017 69.7135 70.9661 69.7648C70.9148 69.8161 70.8541 69.8565 70.7871 69.8841C70.7201 69.912 70.6485 69.9263 70.576 69.9263Z" fill="black"/>
<path opacity="0.6" d="M83.435 58.7114C83.3257 58.7114 83.2193 58.679 83.1286 58.6186C83.0379 58.5579 82.9674 58.4717 82.9255 58.3712C82.884 58.2703 82.8728 58.1594 82.8941 58.0526C82.9154 57.9455 82.9681 57.8474 83.0452 57.7703C83.1223 57.6932 83.2204 57.6405 83.3275 57.6192C83.4343 57.5979 83.5453 57.6091 83.6461 57.6506C83.7466 57.6925 83.8328 57.763 83.8935 57.8537C83.9539 57.9444 83.9863 58.0512 83.9863 58.1601C83.9863 58.2326 83.972 58.3042 83.9445 58.3712C83.9165 58.4378 83.8761 58.4989 83.8248 58.5498C83.7738 58.6011 83.7128 58.6416 83.6461 58.6695C83.5791 58.6971 83.5072 58.7114 83.435 58.7114Z" fill="black"/>
<path opacity="0.6" d="M105.039 40.2448C104.93 40.2448 104.823 40.2124 104.733 40.152C104.642 40.0913 104.571 40.0055 104.53 39.9046C104.488 39.8038 104.477 39.6928 104.498 39.586C104.519 39.4789 104.572 39.3808 104.649 39.3037C104.726 39.2266 104.824 39.1739 104.932 39.153C105.038 39.1317 105.149 39.1425 105.25 39.184C105.351 39.2259 105.437 39.2967 105.498 39.3871C105.558 39.4778 105.59 39.5846 105.59 39.6935C105.59 39.7661 105.576 39.8376 105.548 39.9046C105.521 39.9716 105.48 40.0323 105.429 40.0833C105.378 40.1346 105.317 40.1751 105.25 40.203C105.183 40.2305 105.112 40.2448 105.039 40.2448Z" fill="black"/>
<path opacity="0.6" d="M108.072 54.2722C107.962 54.2722 107.856 54.2401 107.765 54.1793C107.675 54.1186 107.604 54.0328 107.562 53.9319C107.52 53.8311 107.51 53.7205 107.531 53.6133C107.552 53.5066 107.604 53.4082 107.682 53.3311C107.759 53.2539 107.857 53.2016 107.964 53.1803C108.071 53.159 108.182 53.1698 108.282 53.2117C108.383 53.2532 108.469 53.3241 108.53 53.4148C108.591 53.5052 108.623 53.612 108.623 53.7208C108.623 53.7934 108.609 53.8649 108.581 53.9319C108.553 53.9989 108.513 54.0597 108.461 54.111C108.41 54.1619 108.349 54.2027 108.282 54.2303C108.216 54.2579 108.144 54.2722 108.072 54.2722Z" fill="black"/>
<path d="M124.867 46.0302C124.957 46.032 125.044 46.0023 125.115 45.9465C125.195 45.8746 125.245 45.7752 125.256 45.6677C125.266 45.5606 125.235 45.4531 125.171 45.3672L124.316 44.3204C124.282 44.2764 124.239 44.2398 124.192 44.2125C124.144 44.185 124.09 44.1679 124.035 44.1616C123.98 44.1553 123.925 44.1602 123.872 44.1759C123.819 44.1916 123.769 44.2178 123.727 44.253C123.684 44.2879 123.649 44.3315 123.623 44.3804C123.598 44.4296 123.582 44.4833 123.578 44.5385C123.574 44.5936 123.58 44.6491 123.598 44.7014C123.616 44.7541 123.643 44.8023 123.68 44.8438L124.535 45.8907C124.628 45.9716 124.744 46.0205 124.867 46.0302Z" fill="white"/>
<path d="M69.9408 55.4871L79.3627 56.5339L77.2689 78.169L67.1981 75.5309L69.9408 55.4871Z" fill="#FC9D9D"/>
<path d="M124.518 55.1032C124.608 55.105 124.695 55.0753 124.766 55.0195C124.846 54.9476 124.896 54.8482 124.907 54.7407C124.917 54.6336 124.887 54.5261 124.822 54.4402L123.967 53.3934C123.933 53.3494 123.891 53.3128 123.843 53.2855C123.795 53.258 123.741 53.2409 123.687 53.2346C123.631 53.2283 123.576 53.2332 123.523 53.2489C123.47 53.2646 123.42 53.2908 123.378 53.326C123.335 53.3609 123.3 53.4045 123.274 53.4534C123.249 53.5026 123.234 53.5563 123.229 53.6115C123.225 53.6666 123.232 53.7221 123.249 53.7744C123.267 53.8271 123.295 53.8753 123.332 53.9168L124.187 54.9637C124.279 55.0446 124.395 55.0935 124.518 55.1032Z" fill="white"/>
<path opacity="0.6" d="M119.238 38.9184C119.129 38.9184 119.023 38.8863 118.932 38.8256C118.841 38.7649 118.77 38.679 118.729 38.5782C118.687 38.4773 118.676 38.3667 118.697 38.2596C118.719 38.1528 118.771 38.0544 118.848 37.9773C118.925 37.9002 119.024 37.8478 119.13 37.8265C119.238 37.8053 119.349 37.8161 119.449 37.8579C119.55 37.8995 119.636 37.9703 119.697 38.061C119.757 38.1514 119.79 38.2582 119.79 38.3671C119.79 38.5133 119.731 38.6536 119.628 38.7572C119.525 38.8605 119.385 38.9184 119.238 38.9184Z" fill="black"/>
<path opacity="0.6" d="M119.238 48.6889C119.129 48.6889 119.023 48.6568 118.932 48.5961C118.841 48.5354 118.77 48.4495 118.729 48.3487C118.687 48.2478 118.676 48.1372 118.697 48.0301C118.719 47.9233 118.771 47.8249 118.848 47.7478C118.925 47.6707 119.024 47.6183 119.13 47.5971C119.238 47.5758 119.349 47.5866 119.449 47.6284C119.55 47.67 119.636 47.7408 119.697 47.8315C119.757 47.9219 119.79 48.0287 119.79 48.1376C119.79 48.2838 119.731 48.4241 119.628 48.5277C119.525 48.631 119.385 48.6889 119.238 48.6889Z" fill="black"/>
<path opacity="0.6" d="M107.52 68.9631C107.411 68.9631 107.305 68.9307 107.214 68.8703C107.123 68.8096 107.052 68.7234 107.011 68.6229C106.969 68.522 106.958 68.4111 106.979 68.3043C107.001 68.1972 107.053 68.0991 107.13 68.022C107.207 67.9449 107.306 67.8922 107.412 67.8709C107.52 67.8496 107.63 67.8608 107.731 67.9023C107.832 67.9442 107.918 68.0147 107.978 68.1054C108.039 68.1961 108.072 68.3026 108.072 68.4118C108.072 68.558 108.013 68.6983 107.91 68.8016C107.806 68.9052 107.667 68.9631 107.52 68.9631Z" fill="black"/>
<path opacity="0.2" d="M80.2107 48.159L77.59 73.9816L75.3044 76.2428L73.2106 74.8469L77.7854 50.0434C78.253 48.0195 80.2107 47.852 80.2107 48.159Z" fill="black"/>
<path opacity="0.6" d="M108.623 33.192C108.623 33.192 108.898 34.3191 108.015 34.8705C107.024 35.4497 103.193 38.011 97.791 36.3884C96.5976 36.0216 95.4722 35.463 94.4585 34.7344C94.2721 34.6025 94.114 34.4346 93.9944 34.2402C93.8743 34.0459 93.7948 33.8295 93.7606 33.6038V33.0803L92.2461 33.4293C92.251 33.8253 92.3337 34.2169 92.49 34.5808C92.6463 34.9448 92.8728 35.2745 93.1569 35.5509C93.5966 35.9906 100.136 41.033 108.452 36.3779C108.99 36.1396 109.438 35.7351 109.731 35.2243C110.023 34.7134 110.145 34.1223 110.078 33.5374L108.623 33.192Z" fill="black"/>
<path d="M87.7377 73.2342L83.8224 73.7577L75.4718 73.0144C74.7474 73.0284 74.0565 73.3236 73.5456 73.8379L68.3915 78.4406C68.2321 78.5819 68.1337 78.7798 68.1169 78.9923C68.1002 79.2052 68.1668 79.4159 68.3025 79.5807C68.4379 79.745 68.6323 79.8507 68.8441 79.8748C69.0559 79.8992 69.2692 79.8403 69.4384 79.7108L74.3238 76.1271L71.1518 79.8748C71.0687 79.9725 71.0104 80.0891 70.9818 80.2143C70.9532 80.3396 70.9553 80.4701 70.9878 80.5943C71.0202 80.7186 71.0823 80.8334 71.1685 80.9286C71.2551 81.0236 71.3629 81.0968 71.4833 81.1415C71.6229 81.1921 71.774 81.204 71.9198 81.175C72.0657 81.146 72.2007 81.0777 72.3103 80.9775L76.5536 76.8145L73.3293 79.9865C73.2033 80.1205 73.1314 80.2967 73.1272 80.4806C73.123 80.6648 73.1869 80.8439 73.3069 80.9838C73.4266 81.1234 73.5941 81.2141 73.7766 81.2378C73.9591 81.2619 74.1441 81.2176 74.2959 81.1136L78.8044 77.8195L75.744 80.0772C75.6613 80.1369 75.5936 80.2154 75.5472 80.3065C75.5008 80.3975 75.4764 80.4984 75.4764 80.6006C75.4764 80.7025 75.5008 80.8034 75.5472 80.8944C75.5936 80.9855 75.6613 81.064 75.744 81.1241C75.8341 81.1907 75.9398 81.2333 76.0508 81.2479C76.1621 81.2626 76.2748 81.249 76.3791 81.2078L80.4863 79.498C80.6832 79.4142 80.8953 79.3734 81.1089 79.3783C81.3225 79.3831 81.5325 79.4334 81.7252 79.5259L83.2955 80.297C84.5688 80.9252 85.9692 81.2521 87.3887 81.2532H89.9501C93.6316 81.2532 87.7377 73.2342 87.7377 73.2342Z" fill="#FC9D9D"/>
<path opacity="0.15" d="M112.039 70.1182L113.417 70.01C113.511 70.002 113.601 69.9713 113.679 69.9207C113.758 69.8701 113.823 69.801 113.869 69.7197C113.915 69.6384 113.941 69.547 113.944 69.4535C113.946 69.3599 113.926 69.2671 113.885 69.183L112.426 66.2344L112.039 70.1182Z" fill="black"/>
<path opacity="0.15" d="M75.744 80.2068C75.7594 80.2089 75.7747 80.2075 75.789 80.2026C75.8037 80.1977 75.8169 80.1897 75.8277 80.1789L78.6403 78.1131C78.6697 78.0904 78.6885 78.0573 78.693 78.0206C78.6976 77.984 78.6874 77.947 78.6648 77.9177C78.6543 77.9034 78.6407 77.8908 78.6253 77.8817C78.6096 77.8723 78.5925 77.8664 78.5747 77.8636C78.5569 77.8612 78.5388 77.8622 78.5213 77.8664C78.5039 77.8709 78.4875 77.879 78.4728 77.8898L75.6638 79.9591C75.6079 80.0149 75.58 80.0952 75.6358 80.151C75.6655 80.1803 75.7032 80.1999 75.744 80.2068Z" fill="black"/>
<path opacity="0.15" d="M73.3467 80.1226C73.3746 80.1226 73.4304 80.1226 73.4304 80.0947L76.4628 77.1216C76.4883 77.0962 76.5026 77.0616 76.5026 77.0257C76.5026 76.9897 76.4883 76.9552 76.4628 76.9297C76.4503 76.9164 76.4349 76.906 76.4182 76.899C76.4014 76.892 76.3833 76.8882 76.3651 76.8882C76.347 76.8882 76.3288 76.892 76.3121 76.899C76.2953 76.906 76.2803 76.9164 76.2674 76.9297L73.2385 79.9063C73.2256 79.9185 73.2151 79.9335 73.2081 79.9499C73.2011 79.9663 73.1977 79.9841 73.1977 80.0022C73.1977 80.02 73.2011 80.0378 73.2081 80.0542C73.2151 80.0706 73.2256 80.0856 73.2385 80.0982C73.2706 80.1191 73.309 80.1279 73.3467 80.1226Z" fill="black"/>
<path opacity="0.15" d="M79.5759 78.9922C78.6407 79.4633 77.0669 80.2624 76.5156 80.5625C75.7444 81.0057 75.5245 80.4264 75.5245 80.4264C75.4931 80.5541 75.4998 80.6885 75.5437 80.8123C75.5877 80.9366 75.6673 81.0447 75.7723 81.1243C75.8623 81.191 75.9677 81.2339 76.079 81.2485C76.19 81.2632 76.3031 81.2492 76.4074 81.2081L80.5146 79.4982C80.7111 79.4144 80.9232 79.374 81.1368 79.3785C81.3504 79.3834 81.5604 79.4336 81.7534 79.5261L80.9543 79.0585C80.746 78.9399 80.5125 78.8722 80.2728 78.8606C80.0334 78.8491 79.7947 78.8942 79.5759 78.9922Z" fill="black"/>
<path d="M88.3658 73.5627L112.039 70.0907L113.585 55.0857L128.356 55.836L125.352 74.99C125.079 76.7316 124.194 78.319 122.855 79.466C121.516 80.613 119.811 81.2446 118.048 81.2467H91.1226L88.3658 73.5627Z" fill="url(#paint5_linear)"/>
<path d="M85.1414 73.5627L112.039 70.1185L113.585 55.1135L128.356 55.8707L125.352 75.0283C125.079 76.7699 124.194 78.3573 122.855 79.5043C121.516 80.6513 119.811 81.2829 118.048 81.285H87.8144L85.1414 73.5627Z" fill="#FC9D9D"/>
<path d="M113.26 57.9121L114.607 47.4609L128.356 55.8428L127.868 59.3253L113.26 57.9121Z" fill="url(#paint6_linear)"/>
<path opacity="0.15" d="M87.3472 79.875L87.7903 81.2255H118.02C119.784 81.2276 121.491 80.5977 122.831 79.45C124.171 78.3023 125.055 76.7125 125.324 74.9687L129.651 47.2724C130.01 44.882 129.459 42.4443 128.106 40.4413C126.753 38.4379 124.698 37.0152 122.348 36.4548L119.786 35.8477C121.717 36.704 123.313 38.1717 124.329 40.0239C125.345 41.8762 125.724 44.0111 125.408 46.0999L121.409 71.6188C121.136 73.3597 120.251 74.9461 118.913 76.0924C117.574 77.239 115.871 77.8699 114.109 77.872L87.3472 79.875Z" fill="black"/>
<g opacity="0.2">
<path opacity="0.2" d="M87.5387 73.0394C87.5467 73.0858 87.5708 73.1276 87.6064 73.1584C87.642 73.1887 87.687 73.2062 87.7341 73.2069H87.762L112.067 69.6789L112.123 69.2393L87.6957 72.7916C87.6437 72.8063 87.5987 72.8398 87.5697 72.8855C87.5408 72.9312 87.5296 72.986 87.5387 73.0394Z" fill="black"/>
</g>
<path d="M111.017 86.2467C111.107 86.2488 111.195 86.2192 111.264 86.163C111.345 86.0922 111.396 85.9931 111.406 85.8859C111.417 85.7792 111.386 85.672 111.32 85.5872L110.465 84.5404C110.395 84.4605 110.296 84.4113 110.189 84.4029C110.083 84.3945 109.978 84.4277 109.895 84.4957C109.813 84.5634 109.76 84.6604 109.748 84.7665C109.736 84.8726 109.766 84.979 109.83 85.0638L110.685 86.1107C110.779 86.1892 110.895 86.2366 111.017 86.2467Z" fill="white"/>
<path opacity="0.6" d="M104.987 83.5354C104.877 83.5361 104.771 83.5043 104.679 83.4439C104.588 83.3839 104.517 83.2981 104.475 83.1972C104.432 83.0967 104.421 82.9858 104.442 82.8786C104.463 82.7712 104.515 82.6728 104.592 82.5953C104.669 82.5178 104.767 82.4651 104.874 82.4435C104.981 82.4219 105.092 82.4327 105.193 82.4742C105.294 82.5157 105.381 82.5866 105.441 82.6773C105.502 82.768 105.534 82.8748 105.534 82.984C105.535 83.0563 105.521 83.1278 105.494 83.1948C105.466 83.2614 105.426 83.3222 105.375 83.3735C105.324 83.4247 105.264 83.4656 105.197 83.4931C105.13 83.5211 105.059 83.5354 104.987 83.5354Z" fill="black"/>
<path opacity="0.15" d="M87.8143 81.2534H87.4305C86.0047 81.2552 84.5983 80.9244 83.3233 80.2868L81.4494 79.4075C81.8891 79.4633 83.0476 79.903 84.6737 79.903C85.3088 79.903 86.3417 79.903 87.3886 79.903" fill="black"/>
<path d="M92.5288 16.7951C92.5288 16.7951 105.151 7.53394 106.389 17.6222L106.738 20.2672L108.612 33.1785V33.2064L108.64 33.4821C108.667 33.6614 108.657 33.845 108.609 34.0201C108.562 34.1957 108.478 34.3593 108.364 34.501V34.5499L108.337 34.5778C108.247 34.6982 108.134 34.8004 108.005 34.8779C107.22 35.3936 106.38 35.8197 105.5 36.1481C103.618 36.8652 101.585 37.0895 99.5931 36.7999C97.6009 36.5106 95.7159 35.7168 94.1166 34.494C93.8643 34.1842 93.7394 33.7898 93.7676 33.3913L93.9874 26.667C93.7603 25.9133 93.613 25.1379 93.5478 24.3535C93.136 20.3754 92.5288 16.7951 92.5288 16.7951Z" fill="#FC9D9D"/>
<path d="M121.297 55.4273C121.402 55.4259 121.502 55.3854 121.579 55.3135C121.656 55.242 121.703 55.1443 121.712 55.0396L121.848 53.6892C121.849 53.5838 121.809 53.4819 121.737 53.4044C121.665 53.327 121.566 53.2799 121.461 53.2729C121.355 53.2659 121.251 53.299 121.169 53.366C121.088 53.433 121.035 53.5287 121.021 53.6333L120.885 54.9838C120.878 55.0389 120.882 55.0948 120.898 55.1478C120.914 55.2012 120.94 55.2504 120.977 55.2923C121.013 55.3341 121.058 55.368 121.108 55.391C121.159 55.4144 121.213 55.4266 121.269 55.4273C121.269 55.3994 121.297 55.4273 121.297 55.4273Z" fill="white"/>
<path d="M91.0947 17.5104C90.2055 17.5104 89.3366 17.247 88.5972 16.7529C87.8581 16.2588 87.282 15.5566 86.9417 14.7352C86.6019 13.9138 86.5129 13.0096 86.6866 12.138C86.8604 11.2659 87.289 10.4651 87.9178 9.83663C88.5466 9.20816 89.3478 8.78034 90.2198 8.60726C91.0919 8.43453 91.996 8.52386 92.8171 8.86444C93.6382 9.20537 94.34 9.78185 94.8334 10.5216C95.3268 11.2611 95.5899 12.1303 95.5892 13.0194C95.5892 13.6095 95.473 14.1937 95.2469 14.7391C95.0211 15.2841 94.69 15.7793 94.2726 16.1963C93.8553 16.6133 93.3597 16.9441 92.8143 17.1695C92.2693 17.3953 91.6848 17.5108 91.0947 17.5104Z" fill="#21252B"/>
<path d="M90.5292 9.77423C90.5292 9.77423 87.2769 29.8076 97.5083 30.3869C106.358 30.9103 106.302 17.2139 106.302 17.2139L105.206 8.37842L90.5292 9.77423Z" fill="#FC9D9D"/>
<path d="M91.1784 10.9501H100.164C100.432 10.9501 100.697 11.0031 100.945 11.1057C101.192 11.2083 101.417 11.3587 101.606 11.5482C101.795 11.738 101.946 11.9631 102.048 12.2105C102.15 12.4583 102.202 12.7235 102.202 12.9915C102.201 13.2591 102.254 13.5243 102.356 13.7721C102.458 14.0195 102.609 14.2442 102.798 14.4337C102.987 14.6228 103.212 14.7729 103.459 14.8751C103.707 14.9774 103.972 15.0297 104.24 15.0294C104.312 15.0294 104.384 15.0437 104.451 15.0712C104.518 15.0992 104.578 15.1396 104.63 15.1909C104.681 15.2422 104.721 15.3029 104.749 15.3696C104.777 15.4366 104.791 15.5085 104.791 15.5807V17.5663C104.791 17.628 104.803 17.6891 104.827 17.746C104.851 17.8028 104.885 17.8548 104.929 17.8981C104.973 17.9417 105.025 17.9759 105.082 17.9993C105.139 18.0227 105.201 18.0342 105.262 18.0338C105.37 18.0338 105.474 17.9944 105.555 17.9232C105.636 17.8521 105.688 17.7536 105.702 17.6465L105.978 15.7482L106.327 15.0852L108.529 16.2437C108.529 16.2437 111.561 10.7303 109.575 6.07525C108.448 3.39878 105.664 2.65551 104.397 2.58572C104.191 2.56932 103.991 2.50894 103.811 2.40914C103.63 2.30899 103.473 2.17185 103.35 2.00645C102.771 1.15151 101.392 -0.282678 98.5798 0.0488272C97.7846 0.109196 97.0182 0.371262 96.3528 0.810244C95.6873 1.24958 95.1447 1.85082 94.7762 2.5578C94.6125 2.84115 94.356 3.05889 94.05 3.17405C93.7436 3.2892 93.4072 3.29479 93.0977 3.1894C92.4776 2.95525 91.808 2.88268 91.1523 2.97934C90.4966 3.07565 89.8761 3.33771 89.3499 3.74075C86.492 5.71583 88.0378 10.7023 91.1784 10.9501Z" fill="#21252B"/>
<path opacity="0.15" d="M106.861 20.9402C106.861 20.9402 106.034 21.0798 105.562 20.7483L107.136 22.842L106.861 20.9402Z" fill="black"/>
<path d="M91.1509 11.3654L92.1977 11.3933C92.249 11.3913 92.2979 11.37 92.3349 11.334C92.3715 11.2981 92.3939 11.2496 92.3973 11.1983C92.4008 11.1466 92.3851 11.096 92.3534 11.0552C92.3216 11.0147 92.2762 10.9872 92.2253 10.9781L91.1784 10.9502C91.0479 10.9484 90.9178 10.9306 90.7911 10.8978C90.3591 10.7855 89.9428 10.619 89.5523 10.4023C89.5296 10.3835 89.5027 10.3702 89.4738 10.3629C89.4452 10.3559 89.4152 10.3549 89.3862 10.3608C89.3569 10.3664 89.3293 10.3782 89.3056 10.3957C89.2815 10.4131 89.2616 10.4358 89.2473 10.4616C89.233 10.4878 89.2246 10.5164 89.2229 10.5461C89.2208 10.5757 89.2253 10.6054 89.2361 10.633C89.247 10.6605 89.2637 10.6857 89.2853 10.7059C89.3066 10.7265 89.3325 10.7418 89.3607 10.7513C89.7819 10.9924 90.237 11.169 90.7108 11.2747C90.8494 11.3365 90.9994 11.3672 91.1509 11.3654Z" fill="#FC9D9D"/>
<path opacity="0.15" d="M93.7676 32.2532L93.8793 29.0568C94.7866 29.8838 97.3235 30.9586 99.9965 30.1037C101.347 29.6643 102.524 28.8094 103.36 27.661C103.393 27.6209 103.438 27.5933 103.488 27.5832C103.538 27.5731 103.591 27.5808 103.636 27.6052C103.676 27.6373 103.703 27.683 103.713 27.7332C103.723 27.7838 103.714 27.8362 103.688 27.8808C102.604 29.3464 101.013 30.3553 99.2253 30.7109C98.4663 31.3226 97.5918 31.7748 96.6539 32.0397C95.7162 32.3049 94.7342 32.3775 93.7676 32.2532Z" fill="black"/>
<path opacity="0.3" d="M96.4127 26.7891H97.655C97.7279 26.7891 97.7981 26.7598 97.85 26.7082C97.9017 26.6565 97.9307 26.5864 97.9307 26.5135C97.9307 26.4402 97.9017 26.3701 97.85 26.3184C97.7981 26.2668 97.7279 26.2378 97.655 26.2378H96.4406C96.3673 26.2378 96.2975 26.2668 96.2455 26.3184C96.1939 26.3701 96.1649 26.4402 96.1649 26.5135C96.1782 26.577 96.2082 26.636 96.2518 26.6845C96.2954 26.733 96.3509 26.7689 96.4127 26.7891Z" fill="black"/>
<path opacity="0.3" d="M97.8958 24.4302C96.0743 24.2941 95.331 25.3305 95.0832 25.8469C95.0696 25.8916 95.0721 25.9397 95.0905 25.9827C95.1087 26.0256 95.1415 26.0608 95.183 26.0821C95.2249 26.1034 95.2727 26.1093 95.3181 26.0989C95.3638 26.0884 95.4039 26.0622 95.4322 26.0249C95.6799 25.5329 96.4791 24.4302 98.7159 24.978C98.7696 24.9899 98.8258 24.9801 98.8722 24.9508C98.919 24.9211 98.9518 24.8747 98.9636 24.821C98.9758 24.7673 98.9661 24.7111 98.9364 24.6647C98.9071 24.6179 98.8603 24.5851 98.8066 24.5732C98.5086 24.4947 98.2036 24.4466 97.8958 24.4302Z" fill="black"/>
<path d="M98.482 19.7958C98.3239 19.7958 98.1693 19.7487 98.0381 19.6611C97.9066 19.5732 97.8043 19.4483 97.7436 19.3024C97.6832 19.1565 97.6675 18.9957 97.6983 18.8407C97.729 18.6858 97.805 18.5434 97.9171 18.4314C98.0287 18.3198 98.1711 18.2437 98.326 18.213C98.4813 18.1819 98.6418 18.198 98.7877 18.2583C98.9339 18.3187 99.0588 18.4213 99.1464 18.5525C99.2343 18.6841 99.2811 18.8387 99.2811 18.9967C99.2815 19.1018 99.2612 19.2057 99.2211 19.3031C99.1813 19.4001 99.1223 19.4884 99.048 19.5627C98.9737 19.6371 98.8854 19.6957 98.7884 19.7358C98.6914 19.7759 98.587 19.7962 98.482 19.7958Z" fill="#21252B"/>
<path d="M98.0947 19.3564C98.0514 19.3564 98.0096 19.339 97.9789 19.3083C97.9482 19.2775 97.9307 19.2357 97.9307 19.1924C97.9307 19.1484 97.9478 19.1066 97.9785 19.0751C98.0092 19.0437 98.0511 19.0256 98.0947 19.0249C98.139 19.0256 98.1809 19.0437 98.2123 19.0748C98.2434 19.1062 98.2615 19.1481 98.2622 19.1924C98.2615 19.236 98.2434 19.2779 98.212 19.3086C98.1806 19.3393 98.1387 19.3564 98.0947 19.3564Z" fill="white"/>
<path d="M92.0892 20.2944C91.9311 20.2944 91.7765 20.2477 91.6453 20.1597C91.5138 20.0722 91.4112 19.9472 91.3508 19.8014C91.2904 19.6551 91.2744 19.4946 91.3054 19.3397C91.3361 19.1844 91.4122 19.042 91.5239 18.9304C91.6359 18.8187 91.7783 18.7426 91.9332 18.7116C92.0881 18.6809 92.249 18.6966 92.3949 18.7573C92.5411 18.8177 92.6657 18.9203 92.7536 19.0515C92.8412 19.183 92.8883 19.3372 92.8883 19.4953C92.8883 19.7075 92.8042 19.9106 92.6541 20.0606C92.5044 20.2103 92.301 20.2944 92.0892 20.2944Z" fill="#21252B"/>
<path d="M91.7018 19.8236C91.6694 19.8236 91.6376 19.8141 91.6108 19.796C91.5839 19.7782 91.5626 19.7524 91.5504 19.7223C91.5378 19.6923 91.5347 19.6595 91.541 19.6278C91.5472 19.596 91.5629 19.5667 91.586 19.5437C91.6087 19.5207 91.638 19.5053 91.6697 19.4987C91.7018 19.4924 91.7346 19.4959 91.7646 19.5081C91.7946 19.5207 91.8201 19.5416 91.8383 19.5685C91.8561 19.5957 91.8658 19.6271 91.8658 19.6595C91.8658 19.7032 91.8487 19.745 91.8177 19.7757C91.787 19.8064 91.7454 19.8236 91.7018 19.8236Z" fill="white"/>
<path opacity="0.3" d="M95.1738 23.3827H96.2765C96.3421 23.3827 96.4053 23.3569 96.4517 23.3101C96.4981 23.2637 96.5243 23.2009 96.5243 23.1349C96.5243 23.0693 96.4981 23.0062 96.4517 22.9598C96.4053 22.9134 96.3421 22.8872 96.2765 22.8872H95.1738C95.0423 22.8872 94.9163 22.8352 94.8235 22.742C94.7303 22.6492 94.6783 22.5232 94.6783 22.3917C94.6783 22.2605 94.7303 22.1345 94.8235 22.0413C94.9163 21.9485 95.0423 21.8961 95.1738 21.8961C95.2394 21.8961 95.3026 21.8703 95.349 21.8236C95.3954 21.7772 95.4216 21.7144 95.4216 21.6484C95.4216 21.5828 95.3954 21.5196 95.349 21.4732C95.3026 21.4268 95.2394 21.4006 95.1738 21.4006C94.9107 21.4006 94.6588 21.5053 94.4731 21.691C94.2871 21.877 94.1828 22.1289 94.1828 22.3917C94.1828 22.6548 94.2871 22.9067 94.4731 23.0927C94.6588 23.2783 94.9107 23.3827 95.1738 23.3827Z" fill="black"/>
<path d="M89.6081 17.5379L93.136 17.2901L93.6036 17.2622L96.6884 17.0423H96.7163L100.687 16.7527C100.84 16.7405 100.993 16.7586 101.138 16.8061C101.283 16.8536 101.417 16.9296 101.533 17.0298C101.648 17.1299 101.742 17.2521 101.81 17.3889C101.877 17.526 101.917 17.675 101.926 17.8275L101.982 18.7348C102.03 19.5681 101.748 20.3867 101.197 21.0141C100.647 21.6415 99.8712 22.0268 99.0386 22.0875C98.206 22.1479 97.3832 21.8785 96.7477 21.3373C96.1119 20.7964 95.7148 20.0269 95.6416 19.1954L95.5892 18.2846C95.5683 18.0365 95.6363 17.7891 95.7811 17.5867L94.5388 17.667C94.7123 17.861 94.8187 18.1056 94.8424 18.3649L94.8983 19.2756C94.9565 20.1159 94.6788 20.945 94.1257 21.5805C93.5726 22.2159 92.7899 22.6057 91.9496 22.664C91.1093 22.7223 90.2802 22.4445 89.6447 21.8914C89.0093 21.3383 88.6195 20.5556 88.5612 19.7153L88.5054 18.8046C88.4939 18.4929 88.6017 18.1887 88.8065 17.9535C89.0114 17.7183 89.2979 17.5696 89.6081 17.5379ZM96.0847 18.2811L96.1371 19.1919C96.1922 19.9052 96.5275 20.5678 97.0698 21.0347C97.6121 21.5016 98.317 21.7347 99.0306 21.6838C99.7442 21.6325 100.409 21.301 100.879 20.7615C101.349 20.222 101.586 19.5185 101.539 18.8046L101.487 17.8973C101.482 17.8045 101.459 17.7134 101.419 17.6293C101.379 17.5455 101.322 17.4702 101.253 17.4084C101.183 17.3466 101.102 17.2995 101.014 17.2695C100.926 17.2395 100.833 17.2276 100.74 17.2343L96.7722 17.5099H96.7442C96.5562 17.5284 96.3824 17.6192 96.2596 17.7629C96.1364 17.9067 96.0739 18.0923 96.0847 18.2811ZM89.0567 19.6769C89.0801 20.0332 89.174 20.3811 89.3324 20.7008C89.4908 21.0207 89.711 21.3058 89.9801 21.5403C90.2491 21.7748 90.5618 21.9539 90.9003 22.0669C91.2388 22.18 91.5964 22.2253 91.9524 22.1995C92.3083 22.174 92.6559 22.0784 92.9748 21.9183C93.2938 21.7581 93.5778 21.5362 93.8106 21.2657C94.0437 20.9953 94.2206 20.6816 94.3319 20.3424C94.4432 20.0032 94.4862 19.6455 94.4586 19.2896L94.4027 18.3823C94.3982 18.2898 94.3755 18.1988 94.3354 18.1154C94.2956 18.0316 94.2394 17.9566 94.1703 17.8948C94.1009 17.8331 94.0203 17.786 93.9324 17.7556C93.8448 17.7256 93.7519 17.713 93.6595 17.7193L93.1884 17.7472L89.6639 17.995C89.5715 17.9995 89.4804 18.0222 89.397 18.0623C89.3132 18.1021 89.2382 18.1583 89.1764 18.2274C89.1147 18.2968 89.0676 18.3774 89.0372 18.4654C89.0072 18.553 88.9946 18.6458 89.0009 18.7383L89.0567 19.6769Z" fill="#21252B"/>
<path d="M105.978 15.7056C106.044 15.4495 106.166 15.2108 106.335 15.007C106.504 14.8032 106.715 14.6389 106.955 14.5255C107.194 14.4124 107.455 14.3531 107.72 14.3521C107.985 14.351 108.247 14.4082 108.487 14.5192C110.744 15.3183 110.689 20.3607 106.969 20.912C105.011 21.2156 105.343 20.0571 105.573 18.5147L105.978 15.7056Z" fill="#FC9D9D"/>
<path opacity="0.3" d="M108.675 15.8006C108.515 15.6928 108.334 15.6202 108.144 15.587C107.954 15.5539 107.759 15.5612 107.572 15.6087C107.396 15.6725 107.234 15.7713 107.097 15.899C106.96 16.0267 106.85 16.1806 106.773 16.3519C106.569 16.7815 106.475 17.255 106.498 17.7303V18.1735C106.499 18.2042 106.507 18.2342 106.521 18.2618C106.534 18.2897 106.553 18.3141 106.576 18.3347C106.599 18.3549 106.626 18.3706 106.655 18.3808C106.684 18.3909 106.715 18.3951 106.745 18.3933C106.776 18.3916 106.806 18.3835 106.834 18.3703C106.861 18.3567 106.886 18.3378 106.907 18.3148C106.927 18.2918 106.943 18.2653 106.953 18.2359C106.963 18.207 106.967 18.1763 106.965 18.1456V17.7024C106.953 17.306 107.028 16.9117 107.185 16.5473C107.233 16.4297 107.304 16.323 107.394 16.2329C107.484 16.1433 107.591 16.0721 107.708 16.0239C107.969 15.9824 108.236 16.041 108.455 16.1879C108.48 16.2026 108.509 16.2124 108.538 16.2162C108.567 16.22 108.596 16.2179 108.624 16.2099C108.653 16.2022 108.679 16.189 108.702 16.1708C108.725 16.1523 108.745 16.13 108.759 16.1042C108.784 16.0518 108.789 15.9925 108.773 15.9367C108.758 15.8808 108.723 15.8327 108.675 15.8006Z" fill="black"/>
<path opacity="0.2" d="M103.441 81.3092L101.347 85.4967L111.889 88.1033C111.889 88.1033 116.701 90.033 116.774 81.1243L103.441 81.3092Z" fill="black"/>
<path opacity="0.6" d="M113.477 56.0483L128.05 57.5209L127.868 59.325L113.261 57.9117L113.477 56.0483Z" fill="black"/>
<path opacity="0.6" d="M69.9409 55.4866L70.3422 53.7209L79.5547 54.6038L79.3628 56.5335L69.9409 55.4866Z" fill="black"/>
<path d="M91.974 81.0684H64.8008C64.6922 81.0709 64.5893 81.1152 64.5125 81.192C64.4357 81.2684 64.3918 81.3717 64.389 81.4802V82.1781C64.3918 82.2863 64.4357 82.3896 64.5125 82.4663C64.5893 82.5428 64.6922 82.5871 64.8008 82.5899H91.974C92.0829 82.5881 92.1872 82.5441 92.2643 82.4674C92.3418 82.3906 92.3865 82.287 92.3893 82.1781V81.4802C92.3896 81.4258 92.3791 81.3717 92.3586 81.3211C92.338 81.2708 92.3073 81.2251 92.2685 81.1867C92.2298 81.1483 92.1837 81.118 92.1331 81.0977C92.0825 81.0775 92.0285 81.0674 91.974 81.0684Z" fill="#21252B"/>
<path opacity="0.6" d="M91.974 81.0684H64.8008C64.6922 81.0709 64.5893 81.1152 64.5125 81.192C64.4357 81.2684 64.3918 81.3717 64.389 81.4802V82.1781C64.3918 82.2863 64.4357 82.3896 64.5125 82.4663C64.5893 82.5428 64.6922 82.5871 64.8008 82.5899H91.974C92.0829 82.5881 92.1872 82.5441 92.2643 82.4674C92.3418 82.3906 92.3865 82.287 92.3893 82.1781V81.4802C92.3896 81.4258 92.3791 81.3717 92.3586 81.3211C92.338 81.2708 92.3073 81.2251 92.2685 81.1867C92.2298 81.1483 92.1837 81.118 92.1331 81.0977C92.0825 81.0775 92.0285 81.0674 91.974 81.0684Z" fill="black"/>
<path d="M73.6507 81.0684H26.2764C26.1675 81.0708 26.0639 81.1151 25.9868 81.1915C25.9097 81.2679 25.8646 81.3712 25.8612 81.4801V82.178C25.8646 82.2866 25.9097 82.3898 25.9868 82.4663C26.0639 82.543 26.1675 82.587 26.2764 82.5898H73.6507C73.7589 82.587 73.8622 82.5427 73.9386 82.4663C74.0154 82.3895 74.0597 82.2862 74.0625 82.178V81.4801C74.0552 81.3733 74.0091 81.2728 73.9337 81.1971C73.858 81.1214 73.7575 81.0757 73.6507 81.0684Z" fill="#21252B"/>
<g opacity="0.6">
<path opacity="0.6" d="M26.8831 81.3443H75.1089C75.1292 81.3474 75.1494 81.3461 75.169 81.3408C75.1881 81.3353 75.2063 81.3258 75.2216 81.3126C75.237 81.2993 75.2492 81.2833 75.2579 81.2648C75.2663 81.2466 75.2705 81.2267 75.2705 81.2065C75.2705 81.1862 75.2663 81.1663 75.2579 81.1479C75.2492 81.1297 75.237 81.1133 75.2216 81.1001C75.2063 81.0871 75.1881 81.0774 75.169 81.0721C75.1494 81.0666 75.1292 81.0655 75.1089 81.0686H26.8831C26.865 81.0676 26.8469 81.0704 26.8294 81.0767C26.8123 81.0833 26.797 81.0931 26.7837 81.106C26.7704 81.1189 26.7603 81.1343 26.7533 81.151C26.7464 81.1681 26.7432 81.1862 26.7436 81.2047C26.746 81.2407 26.7617 81.2749 26.7872 81.3007C26.813 81.3262 26.8472 81.3419 26.8831 81.3443Z" fill="black"/>
</g>
<path d="M73.7585 81.0683H66.6223C66.354 81.068 66.0944 80.9741 65.8878 80.8028C65.6812 80.6314 65.5413 80.3931 65.4917 80.1296L59.5106 48.6855C59.4788 48.5197 59.4848 48.3495 59.527 48.1862C59.5696 48.0232 59.6477 47.8714 59.7559 47.7423C59.8641 47.6132 59.9995 47.5095 60.1527 47.439C60.3059 47.3686 60.4727 47.333 60.6412 47.335H67.7774C68.0457 47.3354 68.3053 47.4293 68.5119 47.6006C68.7182 47.772 68.8584 48.0099 68.908 48.2737L74.8891 79.7179C74.9181 79.8829 74.9107 80.0525 74.8671 80.2148C74.8238 80.3767 74.7453 80.5274 74.6379 80.6559C74.53 80.7846 74.3957 80.8883 74.2439 80.9594C74.0917 81.0306 73.9263 81.0676 73.7585 81.0683Z" fill="#21252B"/>
<path opacity="0.6" d="M73.7585 81.0683H66.6223C66.354 81.068 66.0944 80.9741 65.8878 80.8028C65.6812 80.6314 65.5413 80.3931 65.4917 80.1296L59.5106 48.6855C59.4788 48.5197 59.4848 48.3495 59.527 48.1862C59.5696 48.0232 59.6477 47.8714 59.7559 47.7423C59.8641 47.6132 59.9995 47.5095 60.1527 47.439C60.3059 47.3686 60.4727 47.333 60.6412 47.335H67.7774C68.0457 47.3354 68.3053 47.4293 68.5119 47.6006C68.7182 47.772 68.8584 48.0099 68.908 48.2737L74.8891 79.7179C74.9181 79.8829 74.9107 80.0525 74.8671 80.2148C74.8238 80.3767 74.7453 80.5274 74.6379 80.6559C74.53 80.7846 74.3957 80.8883 74.2439 80.9594C74.0917 81.0306 73.9263 81.0676 73.7585 81.0683Z" fill="black"/>
<path d="M72.7326 81.0684H26.9076C26.64 81.068 26.3807 80.9738 26.1748 80.8024C25.9689 80.6311 25.8294 80.3931 25.7805 80.1297L19.7994 48.6855C19.7673 48.5198 19.7725 48.3492 19.8147 48.1858C19.8566 48.0225 19.9348 47.8704 20.0433 47.7409C20.1515 47.6118 20.2872 47.5082 20.4408 47.4377C20.5943 47.3675 20.7615 47.3326 20.93 47.3351H66.7305C66.9989 47.3354 67.2589 47.4293 67.4651 47.6007C67.6717 47.772 67.8116 48.01 67.8611 48.2738L73.8423 79.7179C73.8768 79.8823 73.874 80.0518 73.8342 80.2148C73.7941 80.3778 73.718 80.5299 73.6116 80.6594C73.5052 80.7892 73.3708 80.8932 73.2187 80.964C73.0665 81.0348 72.9004 81.0704 72.7326 81.0684Z" fill="#21252B"/>
<path opacity="0.6" d="M46.5608 63.3209C46.8365 63.9525 46.5329 64.5039 45.9013 64.5039H45.7896C46.148 64.9177 46.5873 65.2538 47.0808 65.4907C47.5742 65.728 48.1109 65.8609 48.6581 65.8822C50.0085 65.8543 50.6401 64.7551 50.0329 63.4047C49.4258 62.0542 47.8554 61.0039 46.5085 61.0318C45.6535 61.0597 45.0743 61.5029 44.9347 62.1903C45.2809 62.2203 45.6131 62.3404 45.8985 62.5389C46.1836 62.7371 46.4122 63.0069 46.5608 63.3209Z" fill="black"/>
<defs>
<linearGradient id="paint0_linear" x1="29.9713" y1="167.207" x2="0.0168381" y2="167.207" gradientUnits="userSpaceOnUse">
<stop stop-color="#16D9E3"/>
<stop offset="0.47" stop-color="#30C7EC"/>
<stop offset="1" stop-color="#46AEF7"/>
</linearGradient>
<linearGradient id="paint1_linear" x1="29.9717" y1="163.769" x2="0.0170307" y2="163.769" gradientUnits="userSpaceOnUse">
<stop stop-color="#16D9E3"/>
<stop offset="0.47" stop-color="#30C7EC"/>
<stop offset="1" stop-color="#46AEF7"/>
</linearGradient>
<linearGradient id="paint2_linear" x1="60.6795" y1="167.207" x2="30.725" y2="167.207" gradientUnits="userSpaceOnUse">
<stop stop-color="#16D9E3"/>
<stop offset="0.47" stop-color="#30C7EC"/>
<stop offset="1" stop-color="#46AEF7"/>
</linearGradient>
<linearGradient id="paint3_linear" x1="60.6799" y1="163.769" x2="30.7252" y2="163.769" gradientUnits="userSpaceOnUse">
<stop stop-color="#16D9E3"/>
<stop offset="0.47" stop-color="#30C7EC"/>
<stop offset="1" stop-color="#46AEF7"/>
</linearGradient>
<linearGradient id="paint4_linear" x1="129.729" y1="60.5976" x2="67.1492" y2="60.5976" gradientUnits="userSpaceOnUse">
<stop stop-color="#16D9E3"/>
<stop offset="0.47" stop-color="#30C7EC"/>
<stop offset="1" stop-color="#46AEF7"/>
</linearGradient>
<linearGradient id="paint5_linear" x1="128.356" y1="68.1662" x2="88.3658" y2="68.1662" gradientUnits="userSpaceOnUse">
<stop stop-color="#16D9E3"/>
<stop offset="0.47" stop-color="#30C7EC"/>
<stop offset="1" stop-color="#46AEF7"/>
</linearGradient>
<linearGradient id="paint6_linear" x1="128.356" y1="53.3931" x2="113.26" y2="53.3931" gradientUnits="userSpaceOnUse">
<stop stop-color="#16D9E3"/>
<stop offset="0.47" stop-color="#30C7EC"/>
<stop offset="1" stop-color="#46AEF7"/>
</linearGradient>
</defs>
</svg>
