<svg width="25" height="25" viewBox="0 0 25 25" fill="none" xmlns="http://www.w3.org/2000/svg">
<path fill-rule="evenodd" clip-rule="evenodd" d="M18.2279 14.9813C17.916 14.8261 16.3868 14.0781 16.1021 13.974C15.8174 13.8709 15.6102 13.8198 15.4019 14.1302C15.1946 14.4386 14.5991 15.1365 14.418 15.3427C14.2359 15.55 14.0548 15.575 13.7439 15.4209C13.4331 15.2646 12.4304 14.9386 11.2424 13.8844C10.3182 13.0636 9.6933 12.05 9.51222 11.7396C9.33115 11.4302 9.49234 11.2625 9.64829 11.1084C9.78855 10.9698 9.95915 10.7469 10.1151 10.5667C10.2711 10.3854 10.3224 10.2563 10.426 10.049C10.5306 9.84274 10.4783 9.66253 10.3998 9.50732C10.3224 9.35211 9.70063 7.82815 9.44105 7.20836C9.1888 6.60524 8.93236 6.68753 8.74187 6.67711C8.55975 6.66878 8.3525 6.6667 8.14526 6.6667C7.93802 6.6667 7.60099 6.74378 7.31629 7.0542C7.03055 7.36357 6.22774 8.11253 6.22774 9.63649C6.22774 11.1594 7.34141 12.6313 7.49737 12.8386C7.65332 13.0448 9.69016 16.1719 12.8103 17.5125C13.5535 17.8313 14.1323 18.0219 14.5834 18.1636C15.3286 18.4 16.0069 18.3667 16.5428 18.2865C17.1394 18.1979 18.3828 17.5375 18.6424 16.8146C18.9009 16.0917 18.9009 15.4719 18.8235 15.3427C18.746 15.2136 18.5388 15.1365 18.2269 14.9813H18.2279ZM12.5528 22.6927H12.5486C10.6954 22.6931 8.87623 22.1973 7.28175 21.2573L6.90494 21.0344L2.98827 22.0573L4.0339 18.2573L3.78793 17.8677C2.75186 16.2264 2.20357 14.3269 2.2064 12.3886C2.20849 6.71149 6.84947 2.09275 12.557 2.09275C15.3202 2.09275 17.9181 3.16566 19.8712 5.11149C20.8346 6.06626 21.5981 7.20166 22.1177 8.45201C22.6372 9.70235 22.9025 11.0428 22.8982 12.3959C22.8961 18.0729 18.2551 22.6927 12.5528 22.6927V22.6927ZM21.3575 3.63337C20.2043 2.47808 18.8321 1.56206 17.3205 0.938375C15.809 0.314692 14.1881 -0.00424608 12.5518 4.26849e-05C5.69184 4.26849e-05 0.106761 5.55733 0.104668 12.3875C0.103621 14.5709 0.676155 16.7021 1.76575 18.5802L0 25L6.59827 23.2771C8.42354 24.2668 10.469 24.7854 12.5476 24.7854H12.5528C19.4128 24.7854 24.9978 19.2281 24.9999 12.3969C25.005 10.7691 24.6857 9.15638 24.0605 7.65215C23.4353 6.14791 22.5165 4.78198 21.3575 3.63337" fill="white"/>
</svg>
